<svg width="1450" height="330" viewBox="0 0 1450 330" fill="none" xmlns="http://www.w3.org/2000/svg">
<rect x="2.5" y="2.5" width="695" height="325" rx="12.5" stroke="#8438E4" stroke-width="5"/>
<mask id="path-2-inside-1_421_231" fill="white">
<path d="M0 5H700V55H0V5Z"/>
</mask>
<path d="M0 5H700V55H0V5Z" fill="#E5DCFD"/>
<path d="M700 55V56H701V55H700ZM700 5H699V55H700H701V5H700ZM700 55V54H0V55V56H700V55Z" fill="#8438E4" mask="url(#path-2-inside-1_421_231)"/>
<path d="M324.25 32.6367C329.692 32.6367 333.11 34.3594 333.137 37.3398C333.11 40.2793 329.692 42.0293 324.25 42.0156C318.85 42.0293 315.377 40.2793 315.391 37.3398C315.377 34.3594 318.85 32.6367 324.25 32.6367ZM313.094 31.0508V28.2344H321.571V23.8867H325.016V28.2344H335.68V31.0508H313.094ZM315.637 20.9883V18.2539H333V20.2773C333.014 22.2598 333.014 24.3926 332.289 26.9492L328.871 26.6211C329.432 24.3652 329.5 22.6836 329.528 20.9883H315.637ZM318.864 37.3398C318.85 38.6797 320.819 39.3633 324.25 39.3633C327.682 39.3633 329.664 38.6797 329.664 37.3398C329.664 35.959 327.682 35.2207 324.25 35.2344C320.819 35.2207 318.85 35.959 318.864 37.3398ZM347.799 22.7656C347.785 27.2227 349.686 31.7207 353.678 33.6484L351.572 36.4375C348.906 35.1113 347.102 32.6504 346.076 29.6562C344.982 32.8691 343.068 35.5078 340.252 36.9023L338.092 34.0859C342.316 32.1445 344.299 27.3867 344.299 22.7656V19.0469H347.799V22.7656ZM354.771 42.0156V17.1328H358.271V26.7305H361.936V29.6836H358.271V42.0156H354.771ZM385.074 17.1328V42.0703H381.546V17.1328H385.074ZM365.468 36.2461V19.1016H368.968V25.1719H374.328V19.1016H377.773V36.2461H365.468ZM368.968 33.4297H374.328V27.8789H368.968V33.4297Z" fill="black"/>
<mask id="path-5-inside-2_421_231" fill="white">
<path d="M0 55H260V105H0V55Z"/>
</mask>
<path d="M0 55H260V105H0V55Z" fill="white"/>
<path d="M260 105V106H261V105H260ZM260 55H259V105H260H261V55H260ZM260 105V104H0V105V106H260V105Z" fill="#8438E4" mask="url(#path-5-inside-2_421_231)"/>
<path d="M112.289 67.3242V77.0859H116.09V79.2461H112.289V91.7969H109.692V67.3242H112.289ZM93.2309 85.2617C99.3695 82.1992 102.705 77.7695 103.239 72.0547H94.4613V69.8945H105.891C105.864 76.9766 102.746 83.3066 94.6801 87.2852L93.2309 85.2617ZM139.693 67.3516V82.1719H137.232V75.7734H134.361V81.3789H131.955V67.7891H134.361V73.6406H137.232V67.3516H139.693ZM119.842 80.0938V69.457H129.412V80.0938H119.842ZM122.275 78.125H127.006V71.4805H122.275V78.125ZM123.205 87.2305C123.178 84.4004 126.363 82.7188 131.49 82.7188C136.604 82.7188 139.816 84.4004 139.83 87.2305C139.816 90.0879 136.604 91.7832 131.49 91.7695C126.363 91.7832 123.178 90.0879 123.205 87.2305ZM125.775 87.2305C125.748 88.8574 127.922 89.7598 131.49 89.7734C135.045 89.7598 137.219 88.8574 137.232 87.2305C137.219 85.6582 135.045 84.7559 131.49 84.7422C127.922 84.7559 125.748 85.6582 125.775 87.2305ZM164.691 67.3242V91.8789H162.093V67.3242H164.691ZM145.769 86V69.375H148.367V75.6641H154.957V69.375H157.527V86H145.769ZM148.367 83.8672H154.957V77.7148H148.367V83.8672Z" fill="black"/>
<mask id="path-8-inside-3_421_231" fill="white">
<path d="M260 55H700V105H260V55Z"/>
</mask>
<path d="M260 55H700V105H260V55Z" fill="white"/>
<path d="M700 105V106H701V105H700ZM700 55H699V105H700H701V55H700ZM700 105V104H260V105V106H700V105Z" fill="#8438E4" mask="url(#path-8-inside-3_421_231)"/>
<path d="M438.561 89.7734C434.459 89.7734 431.547 87.5723 431.424 84.332H434.486C434.596 86.0684 436.318 87.1758 438.533 87.1758C440.926 87.1758 442.662 85.877 442.662 83.9492C442.662 81.9941 441.035 80.5996 438.205 80.5859H436.51V78.125H438.205C440.461 78.1387 442.033 76.8809 442.033 74.9805C442.033 73.1758 440.68 71.9453 438.588 71.9453C436.605 71.9453 434.828 73.0527 434.76 74.8438H431.861C431.943 71.6172 434.924 69.4297 438.615 69.4297C442.512 69.4297 444.959 71.8906 444.932 74.8164C444.959 77.0723 443.564 78.6855 441.432 79.2188V79.3555C444.139 79.7383 445.711 81.5566 445.697 84.0586C445.711 87.3535 442.662 89.7734 438.561 89.7734ZM455.896 89.7734C451.316 89.7734 448.623 86.082 448.623 79.6016C448.623 73.1621 451.344 69.4297 455.896 69.4297C460.436 69.4297 463.156 73.1621 463.17 79.6016C463.156 86.082 460.477 89.7734 455.896 89.7734ZM451.631 79.6016C451.617 84.5371 453.217 87.1758 455.896 87.1758C458.562 87.1758 460.162 84.5371 460.162 79.6016C460.162 74.6797 458.549 71.9863 455.896 71.9727C453.23 71.9863 451.631 74.6797 451.631 79.6016ZM473.178 89.7734C468.598 89.7734 465.904 86.082 465.904 79.6016C465.904 73.1621 468.625 69.4297 473.178 69.4297C477.717 69.4297 480.438 73.1621 480.451 79.6016C480.438 86.082 477.758 89.7734 473.178 89.7734ZM468.912 79.6016C468.898 84.5371 470.498 87.1758 473.178 87.1758C475.844 87.1758 477.443 84.5371 477.443 79.6016C477.443 74.6797 475.83 71.9863 473.178 71.9727C470.512 71.9863 468.912 74.6797 468.912 79.6016ZM495.135 69.4844V80.9141H483.678V69.4844H495.135ZM486.221 78.8633H492.592V71.5898H486.221V78.8633ZM486.439 91.3047V83.5391H489.037V89.1992H503.01V91.3047H486.439ZM499.373 85.2617V67.2969H501.971V74.625H505.525V76.8125H501.971V85.2617H499.373ZM527.291 67.3516V85.918H524.693V83.5664H519.771V81.7344H524.693V67.3516H527.291ZM506.811 78.5352C511.336 78.4941 517.447 78.4531 522.67 77.7969L522.834 79.6562C520.742 80.0117 518.541 80.2305 516.381 80.3809V85.1523H513.783V80.5176C511.404 80.6133 509.121 80.6133 507.139 80.6133L506.811 78.5352ZM508.725 72.6016C508.711 70.0039 511.186 68.2812 514.822 68.2812C518.404 68.2812 520.893 70.0039 520.893 72.6016C520.893 75.2129 518.404 76.8672 514.822 76.8672C511.199 76.8672 508.711 75.2129 508.725 72.6016ZM510.201 91.3047V84.1133H512.771V89.1992H527.893V91.3047H510.201ZM511.186 72.6016C511.172 74.0508 512.648 74.9531 514.822 74.9531C516.914 74.9531 518.418 74.0508 518.432 72.6016C518.418 71.1387 516.914 70.1953 514.822 70.2227C512.648 70.1953 511.172 71.1387 511.186 72.6016Z" fill="black"/>
<mask id="path-11-inside-4_421_231" fill="white">
<path d="M0 105H260V155H0V105Z"/>
</mask>
<path d="M0 105H260V155H0V105Z" fill="white"/>
<path d="M260 155V156H261V155H260ZM260 105H259V155H260H261V105H260ZM260 155V154H0V155V156H260V155Z" fill="#8438E4" mask="url(#path-11-inside-4_421_231)"/>
<path d="M100.72 117.352V135.152H98.1227V117.352H100.72ZM80.8961 125.062C80.9098 121.521 83.7262 119.006 87.4313 118.992C91.1227 119.006 93.9391 121.521 93.9391 125.062C93.9391 128.658 91.1227 131.16 87.4313 131.16C83.7262 131.16 80.9098 128.658 80.8961 125.062ZM83.4391 125.062C83.4254 127.373 85.148 128.891 87.4313 128.891C89.6734 128.891 91.3961 127.373 91.3961 125.062C91.3961 122.807 89.6734 121.262 87.4313 121.262C85.148 121.262 83.4254 122.807 83.4391 125.062ZM84.6969 141.305V133.348H87.3219V139.199H101.459V141.305H84.6969ZM116.038 120.223V122.301H109.366V126.812H114.945V128.836H109.366V133.977C112.566 133.936 114.657 133.812 117.187 133.348L117.405 135.453C114.589 136.027 112.265 136.068 108.464 136.082H106.878V120.223H116.038ZM116.23 128.617V126.512H119.538V117.844H121.999V140.594H119.538V128.617H116.23ZM124.542 141.824V117.324H127.058V141.824H124.542ZM151.946 117.324V141.879H149.348V117.324H151.946ZM132.97 121.645V119.539H144.454V128.48H135.649V133.84C139.628 133.826 143.087 133.635 147.188 132.965L147.434 135.098C143.1 135.822 139.409 135.986 135.075 136H132.997V126.402H141.802V121.645H132.97ZM163.846 119.156C167.182 119.17 169.602 121.986 169.998 126.512H175.057V117.324H177.627V141.879H175.057V128.617H170.026C169.739 133.402 167.264 136.369 163.846 136.355C160.196 136.369 157.612 133.033 157.639 127.742C157.612 122.506 160.196 119.17 163.846 119.156ZM160.1 127.742C160.114 131.639 161.631 134.031 163.846 134.031C166.061 134.031 167.579 131.639 167.592 127.742C167.579 123.9 166.061 121.494 163.846 121.48C161.631 121.494 160.114 123.9 160.1 127.742Z" fill="black"/>
<mask id="path-14-inside-5_421_231" fill="white">
<path d="M260 105H700V155H260V105Z"/>
</mask>
<path d="M260 105H700V155H260V105Z" fill="white"/>
<path d="M700 155V156H701V155H700ZM700 105H699V155H700H701V105H700ZM700 155V154H260V155V156H700V155Z" fill="#8438E4" mask="url(#path-14-inside-5_421_231)"/>
<path d="M370.816 119.43C374.453 119.457 378.268 121.645 378.281 128.891C378.281 135.836 375.287 139.773 370.543 139.773C366.893 139.773 364.35 137.518 363.871 134.305H366.852C367.262 135.973 368.547 137.135 370.543 137.148C373.592 137.135 375.383 134.482 375.41 129.957H375.164C374.098 131.625 372.238 132.637 370.105 132.637C366.551 132.637 363.707 129.916 363.707 126.129C363.707 122.355 366.51 119.402 370.816 119.43ZM366.633 126.074C366.646 128.371 368.355 130.189 370.762 130.176C373.154 130.189 375 128.234 375 126.047C375 123.9 373.236 121.945 370.816 121.945C368.424 121.945 366.619 123.805 366.633 126.074ZM381.453 139.5V137.312L388.316 130.395C390.49 128.139 391.57 126.881 391.57 125.145C391.57 123.189 389.984 121.945 387.906 121.945C385.705 121.945 384.311 123.34 384.297 125.445H381.453C381.426 121.822 384.188 119.43 387.961 119.43C391.775 119.43 394.414 121.85 394.441 125.062C394.414 127.277 393.375 129.041 389.656 132.691L385.637 136.766V136.93H394.77V139.5H381.453ZM404.996 139.773C400.416 139.773 397.723 136.082 397.723 129.602C397.723 123.162 400.443 119.43 404.996 119.43C409.535 119.43 412.256 123.162 412.27 129.602C412.256 136.082 409.576 139.773 404.996 139.773ZM400.73 129.602C400.717 134.537 402.316 137.176 404.996 137.176C407.662 137.176 409.262 134.537 409.262 129.602C409.262 124.68 407.648 121.986 404.996 121.973C402.33 121.986 400.73 124.68 400.73 129.602ZM426.953 119.484V130.914H415.496V119.484H426.953ZM418.039 128.863H424.41V121.59H418.039V128.863ZM418.258 141.305V133.539H420.855V139.199H434.828V141.305H418.258ZM431.191 135.262V117.297H433.789V124.625H437.344V126.812H433.789V135.262H431.191ZM459.109 117.352V135.918H456.512V133.566H451.59V131.734H456.512V117.352H459.109ZM438.629 128.535C443.154 128.494 449.266 128.453 454.488 127.797L454.652 129.656C452.561 130.012 450.359 130.23 448.199 130.381V135.152H445.602V130.518C443.223 130.613 440.939 130.613 438.957 130.613L438.629 128.535ZM440.543 122.602C440.529 120.004 443.004 118.281 446.641 118.281C450.223 118.281 452.711 120.004 452.711 122.602C452.711 125.213 450.223 126.867 446.641 126.867C443.018 126.867 440.529 125.213 440.543 122.602ZM442.02 141.305V134.113H444.59V139.199H459.711V141.305H442.02ZM443.004 122.602C442.99 124.051 444.467 124.953 446.641 124.953C448.732 124.953 450.236 124.051 450.25 122.602C450.236 121.139 448.732 120.195 446.641 120.223C444.467 120.195 442.99 121.139 443.004 122.602ZM464.66 131.16C465.576 130.148 466.684 129.629 467.914 129.629C470.047 129.629 471.934 131.188 474.012 131.188C475.256 131.188 476.35 130.627 477.211 129.547V132.172C476.295 133.184 475.188 133.703 473.957 133.703C471.824 133.703 469.924 132.145 467.832 132.145C466.615 132.145 465.521 132.705 464.66 133.785V131.16ZM489.105 119.703V139.5H486.07V122.711H485.961L481.23 125.801V122.93L486.152 119.703H489.105ZM496.57 137.613L494.383 145.16H492.059L493.508 137.613H496.57ZM506.906 139.773C503.16 139.773 500.344 137.49 500.207 134.332H503.133C503.297 136.014 504.91 137.244 506.906 137.258C509.312 137.244 511.035 135.508 511.035 133.156C511.035 130.75 509.258 129 506.77 128.973C505.184 128.973 503.967 129.506 503.297 130.723H500.453L501.738 119.703H512.949V122.273H504.227L503.57 127.824H503.762C504.582 127.031 505.977 126.498 507.48 126.484C511.213 126.498 513.961 129.26 513.961 133.074C513.961 136.971 511.035 139.773 506.906 139.773ZM517.16 139.5V137.312L524.023 130.395C526.197 128.139 527.277 126.881 527.277 125.145C527.277 123.189 525.691 121.945 523.613 121.945C521.412 121.945 520.018 123.34 520.004 125.445H517.16C517.133 121.822 519.895 119.43 523.668 119.43C527.482 119.43 530.121 121.85 530.148 125.062C530.121 127.277 529.082 129.041 525.363 132.691L521.344 136.766V136.93H530.477V139.5H517.16ZM540.703 139.773C536.123 139.773 533.43 136.082 533.43 129.602C533.43 123.162 536.15 119.43 540.703 119.43C545.242 119.43 547.963 123.162 547.977 129.602C547.963 136.082 545.283 139.773 540.703 139.773ZM536.438 129.602C536.424 134.537 538.023 137.176 540.703 137.176C543.369 137.176 544.969 134.537 544.969 129.602C544.969 124.68 543.355 121.986 540.703 121.973C538.037 121.986 536.438 124.68 536.438 129.602ZM562.66 119.484V130.914H551.203V119.484H562.66ZM553.746 128.863H560.117V121.59H553.746V128.863ZM553.965 141.305V133.539H556.562V139.199H570.535V141.305H553.965ZM566.898 135.262V117.297H569.496V124.625H573.051V126.812H569.496V135.262H566.898ZM594.816 117.352V135.918H592.219V133.566H587.297V131.734H592.219V117.352H594.816ZM574.336 128.535C578.861 128.494 584.973 128.453 590.195 127.797L590.359 129.656C588.268 130.012 586.066 130.23 583.906 130.381V135.152H581.309V130.518C578.93 130.613 576.646 130.613 574.664 130.613L574.336 128.535ZM576.25 122.602C576.236 120.004 578.711 118.281 582.348 118.281C585.93 118.281 588.418 120.004 588.418 122.602C588.418 125.213 585.93 126.867 582.348 126.867C578.725 126.867 576.236 125.213 576.25 122.602ZM577.727 141.305V134.113H580.297V139.199H595.418V141.305H577.727ZM578.711 122.602C578.697 124.051 580.174 124.953 582.348 124.953C584.439 124.953 585.943 124.051 585.957 122.602C585.943 121.139 584.439 120.195 582.348 120.223C580.174 120.195 578.697 121.139 578.711 122.602Z" fill="black"/>
<mask id="path-17-inside-6_421_231" fill="white">
<path d="M0 155H260V205H0V155Z"/>
</mask>
<path d="M0 155H260V205H0V155Z" fill="white"/>
<path d="M260 205V206H261V205H260ZM260 155H259V205H260H261V155H260ZM260 205V204H0V205V206H260V205Z" fill="#8438E4" mask="url(#path-17-inside-6_421_231)"/>
<path d="M89.482 172.438C89.482 175.609 91.8199 178.59 95.607 179.793L94.2672 181.816C91.4508 180.887 89.3316 178.959 88.2105 176.512C87.1168 179.178 84.9293 181.283 82.0172 182.309L80.6773 180.258C84.4918 178.959 86.8434 175.787 86.857 172.438V171.371H81.3609V169.266H94.8688V171.371H89.482V172.438ZM84.6969 191.305V183.539H87.3219V189.199H101.459V191.305H84.6969ZM98.1227 185.234V167.352H100.72V185.234H98.1227ZM112.784 168.117C114.89 168.117 116.667 168.869 117.816 170.141H123.831V167.324H126.402V179.793H123.831V177.223H117.87C116.722 178.535 114.917 179.314 112.784 179.301C109.079 179.314 106.345 177.031 106.359 173.695C106.345 170.4 109.079 168.117 112.784 168.117ZM108.847 173.695C108.833 175.801 110.488 177.209 112.784 177.223C115.013 177.209 116.667 175.801 116.667 173.695C116.667 171.645 115.013 170.236 112.784 170.25C110.488 170.236 108.833 171.645 108.847 173.695ZM110.378 183.02V180.996H126.402V187.094H113.03V189.445H127.277V191.523H110.433V185.152H123.831V183.02H110.378ZM118.95 172.191C119.087 172.67 119.155 173.162 119.155 173.695C119.155 174.215 119.087 174.707 118.964 175.172H123.831V172.191H118.95ZM140.161 171.836C140.147 174.953 142.321 177.797 146.04 178.973L144.809 180.996C142.02 180.107 139.983 178.262 138.903 175.938C137.837 178.617 135.69 180.736 132.751 181.762L131.411 179.684C135.239 178.426 137.55 175.268 137.563 171.863V171.18H132.177V169.074H145.438V171.18H140.161V171.836ZM134.72 187.176C134.72 184.305 137.85 182.623 142.95 182.637C147.995 182.623 151.071 184.305 151.071 187.176C151.071 190.088 147.995 191.783 142.95 191.77C137.85 191.783 134.72 190.088 134.72 187.176ZM137.317 187.176C137.304 188.816 139.409 189.732 142.95 189.719C146.464 189.732 148.542 188.816 148.528 187.176C148.542 185.576 146.464 184.674 142.95 184.688C139.409 184.674 137.304 185.576 137.317 187.176ZM148.255 182.035V167.324H150.852V173.395H154.407V175.527H150.852V182.035H148.255ZM177.491 167.324V191.879H174.893V167.324H177.491ZM158.569 186V169.375H161.166V175.664H167.756V169.375H170.327V186H158.569ZM161.166 183.867H167.756V177.715H161.166V183.867Z" fill="black"/>
<mask id="path-20-inside-7_421_231" fill="white">
<path d="M260 155H700V205H260V155Z"/>
</mask>
<path d="M260 155H700V205H260V155Z" fill="white"/>
<path d="M700 205V206H701V205H700ZM700 155H699V205H700H701V155H700ZM700 205V204H260V205V206H700V205Z" fill="#8438E4" mask="url(#path-20-inside-7_421_231)"/>
<path d="M365.115 189.5L373.947 172.438V172.273H363.748V169.703H377.064V172.383L368.26 189.5H365.115ZM386.553 189.773C381.973 189.773 379.279 186.082 379.279 179.602C379.279 173.162 382 169.43 386.553 169.43C391.092 169.43 393.812 173.162 393.826 179.602C393.812 186.082 391.133 189.773 386.553 189.773ZM382.287 179.602C382.273 184.537 383.873 187.176 386.553 187.176C389.219 187.176 390.818 184.537 390.818 179.602C390.818 174.68 389.205 171.986 386.553 171.973C383.887 171.986 382.287 174.68 382.287 179.602ZM403.834 189.773C399.254 189.773 396.561 186.082 396.561 179.602C396.561 173.162 399.281 169.43 403.834 169.43C408.373 169.43 411.094 173.162 411.107 179.602C411.094 186.082 408.414 189.773 403.834 189.773ZM399.568 179.602C399.555 184.537 401.154 187.176 403.834 187.176C406.5 187.176 408.1 184.537 408.1 179.602C408.1 174.68 406.486 171.986 403.834 171.973C401.168 171.986 399.568 174.68 399.568 179.602ZM425.791 169.484V180.914H414.334V169.484H425.791ZM416.877 178.863H423.248V171.59H416.877V178.863ZM417.096 191.305V183.539H419.693V189.199H433.666V191.305H417.096ZM430.029 185.262V167.297H432.627V174.625H436.182V176.812H432.627V185.262H430.029ZM457.947 167.352V185.918H455.35V183.566H450.428V181.734H455.35V167.352H457.947ZM437.467 178.535C441.992 178.494 448.104 178.453 453.326 177.797L453.49 179.656C451.398 180.012 449.197 180.23 447.037 180.381V185.152H444.439V180.518C442.061 180.613 439.777 180.613 437.795 180.613L437.467 178.535ZM439.381 172.602C439.367 170.004 441.842 168.281 445.479 168.281C449.061 168.281 451.549 170.004 451.549 172.602C451.549 175.213 449.061 176.867 445.479 176.867C441.855 176.867 439.367 175.213 439.381 172.602ZM440.857 191.305V184.113H443.428V189.199H458.549V191.305H440.857ZM441.842 172.602C441.828 174.051 443.305 174.953 445.479 174.953C447.57 174.953 449.074 174.051 449.088 172.602C449.074 171.139 447.57 170.195 445.479 170.223C443.305 170.195 441.828 171.139 441.842 172.602ZM463.498 181.16C464.414 180.148 465.521 179.629 466.752 179.629C468.885 179.629 470.771 181.188 472.85 181.188C474.094 181.188 475.188 180.627 476.049 179.547V182.172C475.133 183.184 474.025 183.703 472.795 183.703C470.662 183.703 468.762 182.145 466.67 182.145C465.453 182.145 464.359 182.705 463.498 183.785V181.16ZM487.943 169.703V189.5H484.908V172.711H484.799L480.068 175.801V172.93L484.99 169.703H487.943ZM495.408 187.613L493.221 195.16H490.896L492.346 187.613H495.408ZM505.662 189.773C501.561 189.773 498.648 187.572 498.525 184.332H501.588C501.697 186.068 503.42 187.176 505.635 187.176C508.027 187.176 509.764 185.877 509.764 183.949C509.764 181.994 508.137 180.6 505.307 180.586H503.611V178.125H505.307C507.562 178.139 509.135 176.881 509.135 174.98C509.135 173.176 507.781 171.945 505.689 171.945C503.707 171.945 501.93 173.053 501.861 174.844H498.963C499.045 171.617 502.025 169.43 505.717 169.43C509.613 169.43 512.061 171.891 512.033 174.816C512.061 177.072 510.666 178.686 508.533 179.219V179.355C511.24 179.738 512.812 181.557 512.799 184.059C512.812 187.354 509.764 189.773 505.662 189.773ZM522.998 189.773C518.418 189.773 515.725 186.082 515.725 179.602C515.725 173.162 518.445 169.43 522.998 169.43C527.537 169.43 530.258 173.162 530.271 179.602C530.258 186.082 527.578 189.773 522.998 189.773ZM518.732 179.602C518.719 184.537 520.318 187.176 522.998 187.176C525.664 187.176 527.264 184.537 527.264 179.602C527.264 174.68 525.65 171.986 522.998 171.973C520.332 171.986 518.732 174.68 518.732 179.602ZM540.279 189.773C535.699 189.773 533.006 186.082 533.006 179.602C533.006 173.162 535.727 169.43 540.279 169.43C544.818 169.43 547.539 173.162 547.553 179.602C547.539 186.082 544.859 189.773 540.279 189.773ZM536.014 179.602C536 184.537 537.6 187.176 540.279 187.176C542.945 187.176 544.545 184.537 544.545 179.602C544.545 174.68 542.932 171.986 540.279 171.973C537.613 171.986 536.014 174.68 536.014 179.602ZM562.236 169.484V180.914H550.779V169.484H562.236ZM553.322 178.863H559.693V171.59H553.322V178.863ZM553.541 191.305V183.539H556.139V189.199H570.111V191.305H553.541ZM566.475 185.262V167.297H569.072V174.625H572.627V176.812H569.072V185.262H566.475ZM594.393 167.352V185.918H591.795V183.566H586.873V181.734H591.795V167.352H594.393ZM573.912 178.535C578.438 178.494 584.549 178.453 589.771 177.797L589.936 179.656C587.844 180.012 585.643 180.23 583.482 180.381V185.152H580.885V180.518C578.506 180.613 576.223 180.613 574.24 180.613L573.912 178.535ZM575.826 172.602C575.812 170.004 578.287 168.281 581.924 168.281C585.506 168.281 587.994 170.004 587.994 172.602C587.994 175.213 585.506 176.867 581.924 176.867C578.301 176.867 575.812 175.213 575.826 172.602ZM577.303 191.305V184.113H579.873V189.199H594.994V191.305H577.303ZM578.287 172.602C578.273 174.051 579.75 174.953 581.924 174.953C584.016 174.953 585.52 174.051 585.533 172.602C585.52 171.139 584.016 170.195 581.924 170.223C579.75 170.195 578.273 171.139 578.287 172.602Z" fill="black"/>
<mask id="path-23-inside-8_421_231" fill="white">
<path d="M0 205H260V255H0V205Z"/>
</mask>
<path d="M0 205H260V255H0V205Z" fill="white"/>
<path d="M260 205H259V255H260H261V205H260Z" fill="#8438E4" mask="url(#path-23-inside-8_421_231)"/>
<path d="M260 205H259V255H260H261V205H260Z" fill="black" fill-opacity="0.2" mask="url(#path-23-inside-8_421_231)"/>
<path d="M64.7852 239.5V219.703H71.8398C76.4473 219.703 78.7031 222.465 78.7031 226.129C78.7031 229.779 76.4336 232.555 71.8398 232.555H67.793V239.5H64.7852ZM67.793 229.984H71.5391C74.4512 229.998 75.668 228.357 75.668 226.129C75.668 223.887 74.4512 222.287 71.5391 222.273H67.793V229.984ZM100.474 229.602C100.474 235.932 96.6734 239.773 91.5602 239.773C86.4059 239.773 82.6188 235.918 82.6188 229.602C82.6188 223.271 86.4059 219.43 91.5602 219.43C96.6734 219.43 100.474 223.271 100.474 229.602ZM85.5992 229.602C85.6129 234.414 88.1422 237.025 91.5602 237.012C94.9508 237.025 97.4801 234.414 97.4938 229.602C97.4801 224.789 94.9508 222.178 91.5602 222.191C88.1422 222.178 85.6129 224.789 85.5992 229.602ZM116.038 224.926C115.847 223.08 114.234 222.027 111.964 222.027C109.544 222.027 108.013 223.271 107.999 224.953C107.999 226.826 110.036 227.564 111.609 227.934L113.523 228.453C116.052 229.068 119.224 230.449 119.238 234.031C119.224 237.381 116.558 239.828 111.882 239.828C107.452 239.828 104.663 237.613 104.472 234.004H107.48C107.657 236.164 109.571 237.189 111.882 237.203C114.411 237.189 116.243 235.918 116.257 233.977C116.243 232.254 114.603 231.557 112.511 230.996L110.159 230.367C106.974 229.492 105.005 227.879 104.991 225.117C105.005 221.699 108.04 219.43 112.046 219.43C116.066 219.43 118.868 221.727 118.964 224.926H116.038ZM131.739 223.559C131.712 228.029 134.419 232.541 138.22 234.223L136.661 236.273C133.845 234.934 131.616 232.186 130.468 228.836C129.333 232.432 127.077 235.385 124.137 236.82L122.552 234.633C126.407 232.924 129.114 228.234 129.114 223.559V219.375H131.739V223.559ZM140.434 241.879V217.324H143.032V241.879H140.434ZM160.784 220.797C160.784 224.789 165.036 228.562 169.752 229.41L168.549 231.57C164.625 230.723 161.03 228.152 159.444 224.707C157.83 228.139 154.235 230.695 150.311 231.57L149.162 229.41C153.811 228.535 158.036 224.789 158.049 220.797V218.938H160.784V220.797ZM148.342 238.598V236.438H170.764V238.598H148.342ZM184.359 218.883V221.016H177.523V223.668H183.402V225.691H177.523V228.617C180.764 228.59 182.883 228.467 185.398 228.016L185.645 230.066C182.828 230.6 180.49 230.695 176.621 230.695H175.035V218.883H184.359ZM178.453 241.523V233.129H194.832V241.523H178.453ZM181.051 239.418H192.289V235.18H181.051V239.418ZM184.523 225.5V223.395H187.559V217.734H190.02V231.844H187.559V225.5H184.523ZM192.371 232.035V217.324H194.832V232.035H192.371Z" fill="black"/>
<mask id="path-26-inside-9_421_231" fill="white">
<path d="M260 205H700V255H260V205Z"/>
</mask>
<path d="M260 205H700V255H260V205Z" fill="white"/>
<path d="M700 205H699V255H700H701V205H700Z" fill="#8438E4" mask="url(#path-26-inside-9_421_231)"/>
<path d="M700 205H699V255H700H701V205H700Z" fill="black" fill-opacity="0.2" mask="url(#path-26-inside-9_421_231)"/>
<path d="M374.098 239.773C370.434 239.746 366.605 237.572 366.605 230.258C366.619 223.367 369.6 219.43 374.344 219.43C377.994 219.43 380.523 221.699 380.988 224.844H378.008C377.611 223.23 376.34 222.068 374.344 222.055C371.281 222.068 369.504 224.721 369.504 229.191H369.723C370.803 227.51 372.662 226.525 374.809 226.512C378.336 226.525 381.18 229.232 381.18 233.02C381.18 236.861 378.35 239.801 374.098 239.773ZM369.859 233.102C369.873 235.303 371.637 237.244 374.07 237.258C376.463 237.244 378.254 235.385 378.254 233.074C378.254 230.805 376.531 228.959 374.152 228.973C371.732 228.959 369.887 230.9 369.859 233.102ZM391.105 239.773C387.359 239.773 384.543 237.49 384.406 234.332H387.332C387.496 236.014 389.109 237.244 391.105 237.258C393.512 237.244 395.234 235.508 395.234 233.156C395.234 230.75 393.457 229 390.969 228.973C389.383 228.973 388.166 229.506 387.496 230.723H384.652L385.938 219.703H397.148V222.273H388.426L387.77 227.824H387.961C388.781 227.031 390.176 226.498 391.68 226.484C395.412 226.498 398.16 229.26 398.16 233.074C398.16 236.971 395.234 239.773 391.105 239.773ZM408.25 239.773C403.67 239.773 400.977 236.082 400.977 229.602C400.977 223.162 403.697 219.43 408.25 219.43C412.789 219.43 415.51 223.162 415.523 229.602C415.51 236.082 412.83 239.773 408.25 239.773ZM403.984 229.602C403.971 234.537 405.57 237.176 408.25 237.176C410.916 237.176 412.516 234.537 412.516 229.602C412.516 224.68 410.902 221.986 408.25 221.973C405.584 221.986 403.984 224.68 403.984 229.602ZM430.207 219.484V230.914H418.75V219.484H430.207ZM421.293 228.863H427.664V221.59H421.293V228.863ZM421.512 241.305V233.539H424.109V239.199H438.082V241.305H421.512ZM434.445 235.262V217.297H437.043V224.625H440.598V226.812H437.043V235.262H434.445ZM462.363 217.352V235.918H459.766V233.566H454.844V231.734H459.766V217.352H462.363ZM441.883 228.535C446.408 228.494 452.52 228.453 457.742 227.797L457.906 229.656C455.814 230.012 453.613 230.23 451.453 230.381V235.152H448.855V230.518C446.477 230.613 444.193 230.613 442.211 230.613L441.883 228.535ZM443.797 222.602C443.783 220.004 446.258 218.281 449.895 218.281C453.477 218.281 455.965 220.004 455.965 222.602C455.965 225.213 453.477 226.867 449.895 226.867C446.271 226.867 443.783 225.213 443.797 222.602ZM445.273 241.305V234.113H447.844V239.199H462.965V241.305H445.273ZM446.258 222.602C446.244 224.051 447.721 224.953 449.895 224.953C451.986 224.953 453.49 224.051 453.504 222.602C453.49 221.139 451.986 220.195 449.895 220.223C447.721 220.195 446.244 221.139 446.258 222.602ZM467.914 231.16C468.83 230.148 469.938 229.629 471.168 229.629C473.301 229.629 475.188 231.188 477.266 231.188C478.51 231.188 479.604 230.627 480.465 229.547V232.172C479.549 233.184 478.441 233.703 477.211 233.703C475.078 233.703 473.178 232.145 471.086 232.145C469.869 232.145 468.775 232.705 467.914 233.785V231.16ZM492.359 219.703V239.5H489.324V222.711H489.215L484.484 225.801V222.93L489.406 219.703H492.359ZM499.824 237.613L497.637 245.16H495.312L496.762 237.613H499.824ZM508.875 219.703V239.5H505.84V222.711H505.73L501 225.801V222.93L505.922 219.703H508.875ZM520.633 239.773C516.887 239.773 514.07 237.49 513.934 234.332H516.859C517.023 236.014 518.637 237.244 520.633 237.258C523.039 237.244 524.762 235.508 524.762 233.156C524.762 230.75 522.984 229 520.496 228.973C518.91 228.973 517.693 229.506 517.023 230.723H514.18L515.465 219.703H526.676V222.273H517.953L517.297 227.824H517.488C518.309 227.031 519.703 226.498 521.207 226.484C524.939 226.498 527.688 229.26 527.688 233.074C527.688 236.971 524.762 239.773 520.633 239.773ZM537.777 239.773C533.197 239.773 530.504 236.082 530.504 229.602C530.504 223.162 533.225 219.43 537.777 219.43C542.316 219.43 545.037 223.162 545.051 229.602C545.037 236.082 542.357 239.773 537.777 239.773ZM533.512 229.602C533.498 234.537 535.098 237.176 537.777 237.176C540.443 237.176 542.043 234.537 542.043 229.602C542.043 224.68 540.43 221.986 537.777 221.973C535.111 221.986 533.512 224.68 533.512 229.602ZM559.734 219.484V230.914H548.277V219.484H559.734ZM550.82 228.863H557.191V221.59H550.82V228.863ZM551.039 241.305V233.539H553.637V239.199H567.609V241.305H551.039ZM563.973 235.262V217.297H566.57V224.625H570.125V226.812H566.57V235.262H563.973ZM591.891 217.352V235.918H589.293V233.566H584.371V231.734H589.293V217.352H591.891ZM571.41 228.535C575.936 228.494 582.047 228.453 587.27 227.797L587.434 229.656C585.342 230.012 583.141 230.23 580.98 230.381V235.152H578.383V230.518C576.004 230.613 573.721 230.613 571.738 230.613L571.41 228.535ZM573.324 222.602C573.311 220.004 575.785 218.281 579.422 218.281C583.004 218.281 585.492 220.004 585.492 222.602C585.492 225.213 583.004 226.867 579.422 226.867C575.799 226.867 573.311 225.213 573.324 222.602ZM574.801 241.305V234.113H577.371V239.199H592.492V241.305H574.801ZM575.785 222.602C575.771 224.051 577.248 224.953 579.422 224.953C581.514 224.953 583.018 224.051 583.031 222.602C583.018 221.139 581.514 220.195 579.422 220.223C577.248 220.195 575.771 221.139 575.785 222.602Z" fill="black"/>
<mask id="path-29-inside-10_421_231" fill="white">
<path d="M0 255H260V325H0V255Z"/>
</mask>
<path d="M0 255H260V325H0V255Z" fill="#8438E4"/>
<path d="M260 255H259V325H260H261V255H260Z" fill="#A788F7" mask="url(#path-29-inside-10_421_231)"/>
<path d="M121.001 273.461V281.02H125.044V285.66H121.001V292.621H115.341V273.461H121.001ZM94.9499 280.387V276.027H101.735V273.32H107.395V276.027H114.18V280.387H94.9499ZM96.3562 286.715C96.3386 283.252 99.7312 280.932 104.548 280.914C109.311 280.932 112.669 283.252 112.669 286.715C112.669 290.178 109.311 292.498 104.548 292.48C99.7312 292.498 96.3386 290.178 96.3562 286.715ZM99.2741 305.699V293.746H104.864V295.609H115.341V293.746H121.001V305.699H99.2741ZM101.876 286.715C101.858 287.945 102.93 288.438 104.548 288.402C106.2 288.438 107.307 287.945 107.325 286.715C107.307 285.555 106.2 284.992 104.548 285.027C102.93 284.992 101.858 285.555 101.876 286.715ZM104.864 301.305H115.341V299.863H104.864V301.305ZM163.749 273.461V305.98H158.476V273.461H163.749ZM134.605 295.469C140.863 291.76 143.394 287.699 144.009 281.652H136.749V277.188H149.581C149.581 278.77 149.511 280.299 149.353 281.758H151.55V274.129H156.824V304.68H151.55V294.344H147.859V289.809H151.55V286.293H148.509C147.05 291.549 143.868 295.855 137.839 299.406L134.605 295.469Z" fill="white"/>
<mask id="path-32-inside-11_421_231" fill="white">
<path d="M260 255H700V325H260V255Z"/>
</mask>
<path d="M260 255H700V325H260V255Z" fill="#8438E4"/>
<path d="M700 255H699V325H700H701V255H700Z" fill="#A788F7" mask="url(#path-32-inside-11_421_231)"/>
<path d="M309.475 302.5V297.684L318.932 289.738C320.865 288.104 322.043 286.908 322.061 285.062C322.043 283.076 320.637 281.863 318.686 281.863C316.717 281.863 315.363 283.111 315.381 285.273H309.018C309 279.965 312.832 276.695 318.686 276.695C324.715 276.695 328.564 279.807 328.564 284.5C328.564 287.453 327.105 289.932 321.357 294.766L318.791 296.98V297.121H328.846V302.5H309.475ZM342.1 302.852C336.316 302.852 332.15 299.529 332.115 294.836H338.619C338.672 296.611 340.219 297.771 342.1 297.754C344.279 297.771 345.809 296.26 345.791 293.992C345.809 291.689 344.279 290.178 342.1 290.195C340.359 290.178 339.234 290.916 338.619 292.199H332.678L333.768 277.047H350.678V282.391H339.287L338.76 288.121H338.9C339.727 286.627 341.783 285.52 344.314 285.52C348.885 285.52 352.277 288.947 352.26 293.781C352.277 299.09 348.234 302.852 342.1 302.852ZM356.443 302.5L366.533 282.566V282.391H354.721V277.047H373.494V282.426L363.334 302.5H356.443ZM386.994 302.852C380.139 302.852 375.902 298.123 375.885 289.773C375.902 281.406 380.139 276.695 386.994 276.695C393.85 276.695 398.104 281.441 398.104 289.773C398.104 298.158 393.85 302.852 386.994 302.852ZM382.811 289.773C382.793 295.17 384.533 297.455 386.994 297.473C389.455 297.455 391.195 295.17 391.178 289.773C391.16 284.482 389.455 282.092 386.994 282.074C384.533 282.092 382.846 284.482 382.811 289.773ZM417.053 276.027V292.023H401.092V276.027H417.053ZM404.854 305.523V294.766H410.514V301.023H427.354V305.523H404.854ZM406.682 287.629H411.463V280.457H406.682V287.629ZM420.744 297.156V273.531H426.404V282.531H430.447V287.137H426.404V297.156H420.744ZM459.486 273.531V298H453.861V295.926H447.955V292.164H453.861V273.531H459.486ZM431.396 287.523C437.32 287.453 445.283 287.365 452.104 286.504L452.385 290.512C450.047 290.916 447.639 291.215 445.248 291.426V297.438H440.854V301.023H460.189V305.523H435.193V295.68H439.588V291.777C436.916 291.883 434.35 291.918 432.029 291.918L431.396 287.523ZM433.682 280.422C433.682 276.941 437.074 274.48 441.908 274.48C446.637 274.48 450.082 276.941 450.1 280.422C450.082 283.92 446.637 286.223 441.908 286.223C437.092 286.223 433.682 283.92 433.682 280.422ZM439.025 280.422C439.008 281.67 440.168 282.197 441.908 282.18C443.543 282.197 444.721 281.67 444.721 280.422C444.721 279.121 443.543 278.576 441.908 278.559C440.168 278.576 439.008 279.121 439.025 280.422ZM465.182 290.688C466.412 289.422 467.977 288.771 469.717 288.789C472.74 288.771 475.201 290.74 478.295 290.758C479.982 290.74 481.529 290.16 482.725 289V294.203C481.512 295.434 479.912 296.084 478.189 296.066C475.166 296.084 472.688 294.115 469.611 294.133C467.924 294.115 466.395 294.713 465.182 295.855V290.688ZM487.506 298.457V293.254L497.807 277.047H506.279V293.219H509.232V298.457H506.279V302.5H499.881V298.457H487.506ZM494.115 293.219H500.021V284.008H499.811L494.115 293.043V293.219ZM518.936 299.758L515.666 310.059H511.201L512.818 299.758H518.936ZM523.154 302.5V297.684L532.611 289.738C534.545 288.104 535.723 286.908 535.74 285.062C535.723 283.076 534.316 281.863 532.365 281.863C530.396 281.863 529.043 283.111 529.061 285.273H522.697C522.68 279.965 526.512 276.695 532.365 276.695C538.395 276.695 542.244 279.807 542.244 284.5C542.244 287.453 540.785 289.932 535.037 294.766L532.471 296.98V297.121H542.525V302.5H523.154ZM546.814 302.5L556.904 282.566V282.391H545.092V277.047H563.865V282.426L553.705 302.5H546.814ZM577.365 302.852C570.51 302.852 566.273 298.123 566.256 289.773C566.273 281.406 570.51 276.695 577.365 276.695C584.221 276.695 588.475 281.441 588.475 289.773C588.475 298.158 584.221 302.852 577.365 302.852ZM573.182 289.773C573.164 295.17 574.904 297.455 577.365 297.473C579.826 297.455 581.566 295.17 581.549 289.773C581.531 284.482 579.826 282.092 577.365 282.074C574.904 282.092 573.217 284.482 573.182 289.773ZM607.424 276.027V292.023H591.463V276.027H607.424ZM595.225 305.523V294.766H600.885V301.023H617.725V305.523H595.225ZM597.053 287.629H601.834V280.457H597.053V287.629ZM611.115 297.156V273.531H616.775V282.531H620.818V287.137H616.775V297.156H611.115ZM649.857 273.531V298H644.232V295.926H638.326V292.164H644.232V273.531H649.857ZM621.768 287.523C627.691 287.453 635.654 287.365 642.475 286.504L642.756 290.512C640.418 290.916 638.01 291.215 635.619 291.426V297.438H631.225V301.023H650.561V305.523H625.564V295.68H629.959V291.777C627.287 291.883 624.721 291.918 622.4 291.918L621.768 287.523ZM624.053 280.422C624.053 276.941 627.445 274.48 632.279 274.48C637.008 274.48 640.453 276.941 640.471 280.422C640.453 283.92 637.008 286.223 632.279 286.223C627.463 286.223 624.053 283.92 624.053 280.422ZM629.396 280.422C629.379 281.67 630.539 282.197 632.279 282.18C633.914 282.197 635.092 281.67 635.092 280.422C635.092 279.121 633.914 278.576 632.279 278.559C630.539 278.576 629.379 279.121 629.396 280.422Z" fill="#FFF600"/>
<rect x="752.5" y="2.5" width="695" height="325" rx="12.5" stroke="#8438E4" stroke-width="5"/>
<mask id="path-36-inside-12_421_231" fill="white">
<path d="M750 5H1450V55H750V5Z"/>
</mask>
<path d="M750 5H1450V55H750V5Z" fill="#E5DCFD"/>
<path d="M1450 55V56H1451V55H1450ZM1450 5H1449V55H1450H1451V5H1450ZM1450 55V54H750V55V56H1450V55Z" fill="#8438E4" mask="url(#path-36-inside-12_421_231)"/>
<path d="M1060.22 36.3281V39.1719H1037.44V36.3281H1047.07V31.4609H1050.54V36.3281H1060.22ZM1038.21 29.6016C1043.88 28.918 1046.7 26.1016 1047.01 23.3398H1039.41V20.5508H1047.07V17.4336H1050.54V20.5508H1058.22V23.3398H1050.62C1050.91 26.1016 1053.74 28.918 1059.4 29.6016L1058.14 32.3086C1053.68 31.7344 1050.47 29.8887 1048.79 27.3184C1047.13 29.8887 1043.93 31.7344 1039.49 32.3086L1038.21 29.6016ZM1083.33 28.2617V31.0234H1076.11V36.3281H1085.82V39.1719H1063.04V36.3281H1072.64V31.0234H1065.72V18.8828H1083.14V21.6719H1069.22V28.2617H1083.33ZM1097.72 21.043C1097.7 24.0645 1099.47 26.9629 1103.4 28.1797L1101.54 30.8867C1098.91 30.0117 1097.06 28.3164 1095.99 26.1426C1094.91 28.6445 1092.99 30.6133 1090.14 31.5703L1088.26 28.8359C1092.41 27.4551 1094.19 24.1465 1094.22 20.7148V18.4453H1097.72V21.043ZM1091.7 37.2031C1091.69 34.1816 1094.98 32.3906 1100.23 32.3906C1105.39 32.3906 1108.61 34.1816 1108.63 37.2031C1108.61 40.252 1105.39 42.0293 1100.23 42.0156C1094.98 42.0293 1091.69 40.252 1091.7 37.2031ZM1095.2 37.2031C1095.17 38.6113 1096.96 39.2812 1100.23 39.2812C1103.46 39.2812 1105.18 38.6113 1105.18 37.2031C1105.18 35.8496 1103.46 35.125 1100.23 35.125C1096.96 35.125 1095.17 35.8496 1095.2 37.2031ZM1104.88 31.8984V17.1328H1108.38V22.957H1111.74V25.8555H1108.38V31.8984H1104.88ZM1136.93 28.7812V31.543H1127.31V33.6758H1134.23V41.7422H1116.86V33.6758H1123.84V31.543H1114.24V28.7812H1136.93ZM1116.23 20.6055V17.8164H1134.91V20.6055H1131.66V24.4062H1134.75V27.1953H1116.4V24.4062H1119.46V20.6055H1116.23ZM1120.31 38.9531H1130.81V36.3828H1120.31V38.9531ZM1122.96 24.4062H1128.16V20.6055H1122.96V24.4062ZM1160.67 17.1328V42.0703H1157.15V17.1328H1160.67ZM1141.07 36.2461V19.1016H1144.57V25.1719H1149.93V19.1016H1153.37V36.2461H1141.07ZM1144.57 33.4297H1149.93V27.8789H1144.57V33.4297Z" fill="black"/>
<mask id="path-39-inside-13_421_231" fill="white">
<path d="M750 55H1010V122H750V55Z"/>
</mask>
<path d="M750 55H1010V122H750V55Z" fill="white"/>
<path d="M1010 122V123H1011V122H1010ZM1010 55H1009V122H1010H1011V55H1010ZM1010 122V121H750V122V123H1010V122Z" fill="#8438E4" mask="url(#path-39-inside-13_421_231)"/>
<path d="M854.25 91.2188C859.555 91.2188 862.905 92.9004 862.918 95.7578C862.905 98.6016 859.555 100.283 854.25 100.27C849 100.283 845.637 98.6016 845.637 95.7578C845.637 92.9004 849 91.2188 854.25 91.2188ZM843.231 89.1953V87.0898H852.172V82.4961H854.715V87.0898H865.516V89.1953H843.231ZM845.829 79.1055V77.0273H862.727V79.0781C862.741 81.0332 862.741 83.0566 862.043 85.5859L859.5 85.3125C860.157 82.8105 860.157 81.0059 860.157 79.1055H845.829ZM848.235 95.7578C848.207 97.3438 850.545 98.2598 854.25 98.2734C857.996 98.2598 860.321 97.3438 860.348 95.7578C860.321 94.1445 857.996 93.2012 854.25 93.1875C850.545 93.2012 848.207 94.1445 848.235 95.7578ZM877.307 80.3086C877.307 83.5898 879.59 86.6797 883.322 87.9375L881.982 89.9883C879.234 89.0312 877.184 87.0762 876.104 84.6016C875.037 87.3633 872.932 89.4961 870.061 90.5625L868.611 88.5117C872.494 87.1855 874.723 83.877 874.736 80.2266V77.3281H877.307V80.3086ZM872.549 99.8047V92.1211H875.201V97.6992H889.119V99.8047H872.549ZM885.455 93.8711V75.7969H888.053V83.1797H891.607V85.3945H888.053V93.8711H885.455ZM916.742 87.5547V89.6328H906.843V92.2578H914.007V100.023H897.082V92.2578H904.273V89.6328H894.402V87.5547H916.742ZM896.453 78.6953V76.5898H914.636V78.6953H911.082V83.3711H914.527V85.4766H896.562V83.3711H900.035V78.6953H896.453ZM899.652 97.918H911.492V94.3086H899.652V97.918ZM902.605 83.3711H908.484V78.6953H902.605V83.3711Z" fill="black"/>
<mask id="path-42-inside-14_421_231" fill="white">
<path d="M1010 55H1450V122H1010V55Z"/>
</mask>
<path d="M1010 55H1450V122H1010V55Z" fill="white"/>
<path d="M1450 122V123H1451V122H1450ZM1450 55H1449V122H1450H1451V55H1450ZM1450 122V121H1010V122V123H1450V122Z" fill="#8438E4" mask="url(#path-42-inside-14_421_231)"/>
<path d="M1188.53 98.2734C1184.23 98.2734 1181.23 95.9492 1181.26 92.7227C1181.23 90.1797 1183.05 88.1016 1185.39 87.7461V87.6367C1183.35 87.1719 1182 85.3672 1182 83.207C1182 80.1582 1184.75 77.9297 1188.53 77.9297C1192.27 77.9297 1195.03 80.1582 1195.04 83.207C1195.03 85.3672 1193.65 87.1719 1191.65 87.6367V87.7461C1193.96 88.1016 1195.79 90.1797 1195.81 92.7227C1195.79 95.9492 1192.77 98.2734 1188.53 98.2734ZM1184.32 92.5039C1184.28 94.4453 1185.92 95.7852 1188.53 95.7852C1191.1 95.7852 1192.74 94.4453 1192.74 92.5039C1192.74 90.4668 1190.97 88.9766 1188.53 88.9766C1186.07 88.9766 1184.28 90.4668 1184.32 92.5039ZM1184.92 83.4805C1184.94 85.3262 1186.41 86.6113 1188.53 86.5977C1190.6 86.6113 1192.1 85.3398 1192.09 83.4805C1192.1 81.6348 1190.65 80.377 1188.53 80.3906C1186.36 80.377 1184.94 81.6348 1184.92 83.4805ZM1205.81 98.2734C1201.23 98.2734 1198.54 94.582 1198.54 88.1016C1198.54 81.6621 1201.26 77.9297 1205.81 77.9297C1210.35 77.9297 1213.07 81.6621 1213.09 88.1016C1213.07 94.582 1210.39 98.2734 1205.81 98.2734ZM1201.55 88.1016C1201.54 93.0371 1203.13 95.6758 1205.81 95.6758C1208.48 95.6758 1210.08 93.0371 1210.08 88.1016C1210.08 83.1797 1208.47 80.4863 1205.81 80.4727C1203.15 80.4863 1201.55 83.1797 1201.55 88.1016ZM1223.1 98.2734C1218.52 98.2734 1215.82 94.582 1215.82 88.1016C1215.82 81.6621 1218.54 77.9297 1223.1 77.9297C1227.63 77.9297 1230.36 81.6621 1230.37 88.1016C1230.36 94.582 1227.68 98.2734 1223.1 98.2734ZM1218.83 88.1016C1218.82 93.0371 1220.42 95.6758 1223.1 95.6758C1225.76 95.6758 1227.36 93.0371 1227.36 88.1016C1227.36 83.1797 1225.75 80.4863 1223.1 80.4727C1220.43 80.4863 1218.83 83.1797 1218.83 88.1016ZM1245.05 77.9844V89.4141H1233.6V77.9844H1245.05ZM1236.14 87.3633H1242.51V80.0898H1236.14V87.3633ZM1236.36 99.8047V92.0391H1238.96V97.6992H1252.93V99.8047H1236.36ZM1249.29 93.7617V75.7969H1251.89V83.125H1255.44V85.3125H1251.89V93.7617H1249.29ZM1277.21 75.8516V94.418H1274.61V92.0664H1269.69V90.2344H1274.61V75.8516H1277.21ZM1256.73 87.0352C1261.25 86.9941 1267.37 86.9531 1272.59 86.2969L1272.75 88.1562C1270.66 88.5117 1268.46 88.7305 1266.3 88.8809V93.6523H1263.7V89.0176C1261.32 89.1133 1259.04 89.1133 1257.06 89.1133L1256.73 87.0352ZM1258.64 81.1016C1258.63 78.5039 1261.1 76.7812 1264.74 76.7812C1268.32 76.7812 1270.81 78.5039 1270.81 81.1016C1270.81 83.7129 1268.32 85.3672 1264.74 85.3672C1261.12 85.3672 1258.63 83.7129 1258.64 81.1016ZM1260.12 99.8047V92.6133H1262.69V97.6992H1277.81V99.8047H1260.12ZM1261.1 81.1016C1261.09 82.5508 1262.57 83.4531 1264.74 83.4531C1266.83 83.4531 1268.34 82.5508 1268.35 81.1016C1268.34 79.6387 1266.83 78.6953 1264.74 78.7227C1262.57 78.6953 1261.09 79.6387 1261.1 81.1016Z" fill="black"/>
<mask id="path-45-inside-15_421_231" fill="white">
<path d="M750 122H1010V188H750V122Z"/>
</mask>
<path d="M750 122H1010V188H750V122Z" fill="white"/>
<path d="M1010 188V189H1011V188H1010ZM1010 122H1009V188H1010H1011V122H1010ZM1010 188V187H750V188V189H1010V188Z" fill="#8438E4" mask="url(#path-45-inside-15_421_231)"/>
<path d="M825.695 142.352V157.117H823.234V150.719H820.117V156.242H817.711V142.789H820.117V148.586H823.234V142.352H825.695ZM805.953 155.066V144.266H808.551V152.906C811.012 152.879 813.363 152.715 816.125 152.168L816.371 154.301C813.186 154.93 810.52 155.066 807.566 155.066H805.953ZM809.207 162.121C809.18 159.195 812.393 157.445 817.492 157.445C822.578 157.445 825.818 159.195 825.832 162.121C825.818 165.033 822.578 166.783 817.492 166.77C812.393 166.783 809.18 165.033 809.207 162.121ZM811.777 162.121C811.75 163.775 813.938 164.732 817.492 164.719C821.047 164.732 823.221 163.775 823.234 162.121C823.221 160.453 821.047 159.482 817.492 159.469C813.938 159.482 811.75 160.453 811.777 162.121ZM852.771 154.246V156.324H830.404V154.246H840.33V151.648H833.193V143.445H850.009V145.496H835.763V149.57H850.173V151.648H842.845V154.246H852.771ZM833.056 162.367C833.056 159.523 836.242 157.924 841.56 157.91C846.838 157.924 849.996 159.523 850.009 162.367C849.996 165.211 846.838 166.811 841.56 166.824C836.242 166.811 833.056 165.211 833.056 162.367ZM835.681 162.367C835.668 163.939 837.814 164.801 841.56 164.773C845.252 164.801 847.412 163.939 847.412 162.367C847.412 160.822 845.252 159.934 841.56 159.934C837.814 159.934 835.668 160.822 835.681 162.367ZM876.894 142.352V157.117H874.433V150.719H871.316V156.242H868.909V142.789H871.316V148.586H874.433V142.352H876.894ZM857.152 155.066V144.266H859.749V152.906C862.21 152.879 864.562 152.715 867.323 152.168L867.57 154.301C864.384 154.93 861.718 155.066 858.765 155.066H857.152ZM860.405 162.121C860.378 159.195 863.591 157.445 868.691 157.445C873.777 157.445 877.017 159.195 877.03 162.121C877.017 165.033 873.777 166.783 868.691 166.77C863.591 166.783 860.378 165.033 860.405 162.121ZM862.976 162.121C862.948 163.775 865.136 164.732 868.691 164.719C872.245 164.732 874.419 163.775 874.433 162.121C874.419 160.453 872.245 159.482 868.691 159.469C865.136 159.482 862.948 160.453 862.976 162.121ZM890.161 146.836C890.147 149.953 892.321 152.797 896.04 153.973L894.809 155.996C892.02 155.107 889.983 153.262 888.903 150.938C887.837 153.617 885.69 155.736 882.751 156.762L881.411 154.684C885.239 153.426 887.55 150.268 887.563 146.863V146.18H882.177V144.074H895.438V146.18H890.161V146.836ZM884.72 162.176C884.72 159.305 887.85 157.623 892.95 157.637C897.995 157.623 901.071 159.305 901.071 162.176C901.071 165.088 897.995 166.783 892.95 166.77C887.85 166.783 884.72 165.088 884.72 162.176ZM887.317 162.176C887.304 163.816 889.409 164.732 892.95 164.719C896.464 164.732 898.542 163.816 898.528 162.176C898.542 160.576 896.464 159.674 892.95 159.688C889.409 159.674 887.304 160.576 887.317 162.176ZM898.255 157.035V142.324H900.852V148.395H904.407V150.527H900.852V157.035H898.255ZM916.116 145.852C916.102 149.242 918.399 152.346 922.186 153.59L920.873 155.641C918.03 154.656 915.911 152.66 914.803 150.104C913.709 152.838 911.549 155.012 908.651 156.051L907.338 154.027C911.153 152.674 913.45 149.352 913.463 145.852V143.5H916.116V145.852ZM910.92 160.316V158.211H927.518V166.824H924.92V160.316H910.92ZM924.92 157.035V142.324H927.518V157.035H924.92ZM955.141 154.055V156.133H945.242V158.758H952.406V166.523H935.48V158.758H942.672V156.133H932.801V154.055H955.141ZM934.852 145.195V143.09H953.035V145.195H949.48V149.871H952.926V151.977H934.961V149.871H938.434V145.195H934.852ZM938.051 164.418H949.891V160.809H938.051V164.418ZM941.004 149.871H946.883V145.195H941.004V149.871Z" fill="black"/>
<mask id="path-48-inside-16_421_231" fill="white">
<path d="M1010 122H1450V188H1010V122Z"/>
</mask>
<path d="M1010 122H1450V188H1010V122Z" fill="white"/>
<path d="M1450 188V189H1451V188H1450ZM1450 122H1449V188H1450H1451V122H1450ZM1450 188V187H1010V188V189H1450V188Z" fill="#8438E4" mask="url(#path-48-inside-16_421_231)"/>
<path d="M1197.15 164.773C1193.4 164.773 1190.58 162.49 1190.45 159.332H1193.37C1193.54 161.014 1195.15 162.244 1197.15 162.258C1199.55 162.244 1201.28 160.508 1201.28 158.156C1201.28 155.75 1199.5 154 1197.01 153.973C1195.42 153.973 1194.21 154.506 1193.54 155.723H1190.69L1191.98 144.703H1203.19V147.273H1194.47L1193.81 152.824H1194C1194.82 152.031 1196.22 151.498 1197.72 151.484C1201.45 151.498 1204.2 154.26 1204.2 158.074C1204.2 161.971 1201.28 164.773 1197.15 164.773ZM1214.29 164.773C1209.71 164.773 1207.02 161.082 1207.02 154.602C1207.02 148.162 1209.74 144.43 1214.29 144.43C1218.83 144.43 1221.55 148.162 1221.56 154.602C1221.55 161.082 1218.87 164.773 1214.29 164.773ZM1210.03 154.602C1210.01 159.537 1211.61 162.176 1214.29 162.176C1216.96 162.176 1218.56 159.537 1218.56 154.602C1218.56 149.68 1216.94 146.986 1214.29 146.973C1211.62 146.986 1210.03 149.68 1210.03 154.602ZM1236.25 144.484V155.914H1224.79V144.484H1236.25ZM1227.33 153.863H1233.71V146.59H1227.33V153.863ZM1227.55 166.305V158.539H1230.15V164.199H1244.12V166.305H1227.55ZM1240.49 160.262V142.297H1243.08V149.625H1246.64V151.812H1243.08V160.262H1240.49ZM1268.4 142.352V160.918H1265.81V158.566H1260.88V156.734H1265.81V142.352H1268.4ZM1247.92 153.535C1252.45 153.494 1258.56 153.453 1263.78 152.797L1263.95 154.656C1261.86 155.012 1259.65 155.23 1257.49 155.381V160.152H1254.9V155.518C1252.52 155.613 1250.23 155.613 1248.25 155.613L1247.92 153.535ZM1249.84 147.602C1249.82 145.004 1252.3 143.281 1255.94 143.281C1259.52 143.281 1262.01 145.004 1262.01 147.602C1262.01 150.213 1259.52 151.867 1255.94 151.867C1252.31 151.867 1249.82 150.213 1249.84 147.602ZM1251.31 166.305V159.113H1253.88V164.199H1269.01V166.305H1251.31ZM1252.3 147.602C1252.29 149.051 1253.76 149.953 1255.94 149.953C1258.03 149.953 1259.53 149.051 1259.54 147.602C1259.53 146.139 1258.03 145.195 1255.94 145.223C1253.76 145.195 1252.29 146.139 1252.3 147.602Z" fill="black"/>
<mask id="path-51-inside-17_421_231" fill="white">
<path d="M750 188H1010V255H750V188Z"/>
</mask>
<path d="M750 188H1010V255H750V188Z" fill="white"/>
<path d="M1010 255V256H1011V255H1010ZM1010 188H1009V255H1010H1011V188H1010ZM1010 255V254H750V255V256H1010V255Z" fill="#8438E4" mask="url(#path-51-inside-17_421_231)"/>
<path d="M871.135 208.824V214.648H874.69V216.809H871.135V222.66H868.537V208.824H871.135ZM852.979 221.402V210.438H863.862V212.543H855.549V219.297C860.321 219.297 863 219.105 866.077 218.504L866.377 220.582C863.069 221.279 860.17 221.402 854.92 221.402H852.979ZM855.495 232.996V223.863H871.135V232.996H855.495ZM858.037 230.918H868.565V225.941H858.037V230.918ZM889.002 211.094V216.945H893.677V211.094H896.084V227.281H886.541V211.094H889.002ZM889.002 225.176H893.677V218.996H889.002V225.176ZM898.818 232.121V209.289H901.279V218.422H904.314V208.824H906.802V233.324H904.314V220.555H901.279V232.121H898.818Z" fill="black"/>
<mask id="path-54-inside-18_421_231" fill="white">
<path d="M1010 188H1450V255H1010V188Z"/>
</mask>
<path d="M1010 188H1450V255H1010V188Z" fill="white"/>
<path d="M1450 255V256H1451V255H1450ZM1450 188H1449V255H1450H1451V188H1450ZM1450 255V254H1010V255V256H1450V255Z" fill="#8438E4" mask="url(#path-54-inside-18_421_231)"/>
<path d="M1188.56 231.273C1184.46 231.273 1181.55 229.072 1181.42 225.832H1184.49C1184.6 227.568 1186.32 228.676 1188.53 228.676C1190.93 228.676 1192.66 227.377 1192.66 225.449C1192.66 223.494 1191.04 222.1 1188.21 222.086H1186.51V219.625H1188.21C1190.46 219.639 1192.03 218.381 1192.03 216.48C1192.03 214.676 1190.68 213.445 1188.59 213.445C1186.61 213.445 1184.83 214.553 1184.76 216.344H1181.86C1181.94 213.117 1184.92 210.93 1188.62 210.93C1192.51 210.93 1194.96 213.391 1194.93 216.316C1194.96 218.572 1193.56 220.186 1191.43 220.719V220.855C1194.14 221.238 1195.71 223.057 1195.7 225.559C1195.71 228.854 1192.66 231.273 1188.56 231.273ZM1205.9 231.273C1201.32 231.273 1198.62 227.582 1198.62 221.102C1198.62 214.662 1201.34 210.93 1205.9 210.93C1210.44 210.93 1213.16 214.662 1213.17 221.102C1213.16 227.582 1210.48 231.273 1205.9 231.273ZM1201.63 221.102C1201.62 226.037 1203.22 228.676 1205.9 228.676C1208.56 228.676 1210.16 226.037 1210.16 221.102C1210.16 216.18 1208.55 213.486 1205.9 213.473C1203.23 213.486 1201.63 216.18 1201.63 221.102ZM1223.18 231.273C1218.6 231.273 1215.9 227.582 1215.9 221.102C1215.9 214.662 1218.62 210.93 1223.18 210.93C1227.72 210.93 1230.44 214.662 1230.45 221.102C1230.44 227.582 1227.76 231.273 1223.18 231.273ZM1218.91 221.102C1218.9 226.037 1220.5 228.676 1223.18 228.676C1225.84 228.676 1227.44 226.037 1227.44 221.102C1227.44 216.18 1225.83 213.486 1223.18 213.473C1220.51 213.486 1218.91 216.18 1218.91 221.102ZM1245.13 210.984V222.414H1233.68V210.984H1245.13ZM1236.22 220.363H1242.59V213.09H1236.22V220.363ZM1236.44 232.805V225.039H1239.04V230.699H1253.01V232.805H1236.44ZM1249.37 226.762V208.797H1251.97V216.125H1255.53V218.312H1251.97V226.762H1249.37ZM1277.29 208.852V227.418H1274.69V225.066H1269.77V223.234H1274.69V208.852H1277.29ZM1256.81 220.035C1261.34 219.994 1267.45 219.953 1272.67 219.297L1272.83 221.156C1270.74 221.512 1268.54 221.73 1266.38 221.881V226.652H1263.78V222.018C1261.4 222.113 1259.12 222.113 1257.14 222.113L1256.81 220.035ZM1258.72 214.102C1258.71 211.504 1261.19 209.781 1264.82 209.781C1268.4 209.781 1270.89 211.504 1270.89 214.102C1270.89 216.713 1268.4 218.367 1264.82 218.367C1261.2 218.367 1258.71 216.713 1258.72 214.102ZM1260.2 232.805V225.613H1262.77V230.699H1277.89V232.805H1260.2ZM1261.19 214.102C1261.17 215.551 1262.65 216.453 1264.82 216.453C1266.91 216.453 1268.42 215.551 1268.43 214.102C1268.42 212.639 1266.91 211.695 1264.82 211.723C1262.65 211.695 1261.17 212.639 1261.19 214.102Z" fill="black"/>
<mask id="path-57-inside-19_421_231" fill="white">
<path d="M750 255H1010V325H750V255Z"/>
</mask>
<path d="M750 255H1010V325H750V255Z" fill="#8438E4"/>
<path d="M1010 255H1009V325H1010H1011V255H1010Z" fill="#A788F7" mask="url(#path-57-inside-19_421_231)"/>
<path d="M871.001 273.461V281.02H875.044V285.66H871.001V292.621H865.341V273.461H871.001ZM844.95 280.387V276.027H851.735V273.32H857.395V276.027H864.18V280.387H844.95ZM846.356 286.715C846.339 283.252 849.731 280.932 854.548 280.914C859.311 280.932 862.669 283.252 862.669 286.715C862.669 290.178 859.311 292.498 854.548 292.48C849.731 292.498 846.339 290.178 846.356 286.715ZM849.274 305.699V293.746H854.864V295.609H865.341V293.746H871.001V305.699H849.274ZM851.876 286.715C851.858 287.945 852.93 288.438 854.548 288.402C856.2 288.438 857.307 287.945 857.325 286.715C857.307 285.555 856.2 284.992 854.548 285.027C852.93 284.992 851.858 285.555 851.876 286.715ZM854.864 301.305H865.341V299.863H854.864V301.305ZM913.749 273.461V305.98H908.476V273.461H913.749ZM884.605 295.469C890.863 291.76 893.394 287.699 894.009 281.652H886.749V277.188H899.581C899.581 278.77 899.511 280.299 899.353 281.758H901.55V274.129H906.824V304.68H901.55V294.344H897.859V289.809H901.55V286.293H898.509C897.05 291.549 893.868 295.855 887.839 299.406L884.605 295.469Z" fill="white"/>
<mask id="path-60-inside-20_421_231" fill="white">
<path d="M1010 255H1450V325H1010V255Z"/>
</mask>
<path d="M1010 255H1450V325H1010V255Z" fill="#8438E4"/>
<path d="M1450 255H1449V325H1450H1451V255H1450Z" fill="#A788F7" mask="url(#path-60-inside-20_421_231)"/>
<path d="M1162.83 277.047V302.5H1156.12V283.234H1155.98L1150.35 286.609V280.879L1156.65 277.047H1162.83ZM1173.66 299.758L1170.39 310.059H1165.93L1167.54 299.758H1173.66ZM1187.69 302.852C1180.83 302.852 1176.6 298.123 1176.58 289.773C1176.6 281.406 1180.83 276.695 1187.69 276.695C1194.54 276.695 1198.8 281.441 1198.8 289.773C1198.8 298.158 1194.54 302.852 1187.69 302.852ZM1183.51 289.773C1183.49 295.17 1185.23 297.455 1187.69 297.473C1190.15 297.455 1191.89 295.17 1191.87 289.773C1191.86 284.482 1190.15 282.092 1187.69 282.074C1185.23 282.092 1183.54 284.482 1183.51 289.773ZM1212.16 302.852C1206.38 302.852 1202.21 299.529 1202.17 294.836H1208.68C1208.73 296.611 1210.28 297.771 1212.16 297.754C1214.34 297.771 1215.87 296.26 1215.85 293.992C1215.87 291.689 1214.34 290.178 1212.16 290.195C1210.42 290.178 1209.29 290.916 1208.68 292.199H1202.74L1203.83 277.047H1220.74V282.391H1209.35L1208.82 288.121H1208.96C1209.79 286.627 1211.84 285.52 1214.37 285.52C1218.94 285.52 1222.34 288.947 1222.32 293.781C1222.34 299.09 1218.29 302.852 1212.16 302.852ZM1236.31 302.852C1229.46 302.852 1225.22 298.123 1225.2 289.773C1225.22 281.406 1229.46 276.695 1236.31 276.695C1243.17 276.695 1247.42 281.441 1247.42 289.773C1247.42 298.158 1243.17 302.852 1236.31 302.852ZM1232.13 289.773C1232.11 295.17 1233.85 297.455 1236.31 297.473C1238.77 297.455 1240.51 295.17 1240.49 289.773C1240.48 284.482 1238.77 282.092 1236.31 282.074C1233.85 282.092 1232.16 284.482 1232.13 289.773ZM1266.37 276.027V292.023H1250.41V276.027H1266.37ZM1254.17 305.523V294.766H1259.83V301.023H1276.67V305.523H1254.17ZM1256 287.629H1260.78V280.457H1256V287.629ZM1270.06 297.156V273.531H1275.72V282.531H1279.76V287.137H1275.72V297.156H1270.06ZM1308.8 273.531V298H1303.18V295.926H1297.27V292.164H1303.18V273.531H1308.8ZM1280.71 287.523C1286.64 287.453 1294.6 287.365 1301.42 286.504L1301.7 290.512C1299.36 290.916 1296.96 291.215 1294.56 291.426V297.438H1290.17V301.023H1309.51V305.523H1284.51V295.68H1288.9V291.777C1286.23 291.883 1283.67 291.918 1281.35 291.918L1280.71 287.523ZM1283 280.422C1283 276.941 1286.39 274.48 1291.22 274.48C1295.95 274.48 1299.4 276.941 1299.42 280.422C1299.4 283.92 1295.95 286.223 1291.22 286.223C1286.41 286.223 1283 283.92 1283 280.422ZM1288.34 280.422C1288.32 281.67 1289.48 282.197 1291.22 282.18C1292.86 282.197 1294.04 281.67 1294.04 280.422C1294.04 279.121 1292.86 278.576 1291.22 278.559C1289.48 278.576 1288.32 279.121 1288.34 280.422Z" fill="#FFF600"/>
</svg>
