<svg width="1120" height="641" viewBox="0 0 1120 641" fill="none" xmlns="http://www.w3.org/2000/svg">
<rect x="0.5" y="1.44629" width="1119" height="639" rx="31.5" fill="white"/>
<rect x="0.5" y="1.44629" width="1119" height="639" rx="31.5" stroke="#E8E8E8"/>
<rect x="40.5" y="41.4463" width="1039" height="51" rx="25.5" fill="#003E81" fill-opacity="0.04"/>
<rect x="40.5" y="41.4463" width="1039" height="51" rx="25.5" stroke="#E8E8E8"/>
<path d="M531.667 73.4263V75.4263H519.267V70.2663H521.787V73.4263H531.667ZM517.307 69.1863V67.1863H524.147V64.6663H526.627V67.1863H533.547V69.1863H517.307ZM518.187 63.8263C522.087 63.2663 524.127 61.1263 524.107 59.0263V58.4663H526.667V59.0263C526.667 61.2263 528.627 63.3063 532.627 63.8263L531.667 65.7463C528.667 65.2863 526.487 63.9663 525.367 62.1263C524.267 63.9663 522.107 65.3063 519.147 65.7463L518.187 63.8263ZM549.472 69.2263V75.7463H546.992V71.2263H537.272V69.2263H549.472ZM534.872 63.2663C534.872 60.7463 536.952 58.9263 539.752 58.9463C542.512 58.9263 544.592 60.7463 544.592 63.2663C544.592 65.8263 542.512 67.6263 539.752 67.6263C536.952 67.6263 534.872 65.8263 534.872 63.2663ZM537.312 63.2663C537.292 64.6863 538.312 65.5263 539.752 65.5063C541.132 65.5263 542.132 64.6863 542.112 63.2663C542.132 61.8863 541.132 61.0663 539.752 61.0663C538.312 61.0663 537.292 61.8863 537.312 63.2663ZM546.992 68.3863V57.9463H549.472V68.3863H546.992ZM568.117 67.0663V69.0263H561.437V71.9063H558.957V69.0263H551.877V67.0663H568.117ZM553.757 75.4263V70.5063H556.237V73.4263H566.317V75.4263H553.757ZM553.957 65.8263V58.5463H556.397V60.3863H563.557V58.5463H566.037V65.8263H553.957ZM556.397 63.8663H563.557V62.2263H556.397V63.8663ZM575.843 60.7463C575.823 62.9663 577.063 65.1063 579.883 65.9863L578.563 67.9863C576.643 67.3263 575.323 66.0463 574.583 64.4463C573.783 66.1863 572.403 67.5863 570.403 68.3063L569.043 66.3063C572.023 65.3463 573.303 63.0263 573.323 60.5863V58.8663H575.843V60.7463ZM571.923 71.3063V69.3463H584.163V75.7463H581.683V71.3063H571.923ZM578.323 63.3063V61.2663H581.683V57.9463H584.163V68.5463H581.683V63.3063H578.323ZM593.168 61.9863C593.188 65.3263 594.528 68.5863 597.488 69.8663L595.968 71.8663C593.988 70.9063 592.668 69.1263 591.928 66.9263C591.168 69.2663 589.788 71.1863 587.768 72.1863L586.208 70.1463C589.248 68.7663 590.628 65.3263 590.648 61.9863V59.3463H593.168V61.9863ZM595.488 65.5463V63.5463H599.008V57.9463H601.448V75.7863H599.008V65.5463H595.488Z" fill="#052236"/>
<g clip-path="url(#clip0_26041_497)">
<g clip-path="url(#clip1_26041_497)">
<mask id="path-6-inside-1_26041_497" fill="white">
<path d="M40 112.946H1080V164.946H40V112.946Z"/>
</mask>
<path d="M277.75 132.837C279.828 132.845 281.336 134.11 281.344 135.915C281.336 137.728 279.828 138.978 277.75 138.978C275.648 138.978 274.133 137.728 274.141 135.915C274.133 134.11 275.648 132.845 277.75 132.837ZM275.344 135.915C275.328 137.134 276.352 137.978 277.75 137.978C279.125 137.978 280.156 137.134 280.156 135.915C280.156 134.712 279.125 133.86 277.75 133.868C276.352 133.86 275.328 134.712 275.344 135.915ZM276.25 141.118V140.134H285.281V143.478H277.484V145.04H285.781V146.024H276.281V142.556H284.062V141.118H276.25ZM284.062 139.462V132.321H285.281V139.462H284.062ZM303.562 132.321V146.212H302.375V138.853H300.438V145.509H299.266V132.618H300.438V137.837H302.375V132.321H303.562ZM292.172 142.478V133.946H297.484V142.478H292.172ZM293.328 141.493H296.328V134.931H293.328V141.493ZM318.141 138.509V139.462H312.406V140.759H316.516V143.759H308.266V145.118H316.938V146.056H307.047V142.884H315.312V141.681H307.016V140.759H311.203V139.462H305.5V138.509H318.141ZM306.172 136.931C308.719 136.767 310.891 135.899 311.117 134.509H306.797V133.54H311.203V132.243H312.406V133.54H316.859V134.509H312.5C312.719 135.899 314.891 136.767 317.453 136.931L317.078 137.868C314.758 137.673 312.664 136.954 311.812 135.634C310.953 136.954 308.859 137.673 306.531 137.868L306.172 136.931Z" fill="#536B7C"/>
<path d="M785.219 144.946L783.984 139.993H782.297V138.571H783.633L782.406 133.634H784.328L785.43 138.571H787.188L788.375 133.634H790.234L791.422 138.571H793.195L794.297 133.634H796.203L794.977 138.571H796.312V139.993H794.625L793.391 144.946H791.391L790.172 139.993H788.438L787.219 144.946H785.219ZM785.742 139.993L786.219 142.134H786.328L786.844 139.993H785.742ZM788.781 138.571H789.828L789.344 136.603H789.266L788.781 138.571ZM791.766 139.993L792.281 142.149H792.391L792.875 139.993H791.766ZM805.578 145.103C803.367 145.087 801.164 143.774 801.172 139.603C801.172 135.735 802.93 133.478 805.703 133.478C807.883 133.478 809.383 134.845 809.641 136.681H807.625C807.422 135.813 806.734 135.235 805.703 135.243C804.062 135.235 803.148 136.688 803.141 139.071H803.25C803.828 138.095 804.914 137.517 806.156 137.524C808.188 137.517 809.758 139.056 809.75 141.196C809.758 143.446 808.078 145.118 805.578 145.103ZM803.359 141.259C803.375 142.438 804.297 143.454 805.578 143.462C806.836 143.454 807.773 142.485 807.781 141.243C807.773 140.04 806.867 139.071 805.609 139.071C804.336 139.071 803.375 140.079 803.359 141.259ZM815.641 145.103C812.914 145.103 811.289 142.993 811.297 139.29C811.289 135.603 812.93 133.478 815.641 133.478C818.352 133.478 819.984 135.603 819.984 139.29C819.984 143.001 818.359 145.103 815.641 145.103ZM813.344 139.29C813.344 142.009 814.219 143.392 815.641 143.399C817.055 143.392 817.938 142.009 817.938 139.29C817.93 136.595 817.055 135.173 815.641 135.165C814.227 135.173 813.352 136.595 813.344 139.29ZM825.859 145.103C823.133 145.103 821.508 142.993 821.516 139.29C821.508 135.603 823.148 133.478 825.859 133.478C828.57 133.478 830.203 135.603 830.203 139.29C830.203 143.001 828.578 145.103 825.859 145.103ZM823.562 139.29C823.562 142.009 824.438 143.392 825.859 143.399C827.273 143.392 828.156 142.009 828.156 139.29C828.148 136.595 827.273 135.173 825.859 135.165C824.445 135.173 823.57 136.595 823.562 139.29ZM833.734 143.837L832.422 148.212H830.938L831.75 143.837H833.734ZM839.609 145.103C836.883 145.103 835.258 142.993 835.266 139.29C835.258 135.603 836.898 133.478 839.609 133.478C842.32 133.478 843.953 135.603 843.953 139.29C843.953 143.001 842.328 145.103 839.609 145.103ZM837.312 139.29C837.312 142.009 838.188 143.392 839.609 143.399C841.023 143.392 841.906 142.009 841.906 139.29C841.898 136.595 841.023 135.173 839.609 135.165C838.195 135.173 837.32 136.595 837.312 139.29ZM849.828 145.103C847.102 145.103 845.477 142.993 845.484 139.29C845.477 135.603 847.117 133.478 849.828 133.478C852.539 133.478 854.172 135.603 854.172 139.29C854.172 143.001 852.547 145.103 849.828 145.103ZM847.531 139.29C847.531 142.009 848.406 143.392 849.828 143.399C851.242 143.392 852.125 142.009 852.125 139.29C852.117 136.595 851.242 135.173 849.828 135.165C848.414 135.173 847.539 136.595 847.531 139.29ZM860.047 145.103C857.32 145.103 855.695 142.993 855.703 139.29C855.695 135.603 857.336 133.478 860.047 133.478C862.758 133.478 864.391 135.603 864.391 139.29C864.391 143.001 862.766 145.103 860.047 145.103ZM857.75 139.29C857.75 142.009 858.625 143.392 860.047 143.399C861.461 143.392 862.344 142.009 862.344 139.29C862.336 136.595 861.461 135.173 860.047 135.165C858.633 135.173 857.758 136.595 857.75 139.29Z" fill="#536B7C"/>
</g>
<path d="M1080 164.946V163.946H40V164.946V165.946H1080V164.946Z" fill="#E8E8E8" mask="url(#path-6-inside-1_26041_497)"/>
<g clip-path="url(#clip2_26041_497)">
<mask id="path-10-inside-2_26041_497" fill="white">
<path d="M40 164.946H1080V216.946H40V164.946Z"/>
</mask>
<path d="M285.266 184.337V192.524H284.031V191.759H281.219V190.946H284.031V184.337H285.266ZM273.766 189.571C276.453 189.587 279.891 189.556 282.891 189.228L282.969 190.024C281.609 190.22 280.195 190.337 278.812 190.399V192.571H277.609V190.446C276.297 190.493 275.031 190.493 273.906 190.493L273.766 189.571ZM274.844 186.696C274.844 185.407 276.203 184.603 278.297 184.603C280.367 184.603 281.734 185.407 281.75 186.696C281.734 187.993 280.367 188.767 278.297 188.774C276.203 188.767 274.844 187.993 274.844 186.696ZM275.891 193.915V193.024H285.266V195.899H277.156V197.149H285.719V198.056H275.953V195.04H284.047V193.915H275.891ZM276 186.696C275.992 187.431 276.898 187.931 278.297 187.931C279.68 187.931 280.586 187.431 280.594 186.696C280.586 185.954 279.68 185.454 278.297 185.462C276.898 185.454 275.992 185.954 276 186.696ZM303.562 184.321V198.212H302.375V190.853H300.438V197.509H299.266V184.618H300.438V189.837H302.375V184.321H303.562ZM292.172 194.478V185.946H297.484V194.478H292.172ZM293.328 193.493H296.328V186.931H293.328V193.493ZM318.141 190.509V191.462H312.406V192.759H316.516V195.759H308.266V197.118H316.938V198.056H307.047V194.884H315.312V193.681H307.016V192.759H311.203V191.462H305.5V190.509H318.141ZM306.172 188.931C308.719 188.767 310.891 187.899 311.117 186.509H306.797V185.54H311.203V184.243H312.406V185.54H316.859V186.509H312.5C312.719 187.899 314.891 188.767 317.453 188.931L317.078 189.868C314.758 189.673 312.664 188.954 311.812 187.634C310.953 188.954 308.859 189.673 306.531 189.868L306.172 188.931Z" fill="#536B7C"/>
<path d="M774.719 196.946L773.484 191.993H771.797V190.571H773.133L771.906 185.634H773.828L774.93 190.571H776.688L777.875 185.634H779.734L780.922 190.571H782.695L783.797 185.634H785.703L784.477 190.571H785.812V191.993H784.125L782.891 196.946H780.891L779.672 191.993H777.938L776.719 196.946H774.719ZM775.242 191.993L775.719 194.134H775.828L776.344 191.993H775.242ZM778.281 190.571H779.328L778.844 188.603H778.766L778.281 190.571ZM781.266 191.993L781.781 194.149H781.891L782.375 191.993H781.266ZM795.438 185.634V196.946H793.391V187.618H793.328L790.688 189.306V187.446L793.484 185.634H795.438ZM802.297 197.103C799.773 197.103 797.992 195.759 798 193.915C797.992 192.478 799.062 191.306 800.422 191.087V191.024C799.234 190.774 798.43 189.743 798.422 188.509C798.43 186.759 800.062 185.478 802.297 185.478C804.516 185.478 806.156 186.759 806.156 188.509C806.156 189.751 805.328 190.774 804.156 191.024V191.087C805.508 191.306 806.586 192.478 806.594 193.915C806.586 195.759 804.797 197.103 802.297 197.103ZM800.094 193.728C800.086 194.774 800.953 195.493 802.297 195.493C803.625 195.493 804.492 194.774 804.5 193.728C804.492 192.665 803.57 191.876 802.297 191.884C801.023 191.876 800.086 192.657 800.094 193.728ZM800.406 188.696C800.414 189.688 801.195 190.368 802.297 190.368C803.383 190.368 804.172 189.688 804.172 188.696C804.172 187.735 803.406 187.071 802.297 187.071C801.164 187.071 800.414 187.735 800.406 188.696ZM810.219 195.837L808.906 200.212H807.422L808.234 195.837H810.219ZM816.094 197.103C813.367 197.103 811.742 194.993 811.75 191.29C811.742 187.603 813.383 185.478 816.094 185.478C818.805 185.478 820.438 187.603 820.438 191.29C820.438 195.001 818.812 197.103 816.094 197.103ZM813.797 191.29C813.797 194.009 814.672 195.392 816.094 195.399C817.508 195.392 818.391 194.009 818.391 191.29C818.383 188.595 817.508 187.173 816.094 187.165C814.68 187.173 813.805 188.595 813.797 191.29ZM826.312 197.103C823.586 197.103 821.961 194.993 821.969 191.29C821.961 187.603 823.602 185.478 826.312 185.478C829.023 185.478 830.656 187.603 830.656 191.29C830.656 195.001 829.031 197.103 826.312 197.103ZM824.016 191.29C824.016 194.009 824.891 195.392 826.312 195.399C827.727 195.392 828.609 194.009 828.609 191.29C828.602 188.595 827.727 187.173 826.312 187.165C824.898 187.173 824.023 188.595 824.016 191.29ZM836.531 197.103C833.805 197.103 832.18 194.993 832.188 191.29C832.18 187.603 833.82 185.478 836.531 185.478C839.242 185.478 840.875 187.603 840.875 191.29C840.875 195.001 839.25 197.103 836.531 197.103ZM834.234 191.29C834.234 194.009 835.109 195.392 836.531 195.399C837.945 195.392 838.828 194.009 838.828 191.29C838.82 188.595 837.945 187.173 836.531 187.165C835.117 187.173 834.242 188.595 834.234 191.29ZM844.406 195.837L843.094 200.212H841.609L842.422 195.837H844.406ZM850.281 197.103C847.555 197.103 845.93 194.993 845.938 191.29C845.93 187.603 847.57 185.478 850.281 185.478C852.992 185.478 854.625 187.603 854.625 191.29C854.625 195.001 853 197.103 850.281 197.103ZM847.984 191.29C847.984 194.009 848.859 195.392 850.281 195.399C851.695 195.392 852.578 194.009 852.578 191.29C852.57 188.595 851.695 187.173 850.281 187.165C848.867 187.173 847.992 188.595 847.984 191.29ZM860.5 197.103C857.773 197.103 856.148 194.993 856.156 191.29C856.148 187.603 857.789 185.478 860.5 185.478C863.211 185.478 864.844 187.603 864.844 191.29C864.844 195.001 863.219 197.103 860.5 197.103ZM858.203 191.29C858.203 194.009 859.078 195.392 860.5 195.399C861.914 195.392 862.797 194.009 862.797 191.29C862.789 188.595 861.914 187.173 860.5 187.165C859.086 187.173 858.211 188.595 858.203 191.29ZM870.719 197.103C867.992 197.103 866.367 194.993 866.375 191.29C866.367 187.603 868.008 185.478 870.719 185.478C873.43 185.478 875.062 187.603 875.062 191.29C875.062 195.001 873.438 197.103 870.719 197.103ZM868.422 191.29C868.422 194.009 869.297 195.392 870.719 195.399C872.133 195.392 873.016 194.009 873.016 191.29C873.008 188.595 872.133 187.173 870.719 187.165C869.305 187.173 868.43 188.595 868.422 191.29Z" fill="#536B7C"/>
</g>
<path d="M1080 216.946V215.946H40V216.946V217.946H1080V216.946Z" fill="#E8E8E8" mask="url(#path-10-inside-2_26041_497)"/>
<g clip-path="url(#clip3_26041_497)">
<mask id="path-14-inside-3_26041_497" fill="white">
<path d="M40 216.946H1080V268.946H40V216.946Z"/>
</mask>
<path d="M280.156 236.337V244.524H278.984V240.853H277.094V244.431H275.922V236.603H277.094V239.837H278.984V236.337H280.156ZM268.438 243.759C271.32 242.587 272.953 240.704 273.188 238.368H269V237.353H274.453C274.445 240.673 272.57 243.181 269.047 244.681L268.438 243.759ZM270.781 246.165V245.165H280.156V250.212H278.953V246.165H270.781ZM289.156 237.618C289.164 239.579 291.711 241.267 294.219 241.618L293.719 242.618C291.562 242.259 289.422 241.063 288.531 239.36C287.641 241.079 285.508 242.259 283.344 242.618L282.844 241.618C285.352 241.267 287.891 239.61 287.891 237.618V236.821H289.156V237.618ZM282.188 245.181V244.149H294.844V245.181H289.094V250.212H287.891V245.181H282.188ZM301 244.181C301.008 241.399 301.758 239.079 303.109 237.118H304.312C303.25 238.571 302.398 241.556 302.391 244.181C302.398 246.813 303.25 249.798 304.312 251.259H303.109C301.758 249.29 301.008 246.97 301 244.181ZM317 236.321V244.556H315.766V242.368H312.516V243.556H306.141V237.384H312.516V238.587H315.766V236.321H317ZM307.359 242.556H311.312V238.384H307.359V242.556ZM307.734 247.587C307.727 245.915 309.5 244.954 312.391 244.962C315.273 244.954 317.047 245.915 317.047 247.587C317.047 249.243 315.273 250.181 312.391 250.181C309.5 250.181 307.727 249.243 307.734 247.587ZM308.953 247.587C308.945 248.595 310.258 249.212 312.391 249.212C314.516 249.212 315.828 248.595 315.828 247.587C315.828 246.54 314.516 245.931 312.391 245.915C310.258 245.931 308.945 246.54 308.953 247.587ZM312.516 241.337H315.766V239.603H312.516V241.337ZM322.672 244.181C322.664 246.962 321.914 249.282 320.562 251.243H319.359C320.422 249.79 321.273 246.806 321.281 244.181C321.273 241.548 320.422 238.563 319.359 237.103H320.562C321.914 239.071 322.664 241.392 322.672 244.181Z" fill="#536B7C"/>
<path d="M809.453 237.478C811.664 237.493 813.867 238.813 813.875 242.946C813.875 246.845 812.109 249.103 809.328 249.103C807.148 249.103 805.641 247.743 805.391 245.868H807.406C807.609 246.767 808.305 247.337 809.328 247.337C810.969 247.337 811.891 245.892 811.906 243.462H811.781C811.211 244.446 810.117 245.032 808.875 245.024C806.852 245.032 805.289 243.493 805.281 241.353C805.281 239.142 806.945 237.462 809.453 237.478ZM807.266 241.306C807.266 242.524 808.172 243.478 809.438 243.478C810.695 243.478 811.664 242.462 811.656 241.29C811.656 240.142 810.734 239.126 809.469 239.118C808.195 239.126 807.25 240.095 807.266 241.306ZM815.359 246.837V245.212L820.25 237.634H822.781V245.165H824.266V246.837H822.781V248.946H820.844V246.837H815.359ZM817.438 245.165H820.875V239.946H820.75L817.438 245.087V245.165ZM841.047 236.212V244.524H839.312V242.571H836.469V243.665H829.828V237.274H836.469V238.368H839.312V236.212H841.047ZM831.469 247.618C831.453 245.899 833.289 244.892 836.266 244.899C839.258 244.892 841.086 245.899 841.094 247.618C841.086 249.337 839.258 250.321 836.266 250.321C833.289 250.321 831.453 249.337 831.469 247.618ZM831.562 242.274H834.75V238.649H831.562V242.274ZM833.188 247.618C833.18 248.493 834.305 248.978 836.266 248.978C838.242 248.978 839.359 248.493 839.359 247.618C839.359 246.704 838.242 246.235 836.266 246.228C834.305 246.235 833.18 246.704 833.188 247.618ZM836.469 241.165H839.312V239.743H836.469V241.165Z" fill="#536B7C"/>
</g>
<path d="M1080 268.946V267.946H40V268.946V269.946H1080V268.946Z" fill="#E8E8E8" mask="url(#path-14-inside-3_26041_497)"/>
<g clip-path="url(#clip4_26041_497)">
<mask id="path-18-inside-4_26041_497" fill="white">
<path d="M40 268.946H1080V320.946H40V268.946Z"/>
</mask>
<path d="M266.633 290.571C266.633 292.462 268.07 294.196 270.086 294.884L269.414 295.853C267.883 295.29 266.672 294.142 266.062 292.688C265.469 294.337 264.227 295.61 262.602 296.243L261.945 295.259C264.023 294.485 265.422 292.626 265.43 290.478V289.04H266.633V290.571ZM263.789 299.649C263.797 298.063 265.539 297.134 268.398 297.134C271.25 297.134 272.977 298.063 272.977 299.649C272.977 301.267 271.25 302.181 268.398 302.181C265.539 302.181 263.797 301.267 263.789 299.649ZM265.023 299.649C265.008 300.634 266.305 301.204 268.398 301.212C270.5 301.204 271.781 300.634 271.789 299.649C271.781 298.704 270.5 298.118 268.398 298.118C266.305 298.118 265.008 298.704 265.023 299.649ZM271.633 296.774V288.321H272.852V291.946H274.945V292.978H272.852V296.774H271.633ZM288.477 295.04V296.056H282.742V297.696H286.93V302.024H277.367V297.696H281.539V296.056H275.82V295.04H288.477ZM277.008 289.79V288.774H287.273V289.79H285.133V292.712H287.227V293.728H277.055V292.712H279.148V289.79H277.008ZM278.586 301.024H285.727V298.665H278.586V301.024ZM280.367 292.712H283.914V289.79H280.367V292.712ZM296.633 289.728V298.681H290.227V289.728H296.633ZM291.414 297.681H295.414V290.712H291.414V297.681ZM299.18 302.212V288.321H300.398V293.868H302.727V294.931H300.398V302.212H299.18ZM308.477 291.306C308.484 293.181 309.961 294.868 312.039 295.524L311.414 296.509C309.797 295.954 308.516 294.813 307.883 293.353C307.281 294.931 305.977 296.181 304.32 296.79L303.68 295.806C305.766 295.079 307.234 293.274 307.242 291.306V290.493H303.992V289.493H311.68V290.493H308.477V291.306ZM305.977 301.915V297.556H307.195V300.884H315.383V301.915H305.977ZM313.727 298.524V288.337H314.945V298.524H313.727ZM323.633 288.493C326.719 288.493 328.531 289.353 328.539 290.899C328.531 292.462 326.719 293.313 323.633 293.321C320.531 293.313 318.711 292.462 318.711 290.899C318.711 289.353 320.531 288.493 323.633 288.493ZM317.305 295.165V294.165H329.961V295.165H326.43V296.54H328.336V299.649H320.086V301.087H328.758V302.056H318.867V298.743H327.133V297.478H318.836V296.54H320.758V295.165H317.305ZM319.992 290.899C319.977 291.853 321.328 292.368 323.633 292.384C325.938 292.368 327.281 291.853 327.289 290.899C327.281 289.985 325.938 289.446 323.633 289.431C321.328 289.446 319.977 289.985 319.992 290.899ZM321.961 296.54H325.211V295.165H321.961V296.54Z" fill="#536B7C"/>
<path d="M812.547 301.103C810.133 301.103 808.406 299.79 808.359 297.884H810.406C810.461 298.79 811.367 299.392 812.547 299.384C813.789 299.392 814.688 298.704 814.688 297.696C814.688 296.681 813.812 295.954 812.344 295.946H811.328V294.384H812.344C813.547 294.384 814.383 293.712 814.375 292.728C814.383 291.774 813.664 291.134 812.562 291.134C811.5 291.134 810.586 291.728 810.547 292.681H808.594C808.641 290.782 810.367 289.478 812.578 289.478C814.875 289.478 816.359 290.884 816.344 292.618C816.359 293.884 815.516 294.798 814.281 295.056V295.149C815.875 295.36 816.781 296.384 816.766 297.806C816.781 299.72 814.992 301.103 812.547 301.103ZM818.547 300.946V299.478L822.547 295.618C823.688 294.478 824.281 293.806 824.281 292.853C824.281 291.798 823.445 291.134 822.344 291.134C821.18 291.134 820.43 291.86 820.438 293.009H818.5C818.492 290.868 820.102 289.478 822.359 289.478C824.672 289.478 826.227 290.86 826.234 292.759C826.227 294.032 825.617 295.063 823.391 297.165L821.375 299.165V299.243H826.406V300.946H818.547ZM834.234 298.228C834.227 296.915 835.086 295.798 836.625 295.79C838.18 295.798 839.008 296.907 839 298.228V298.821C839.008 300.134 838.156 301.259 836.625 301.259C835.062 301.259 834.227 300.134 834.234 298.821V298.228ZM828.484 292.353V291.759C828.477 290.431 829.352 289.321 830.875 289.321C832.438 289.321 833.258 290.431 833.25 291.759V292.353C833.258 293.673 832.414 294.774 830.875 294.774C829.312 294.774 828.477 293.665 828.484 292.353ZM829.109 300.946L836.891 289.634H838.266L830.484 300.946H829.109ZM829.922 292.353C829.93 292.938 830.172 293.517 830.875 293.524C831.578 293.517 831.805 292.938 831.812 292.353V291.759C831.805 291.165 831.602 290.579 830.875 290.571C830.172 290.579 829.93 291.173 829.922 291.759V292.353ZM835.672 298.821C835.672 299.399 835.906 299.993 836.625 299.993C837.328 299.993 837.555 299.415 837.562 298.821V298.228C837.555 297.642 837.344 297.048 836.625 297.056C835.922 297.048 835.672 297.642 835.672 298.228V298.821Z" fill="#536B7C"/>
</g>
<path d="M1080 320.946V319.946H40V320.946V321.946H1080V320.946Z" fill="#E8E8E8" mask="url(#path-18-inside-4_26041_497)"/>
<g clip-path="url(#clip5_26041_497)">
<mask id="path-22-inside-5_26041_497" fill="white">
<path d="M40 320.946H1080V372.946H40V320.946Z"/>
</mask>
<path d="M40 320.946H1080V372.946H40V320.946Z" fill="#5200E9" fill-opacity="0.02"/>
<path d="M279.102 340.212V354.337H277.43V347.103H275.93V353.649H274.289V340.462H275.93V345.665H277.43V340.212H279.102ZM267.352 350.696V341.743H272.898V350.696H267.352ZM268.977 349.321H271.273V343.118H268.977V349.321ZM293.586 346.321V347.603H288.023V348.634H292.008V351.946H283.977V352.915H292.398V354.212H282.273V350.759H290.305V349.884H282.258V348.634H286.305V347.603H280.773V346.321H293.586ZM281.336 344.556C284.125 344.415 285.766 343.665 286.125 342.665H282.008V341.368H286.305V340.181H288.023V341.368H292.352V342.665H288.203C288.547 343.665 290.188 344.415 293.008 344.556L292.492 345.853C289.953 345.696 288.055 345.009 287.164 343.868C286.273 345.009 284.383 345.696 281.82 345.853L281.336 344.556ZM310.117 340.212V354.353H308.367V340.212H310.117ZM298.82 346.228C298.812 343.181 300.367 341.243 302.508 341.243C304.625 341.243 306.188 343.181 306.195 346.228C306.188 349.298 304.625 351.228 302.508 351.228C300.367 351.228 298.812 349.298 298.82 346.228ZM300.492 346.228C300.492 348.399 301.312 349.657 302.508 349.665C303.695 349.657 304.508 348.399 304.508 346.228C304.508 344.071 303.695 342.806 302.508 342.806C301.312 342.806 300.492 344.071 300.492 346.228ZM323.961 349.228V354.337H322.211V350.634H314.32V349.228H323.961ZM312.445 344.415C312.445 342.431 314.07 341.009 316.258 341.024C318.438 341.009 320.062 342.431 320.055 344.415C320.062 346.431 318.438 347.829 316.258 347.837C314.07 347.829 312.445 346.431 312.445 344.415ZM314.148 344.415C314.141 345.618 315.023 346.36 316.258 346.353C317.469 346.36 318.352 345.618 318.352 344.415C318.352 343.235 317.469 342.501 316.258 342.493C315.023 342.501 314.141 343.235 314.148 344.415ZM322.211 348.54V340.212H323.961V348.54H322.211Z" fill="#052236"/>
<path d="M778.168 352.946L777 348.05H775.288V346.546H776.648L775.48 341.618H777.656L778.68 346.546H780.184L781.304 341.618H783.32L784.456 346.546H785.976L787 341.618H789.144L787.976 346.546H789.336V348.05H787.624L786.456 352.946H784.184L783.08 348.05H781.544L780.44 352.946H778.168ZM778.984 348.05L779.352 349.81H779.448L779.848 348.05H778.984ZM781.896 346.546H782.728L782.36 344.914H782.264L781.896 346.546ZM784.808 348.05L785.208 349.81H785.304L785.672 348.05H784.808ZM798.369 353.106C796.001 353.106 794.273 351.714 794.241 349.778H796.513C796.561 350.642 797.377 351.25 798.369 351.25C799.537 351.25 800.369 350.418 800.353 349.234C800.369 348.05 799.521 347.202 798.337 347.218C797.473 347.202 796.881 347.522 796.545 348.146H794.433L795.041 341.618H801.985V343.57H796.961L796.673 346.418H796.737C797.169 345.858 798.016 345.458 799.009 345.458C801.089 345.458 802.641 347.01 802.625 349.17C802.641 351.474 800.897 353.106 798.369 353.106ZM806.424 351.794L805.08 356.242H803.416L804.184 351.794H806.424ZM808.5 352.946L813.268 343.634V343.57H807.732V341.618H815.732V343.602L810.932 352.946H808.5ZM821.452 353.106C819.1 353.09 816.876 351.698 816.876 347.538C816.876 343.746 818.7 341.474 821.516 341.49C823.804 341.474 825.372 342.914 825.612 344.786H823.276C823.1 343.986 822.444 343.49 821.516 343.506C819.996 343.49 819.18 344.882 819.18 347.09H819.276C819.804 346.098 820.924 345.506 822.188 345.49C824.204 345.506 825.724 347.042 825.708 349.17C825.724 351.458 823.996 353.106 821.452 353.106ZM819.404 349.234C819.42 350.338 820.268 351.25 821.42 351.25C822.588 351.25 823.436 350.37 823.436 349.234C823.436 348.098 822.604 347.218 821.452 347.218C820.3 347.218 819.42 348.13 819.404 349.234ZM831.718 353.106C828.886 353.106 827.174 350.994 827.174 347.282C827.174 343.586 828.902 341.474 831.718 341.49C834.534 341.474 836.262 343.602 836.262 347.282C836.262 351.01 834.55 353.106 831.718 353.106ZM829.574 347.282C829.558 349.906 830.406 351.154 831.718 351.154C833.03 351.154 833.878 349.906 833.862 347.282C833.862 344.706 833.03 343.41 831.718 343.41C830.422 343.41 829.574 344.706 829.574 347.282ZM839.955 351.794L838.611 356.242H836.947L837.715 351.794H839.955ZM845.952 353.106C843.12 353.106 841.408 350.994 841.408 347.282C841.408 343.586 843.136 341.474 845.952 341.49C848.768 341.474 850.496 343.602 850.496 347.282C850.496 351.01 848.784 353.106 845.952 353.106ZM843.808 347.282C843.792 349.906 844.64 351.154 845.952 351.154C847.264 351.154 848.112 349.906 848.096 347.282C848.096 344.706 847.264 343.41 845.952 343.41C844.656 343.41 843.808 344.706 843.808 347.282ZM856.514 353.106C853.682 353.106 851.97 350.994 851.97 347.282C851.97 343.586 853.698 341.474 856.514 341.49C859.33 341.474 861.058 343.602 861.058 347.282C861.058 351.01 859.346 353.106 856.514 353.106ZM854.37 347.282C854.354 349.906 855.202 351.154 856.514 351.154C857.826 351.154 858.674 349.906 858.658 347.282C858.658 344.706 857.826 343.41 856.514 343.41C855.218 343.41 854.37 344.706 854.37 347.282ZM867.077 353.106C864.245 353.106 862.533 350.994 862.533 347.282C862.533 343.586 864.261 341.474 867.077 341.49C869.893 341.474 871.621 343.602 871.621 347.282C871.621 351.01 869.909 353.106 867.077 353.106ZM864.933 347.282C864.917 349.906 865.765 351.154 867.077 351.154C868.389 351.154 869.237 349.906 869.221 347.282C869.221 344.706 868.389 343.41 867.077 343.41C865.781 343.41 864.933 344.706 864.933 347.282Z" fill="#052236"/>
</g>
<path d="M1080 372.946V371.946H40V372.946V373.946H1080V372.946Z" fill="#003E81" fill-opacity="0.08" mask="url(#path-22-inside-5_26041_497)"/>
<g clip-path="url(#clip6_26041_497)">
<mask id="path-26-inside-6_26041_497" fill="white">
<path d="M40 372.946H1080V424.946H40V372.946Z"/>
</mask>
<path d="M287.289 392.337V400.274H286.07V392.337H287.289ZM276.148 396.321C276.141 394.384 277.68 393.071 279.789 393.071C281.898 393.071 283.422 394.384 283.43 396.321C283.422 398.228 281.898 399.556 279.789 399.556C277.68 399.556 276.141 398.228 276.148 396.321ZM277.352 396.321C277.336 397.61 278.359 398.517 279.789 398.509C281.203 398.517 282.227 397.61 282.227 396.321C282.227 395.024 281.203 394.11 279.789 394.118C278.359 394.11 277.336 395.024 277.352 396.321ZM278.258 406.024V401.024H287.289V406.024H278.258ZM279.461 405.024H286.086V402.024H279.461V405.024ZM301.523 392.321V406.212H300.352V398.931H298.305V405.493H297.18V392.634H298.305V397.915H300.352V392.321H301.523ZM290.164 402.774V394.024H295.367V395.04H291.383V401.728C293.297 401.72 294.617 401.649 296.164 401.337L296.273 402.368C294.602 402.712 293.188 402.767 291.055 402.774H290.164ZM316.195 403.462V404.493H303.477V403.462H307.055V400.821H305.07V396.54H313.383V394.368H305.039V393.353H314.586V397.556H306.289V399.806H314.914V400.821H312.742V403.462H316.195ZM308.258 403.462H311.539V400.821H308.258V403.462Z" fill="#536B7C"/>
<path d="M826.094 399.415V401.056H821V399.415H826.094Z" fill="#536B7C"/>
</g>
<path d="M1080 424.946V423.946H40V424.946V425.946H1080V424.946Z" fill="#E8E8E8" mask="url(#path-26-inside-6_26041_497)"/>
<g clip-path="url(#clip7_26041_497)">
<mask id="path-30-inside-7_26041_497" fill="white">
<path d="M40 424.946H1080V476.946H40V424.946Z"/>
</mask>
<path d="M274.602 445.399V446.134C274.594 447.048 274.594 448.431 274.242 450.243L273.008 450.149C273.344 448.493 273.375 447.313 273.391 446.431H267.68V445.399H274.602ZM266.82 451.54C267.719 451.54 268.734 451.532 269.805 451.501V448.478H271.023V451.462C272.562 451.399 274.156 451.29 275.602 451.087L275.68 451.993C272.766 452.493 269.422 452.548 266.945 452.556L266.82 451.54ZM268.961 457.915V453.837H270.195V456.884H278.242V457.915H268.961ZM276.539 454.774V444.321H277.789V448.853H279.82V449.899H277.789V454.774H276.539ZM292.195 444.321V458.243H290.977V444.321H292.195ZM281.508 446.634V445.618H287.977V450.556H282.789V453.837C285.094 453.845 287.148 453.735 289.633 453.337L289.758 454.368C287.203 454.767 285.094 454.868 282.695 454.868H281.539V449.556H286.742V446.634H281.508ZM310.023 444.321V458.243H308.789V444.321H310.023ZM299.383 454.884V445.509H300.602V449.181H304.742V445.509H305.945V454.884H299.383ZM300.602 453.853H304.742V450.165H300.602V453.853ZM325.055 451.196V452.212H312.398V451.196H315.539V449.235C314.43 448.806 313.805 448.103 313.805 447.165C313.805 445.532 315.68 444.595 318.727 444.587C321.75 444.595 323.625 445.532 323.633 447.165C323.625 448.095 323.008 448.798 321.914 449.235V451.196H325.055ZM313.93 455.728C313.922 454.142 315.711 453.267 318.727 453.274C321.703 453.267 323.492 454.142 323.508 455.728C323.492 457.313 321.703 458.181 318.727 458.181C315.711 458.181 313.922 457.313 313.93 455.728ZM315.07 447.165C315.062 448.181 316.453 448.767 318.727 448.774C320.977 448.767 322.375 448.181 322.383 447.165C322.375 446.165 320.977 445.556 318.727 445.556C316.453 445.556 315.062 446.165 315.07 447.165ZM315.18 455.728C315.164 456.673 316.5 457.235 318.727 457.228C320.93 457.235 322.266 456.673 322.273 455.728C322.266 454.782 320.93 454.228 318.727 454.212C316.5 454.228 315.164 454.782 315.18 455.728ZM316.758 451.196H320.695V449.563C320.109 449.673 319.453 449.728 318.727 449.728C318 449.728 317.344 449.673 316.758 449.571V451.196Z" fill="#536B7C"/>
<path d="M778.719 456.946L777.484 451.993H775.797V450.571H777.133L775.906 445.634H777.828L778.93 450.571H780.688L781.875 445.634H783.734L784.922 450.571H786.695L787.797 445.634H789.703L788.477 450.571H789.812V451.993H788.125L786.891 456.946H784.891L783.672 451.993H781.938L780.719 456.946H778.719ZM779.242 451.993L779.719 454.134H779.828L780.344 451.993H779.242ZM782.281 450.571H783.328L782.844 448.603H782.766L782.281 450.571ZM785.266 451.993L785.781 454.149H785.891L786.375 451.993H785.266ZM794.844 456.946V455.478L798.844 451.618C799.984 450.478 800.578 449.806 800.578 448.853C800.578 447.798 799.742 447.134 798.641 447.134C797.477 447.134 796.727 447.86 796.734 449.009H794.797C794.789 446.868 796.398 445.478 798.656 445.478C800.969 445.478 802.523 446.86 802.531 448.759C802.523 450.032 801.914 451.063 799.688 453.165L797.672 455.165V455.243H802.703V456.946H794.844ZM806.766 455.837L805.453 460.212H803.969L804.781 455.837H806.766ZM812.656 457.103C810.242 457.103 808.516 455.79 808.469 453.884H810.516C810.57 454.79 811.477 455.392 812.656 455.384C813.898 455.392 814.797 454.704 814.797 453.696C814.797 452.681 813.922 451.954 812.453 451.946H811.438V450.384H812.453C813.656 450.384 814.492 449.712 814.484 448.728C814.492 447.774 813.773 447.134 812.672 447.134C811.609 447.134 810.695 447.728 810.656 448.681H808.703C808.75 446.782 810.477 445.478 812.688 445.478C814.984 445.478 816.469 446.884 816.453 448.618C816.469 449.884 815.625 450.798 814.391 451.056V451.149C815.984 451.36 816.891 452.384 816.875 453.806C816.891 455.72 815.102 457.103 812.656 457.103ZM822.672 457.103C820.414 457.103 818.75 455.751 818.688 453.884H820.672C820.734 454.798 821.602 455.454 822.672 455.462C823.938 455.454 824.852 454.54 824.844 453.29C824.852 451.993 823.914 451.079 822.609 451.071C821.727 451.063 821.086 451.376 820.734 452.04H818.844L819.531 445.634H826.219V447.337H821.203L820.859 450.337H820.969C821.406 449.845 822.227 449.485 823.156 449.478C825.258 449.485 826.82 451.048 826.812 453.228C826.82 455.485 825.117 457.103 822.672 457.103ZM832.703 457.103C829.977 457.103 828.352 454.993 828.359 451.29C828.352 447.603 829.992 445.478 832.703 445.478C835.414 445.478 837.047 447.603 837.047 451.29C837.047 455.001 835.422 457.103 832.703 457.103ZM830.406 451.29C830.406 454.009 831.281 455.392 832.703 455.399C834.117 455.392 835 454.009 835 451.29C834.992 448.595 834.117 447.173 832.703 447.165C831.289 447.173 830.414 448.595 830.406 451.29ZM840.578 455.837L839.266 460.212H837.781L838.594 455.837H840.578ZM846.453 457.103C843.727 457.103 842.102 454.993 842.109 451.29C842.102 447.603 843.742 445.478 846.453 445.478C849.164 445.478 850.797 447.603 850.797 451.29C850.797 455.001 849.172 457.103 846.453 457.103ZM844.156 451.29C844.156 454.009 845.031 455.392 846.453 455.399C847.867 455.392 848.75 454.009 848.75 451.29C848.742 448.595 847.867 447.173 846.453 447.165C845.039 447.173 844.164 448.595 844.156 451.29ZM856.672 457.103C853.945 457.103 852.32 454.993 852.328 451.29C852.32 447.603 853.961 445.478 856.672 445.478C859.383 445.478 861.016 447.603 861.016 451.29C861.016 455.001 859.391 457.103 856.672 457.103ZM854.375 451.29C854.375 454.009 855.25 455.392 856.672 455.399C858.086 455.392 858.969 454.009 858.969 451.29C858.961 448.595 858.086 447.173 856.672 447.165C855.258 447.173 854.383 448.595 854.375 451.29ZM866.891 457.103C864.164 457.103 862.539 454.993 862.547 451.29C862.539 447.603 864.18 445.478 866.891 445.478C869.602 445.478 871.234 447.603 871.234 451.29C871.234 455.001 869.609 457.103 866.891 457.103ZM864.594 451.29C864.594 454.009 865.469 455.392 866.891 455.399C868.305 455.392 869.188 454.009 869.188 451.29C869.18 448.595 868.305 447.173 866.891 447.165C865.477 447.173 864.602 448.595 864.594 451.29Z" fill="#536B7C"/>
</g>
<path d="M1080 476.946V475.946H40V476.946V477.946H1080V476.946Z" fill="#E8E8E8" mask="url(#path-30-inside-7_26041_497)"/>
<g clip-path="url(#clip8_26041_497)">
<mask id="path-34-inside-8_26041_497" fill="white">
<path d="M40 476.946H1080V528.946H40V476.946Z"/>
</mask>
<path d="M40 476.946H1080V528.946H40V476.946Z" fill="#5200E9" fill-opacity="0.02"/>
<path d="M274.141 500.228C274.141 502.54 275.5 504.978 277.781 505.931L276.828 507.306C275.156 506.579 273.938 505.103 273.289 503.306C272.641 505.243 271.398 506.868 269.75 507.649L268.75 506.29C270.977 505.259 272.367 502.626 272.375 500.228V499.04H269.266V497.603H277.234V499.04H274.141V500.228ZM278.812 510.337V496.212H280.562V510.337H278.812ZM295.484 502.321V503.603H289.922V504.634H293.906V507.946H285.875V508.915H294.297V510.212H284.172V506.759H292.203V505.884H284.156V504.634H288.203V503.603H282.672V502.321H295.484ZM283.234 500.556C286.023 500.415 287.664 499.665 288.023 498.665H283.906V497.368H288.203V496.181H289.922V497.368H294.25V498.665H290.102C290.445 499.665 292.086 500.415 294.906 500.556L294.391 501.853C291.852 501.696 289.953 501.009 289.062 499.868C288.172 501.009 286.281 501.696 283.719 501.853L283.234 500.556ZM307.609 496.212V499.696H309.578V501.134H307.609V504.462H305.875V496.212H307.609ZM296.484 498.915V497.524H299.812V496.103H301.547V497.524H304.859V498.915H296.484ZM297.203 501.884C297.203 500.384 298.609 499.399 300.672 499.399C302.711 499.399 304.117 500.384 304.125 501.884C304.117 503.384 302.711 504.376 300.672 504.368C298.609 504.376 297.203 503.384 297.203 501.884ZM298.484 510.165V505.024H300.203V506.243H305.875V505.024H307.609V510.165H298.484ZM298.891 501.884C298.883 502.649 299.602 503.087 300.672 503.087C301.742 503.087 302.469 502.649 302.469 501.884C302.469 501.142 301.742 500.681 300.672 500.681C299.602 500.681 298.883 501.142 298.891 501.884ZM300.203 508.79H305.875V507.587H300.203V508.79ZM322.484 496.212V510.337H320.828V496.212H322.484ZM310.156 506.118C313.078 504.392 314.422 502.181 314.688 499.337H310.906V497.931H316.406C316.406 498.642 316.359 499.337 316.258 500.009H317.906V496.556H319.562V509.665H317.906V504.946H315.703V503.524H317.906V501.431H315.961C315.289 503.774 313.82 505.79 311.172 507.353L310.156 506.118Z" fill="#052236"/>
<path d="M777.668 508.946L776.5 504.05H774.788V502.546H776.148L774.98 497.618H777.156L778.18 502.546H779.684L780.804 497.618H782.82L783.956 502.546H785.476L786.5 497.618H788.644L787.476 502.546H788.836V504.05H787.124L785.956 508.946H783.684L782.58 504.05H781.044L779.94 508.946H777.668ZM778.484 504.05L778.852 505.81H778.948L779.348 504.05H778.484ZM781.396 502.546H782.228L781.86 500.914H781.764L781.396 502.546ZM784.308 504.05L784.708 505.81H784.804L785.172 504.05H784.308ZM793.709 508.946V507.25L797.741 503.506C798.813 502.498 799.373 501.874 799.373 500.978C799.373 499.97 798.621 499.346 797.581 499.346C796.525 499.346 795.821 500.018 795.821 501.106H793.581C793.581 498.898 795.229 497.474 797.613 497.49C800.029 497.474 801.645 498.85 801.645 500.818C801.645 502.114 801.021 503.17 798.669 505.266L796.973 506.93V507.026H801.805V508.946H793.709ZM806.002 507.794L804.658 512.242H802.994L803.762 507.794H806.002ZM811.916 509.106C809.42 509.106 807.644 507.73 807.596 505.778H809.964C810.012 506.594 810.828 507.154 811.916 507.154C813.052 507.154 813.852 506.53 813.836 505.618C813.852 504.706 813.036 504.05 811.692 504.05H810.668V502.322H811.692C812.828 502.306 813.596 501.698 813.58 500.786C813.596 499.938 812.94 499.346 811.948 499.346C810.94 499.346 810.108 499.906 810.092 500.786H807.82C807.868 498.834 809.628 497.474 811.948 497.49C814.3 497.474 815.868 498.882 815.852 500.658C815.868 501.938 814.988 502.834 813.708 503.058V503.154C815.388 503.346 816.3 504.354 816.3 505.778C816.3 507.714 814.46 509.106 811.916 509.106ZM822.087 509.106C819.719 509.106 817.991 507.714 817.959 505.778H820.231C820.279 506.642 821.095 507.25 822.087 507.25C823.255 507.25 824.087 506.418 824.071 505.234C824.087 504.05 823.239 503.202 822.055 503.218C821.191 503.202 820.599 503.522 820.263 504.146H818.151L818.759 497.618H825.703V499.57H820.679L820.391 502.418H820.455C820.887 501.858 821.735 501.458 822.727 501.458C824.807 501.458 826.359 503.01 826.343 505.17C826.359 507.474 824.615 509.106 822.087 509.106ZM832.358 509.106C829.526 509.106 827.814 506.994 827.814 503.282C827.814 499.586 829.542 497.474 832.358 497.49C835.174 497.474 836.902 499.602 836.902 503.282C836.902 507.01 835.19 509.106 832.358 509.106ZM830.214 503.282C830.198 505.906 831.046 507.154 832.358 507.154C833.67 507.154 834.518 505.906 834.502 503.282C834.502 500.706 833.67 499.41 832.358 499.41C831.062 499.41 830.214 500.706 830.214 503.282ZM840.596 507.794L839.252 512.242H837.588L838.356 507.794H840.596ZM846.593 509.106C843.761 509.106 842.049 506.994 842.049 503.282C842.049 499.586 843.777 497.474 846.593 497.49C849.409 497.474 851.137 499.602 851.137 503.282C851.137 507.01 849.425 509.106 846.593 509.106ZM844.449 503.282C844.433 505.906 845.281 507.154 846.593 507.154C847.905 507.154 848.753 505.906 848.737 503.282C848.737 500.706 847.905 499.41 846.593 499.41C845.297 499.41 844.449 500.706 844.449 503.282ZM857.155 509.106C854.323 509.106 852.611 506.994 852.611 503.282C852.611 499.586 854.339 497.474 857.155 497.49C859.971 497.474 861.699 499.602 861.699 503.282C861.699 507.01 859.987 509.106 857.155 509.106ZM855.011 503.282C854.995 505.906 855.843 507.154 857.155 507.154C858.467 507.154 859.315 505.906 859.299 503.282C859.299 500.706 858.467 499.41 857.155 499.41C855.859 499.41 855.011 500.706 855.011 503.282ZM867.718 509.106C864.886 509.106 863.174 506.994 863.174 503.282C863.174 499.586 864.902 497.474 867.718 497.49C870.534 497.474 872.262 499.602 872.262 503.282C872.262 507.01 870.55 509.106 867.718 509.106ZM865.574 503.282C865.558 505.906 866.406 507.154 867.718 507.154C869.03 507.154 869.878 505.906 869.862 503.282C869.862 500.706 869.03 499.41 867.718 499.41C866.422 499.41 865.574 500.706 865.574 503.282Z" fill="#052236"/>
</g>
<path d="M1080 528.946V527.946H40V528.946V529.946H1080V528.946Z" fill="#E8E8E8" mask="url(#path-34-inside-8_26041_497)"/>
</g>
<rect x="40.5" y="113.446" width="1039" height="415" rx="23.5" stroke="#E8E8E8"/>
<g clip-path="url(#clip9_26041_497)">
<rect x="40" y="548.946" width="1040" height="52" rx="26" fill="#5200E9"/>
<path d="M283.194 569.01C283.194 570.578 284.874 572.338 287.994 572.754L287.226 574.354C284.826 573.986 283.082 572.882 282.17 571.41C281.258 572.898 279.482 574.018 277.082 574.386L276.346 572.818C279.466 572.37 281.13 570.626 281.146 569.01V568.53H283.194V569.01ZM275.674 576.754V575.154H288.666V576.754H283.322V579.186H281.338V576.754H275.674ZM277.178 582.13V577.97H279.194V580.53H287.226V582.13H277.178ZM297.054 569.266C297.054 570.946 298.766 572.802 302.014 573.202L301.246 574.834C298.75 574.466 296.926 573.314 296.014 571.762C295.086 573.314 293.262 574.466 290.782 574.834L290.014 573.202C293.246 572.802 294.958 570.946 294.942 569.266V568.594H297.054V569.266ZM289.502 577.522V575.89H302.494V577.522H296.958V582.386H294.974V577.522H289.502ZM315.234 577.17V582.386H313.25V578.77H305.474V577.17H315.234ZM303.554 572.402C303.554 570.386 305.218 568.93 307.458 568.946C309.666 568.93 311.33 570.386 311.33 572.402C311.33 574.45 309.666 575.89 307.458 575.89C305.218 575.89 303.554 574.45 303.554 572.402ZM305.506 572.402C305.49 573.538 306.306 574.21 307.458 574.194C308.562 574.21 309.362 573.538 309.346 572.402C309.362 571.298 308.562 570.642 307.458 570.642C306.306 570.642 305.49 571.298 305.506 572.402ZM313.25 576.498V568.146H315.234V576.498H313.25Z" fill="white"/>
<path d="M767.46 581.946L766 575.826H763.86V573.946H765.56L764.1 567.786H766.82L768.1 573.946H769.98L771.38 567.786H773.9L775.32 573.946H777.22L778.5 567.786H781.18L779.72 573.946H781.42V575.826H779.28L777.82 581.946H774.98L773.6 575.826H771.68L770.3 581.946H767.46ZM768.48 575.826L768.94 578.026H769.06L769.56 575.826H768.48ZM772.12 573.946H773.16L772.7 571.906H772.58L772.12 573.946ZM775.76 575.826L776.26 578.026H776.38L776.84 575.826H775.76ZM792.751 582.146C789.631 582.146 787.411 580.426 787.351 577.986H790.311C790.371 579.006 791.391 579.706 792.751 579.706C794.171 579.706 795.171 578.926 795.151 577.786C795.171 576.646 794.151 575.826 792.471 575.826H791.191V573.666H792.471C793.891 573.646 794.851 572.886 794.831 571.746C794.851 570.686 794.031 569.946 792.791 569.946C791.531 569.946 790.491 570.646 790.471 571.746H787.631C787.691 569.306 789.891 567.606 792.791 567.626C795.731 567.606 797.691 569.366 797.671 571.586C797.691 573.186 796.591 574.306 794.991 574.586V574.706C797.091 574.946 798.231 576.206 798.231 577.986C798.231 580.406 795.931 582.146 792.751 582.146ZM803.034 580.506L801.354 586.066H799.274L800.234 580.506H803.034ZM805.396 579.426V577.106L811.396 567.786H815.076V577.066H816.836V579.426H815.076V581.946H812.276V579.426H805.396ZM808.356 577.066H812.316V571.026H812.156L808.356 576.986V577.066ZM824.645 567.786V581.946H821.725V570.586H821.605L818.365 572.626V570.026L821.885 567.786H824.645ZM833.401 582.146C829.861 582.146 827.721 579.506 827.721 574.866C827.721 570.246 829.881 567.606 833.401 567.626C836.921 567.606 839.081 570.266 839.081 574.866C839.081 579.526 836.941 582.146 833.401 582.146ZM830.721 574.866C830.701 578.146 831.761 579.706 833.401 579.706C835.041 579.706 836.101 578.146 836.081 574.866C836.081 571.646 835.041 570.026 833.401 570.026C831.781 570.026 830.721 571.646 830.721 574.866ZM843.698 580.506L842.018 586.066H839.938L840.898 580.506H843.698ZM851.194 582.146C847.654 582.146 845.514 579.506 845.514 574.866C845.514 570.246 847.674 567.606 851.194 567.626C854.714 567.606 856.874 570.266 856.874 574.866C856.874 579.526 854.734 582.146 851.194 582.146ZM848.514 574.866C848.494 578.146 849.554 579.706 851.194 579.706C852.834 579.706 853.894 578.146 853.874 574.866C853.874 571.646 852.834 570.026 851.194 570.026C849.574 570.026 848.514 571.646 848.514 574.866ZM864.397 582.146C860.857 582.146 858.717 579.506 858.717 574.866C858.717 570.246 860.877 567.606 864.397 567.626C867.917 567.606 870.077 570.266 870.077 574.866C870.077 579.526 867.937 582.146 864.397 582.146ZM861.717 574.866C861.697 578.146 862.757 579.706 864.397 579.706C866.037 579.706 867.097 578.146 867.077 574.866C867.077 571.646 866.037 570.026 864.397 570.026C862.777 570.026 861.717 571.646 861.717 574.866ZM877.6 582.146C874.06 582.146 871.92 579.506 871.92 574.866C871.92 570.246 874.08 567.606 877.6 567.626C881.12 567.606 883.28 570.266 883.28 574.866C883.28 579.526 881.14 582.146 877.6 582.146ZM874.92 574.866C874.9 578.146 875.96 579.706 877.6 579.706C879.24 579.706 880.3 578.146 880.28 574.866C880.28 571.646 879.24 570.026 877.6 570.026C875.98 570.026 874.92 571.646 874.92 574.866Z" fill="white"/>
</g>
<rect x="40.5" y="549.446" width="1039" height="51" rx="25.5" stroke="#E8E8E8"/>
<defs>
<clipPath id="clip0_26041_497">
<rect x="40" y="112.946" width="1040" height="416" rx="24" fill="white"/>
</clipPath>
<clipPath id="clip1_26041_497">
<path d="M40 112.946H1080V164.946H40V112.946Z" fill="white"/>
</clipPath>
<clipPath id="clip2_26041_497">
<path d="M40 164.946H1080V216.946H40V164.946Z" fill="white"/>
</clipPath>
<clipPath id="clip3_26041_497">
<path d="M40 216.946H1080V268.946H40V216.946Z" fill="white"/>
</clipPath>
<clipPath id="clip4_26041_497">
<path d="M40 268.946H1080V320.946H40V268.946Z" fill="white"/>
</clipPath>
<clipPath id="clip5_26041_497">
<path d="M40 320.946H1080V372.946H40V320.946Z" fill="white"/>
</clipPath>
<clipPath id="clip6_26041_497">
<path d="M40 372.946H1080V424.946H40V372.946Z" fill="white"/>
</clipPath>
<clipPath id="clip7_26041_497">
<path d="M40 424.946H1080V476.946H40V424.946Z" fill="white"/>
</clipPath>
<clipPath id="clip8_26041_497">
<path d="M40 476.946H1080V528.946H40V476.946Z" fill="white"/>
</clipPath>
<clipPath id="clip9_26041_497">
<rect x="40" y="548.946" width="1040" height="52" rx="26" fill="white"/>
</clipPath>
</defs>
</svg>
