<svg width="186" height="45" viewBox="0 0 186 45" fill="none" xmlns="http://www.w3.org/2000/svg">
<path d="M63.0408 9.73578V10.5527H64.6747C64.947 10.1443 65.0832 9.66771 65.1512 9.19115C65.2193 8.78268 65.2193 8.44229 65.2193 8.23805V4.62988H60.9304V8.44229H61.8154C62.4281 8.44229 63.0408 8.85076 63.0408 9.73578Z" fill="white"/>
<path d="M86.3238 16.4073C86.1196 16.4073 85.9153 16.2031 85.9153 15.9989V10.6887C85.9153 9.12293 85.8472 7.42096 84.6218 6.19555C83.7368 5.31052 81.4902 4.35742 79.3117 4.35742C77.2693 4.35742 75.8397 5.10629 75.0227 5.44668V4.35742H68.5553V15.9989C68.5553 16.2031 68.351 16.4073 68.1468 16.4073H67.1937V20.2198H76.6566V16.4073H75.5674C75.3631 16.4073 75.1589 16.2031 75.1589 15.9989V11.9822C75.1589 10.6207 76.2481 9.80372 77.4055 9.80372C78.699 9.80372 79.6521 10.6887 79.6521 11.8461V20.2198H87.413V16.3393H86.3238V16.4073Z" fill="white"/>
<path d="M16.2027 12.5264C7.28442 12.5264 0 19.8108 0 28.7972C0 37.7836 7.28442 44.9999 16.2027 44.9999C25.1891 44.9999 32.4054 37.7155 32.4054 28.7972C32.4735 19.8108 25.1891 12.5264 16.2027 12.5264ZM16.2027 36.2858C12.1861 36.2858 8.98639 32.95 8.98639 28.7972C8.98639 24.6444 12.2542 21.3085 16.2027 21.3085C20.2194 21.3085 23.4191 24.6444 23.4191 28.7972C23.4191 32.95 20.2194 36.2858 16.2027 36.2858Z" fill="white"/>
<path d="M65.2192 37.7159C64.6746 37.7159 64.1981 37.2394 64.1981 36.6948V26.0745C64.1981 20.492 63.9257 19.5389 61.1345 16.7477C60.1814 15.7946 59.0241 15.1138 57.7987 14.6373C56.0286 13.8884 52.7608 13.4799 50.0377 14.0245C48.1996 14.3649 46.3614 15.0457 44.6595 16.0669V13.9565H36.0816V36.7628C36.0816 37.3075 35.605 37.784 35.0604 37.784H32.4734V43.843H49.1527V37.784H46.2934C45.7487 37.784 45.2722 37.3075 45.2722 36.7628V27.1637C45.2722 23.896 47.5188 21.8536 50.2419 21.8536C53.4416 21.8536 55.2117 24.1002 55.2117 26.8233V43.843H67.9424V37.7159H65.2192Z" fill="white"/>
<path d="M175.371 0C169.788 0 165.227 4.56127 165.227 10.1437C165.227 15.7262 169.788 20.2874 175.371 20.2874C180.953 20.2874 185.514 15.7262 185.514 10.1437C185.514 4.56127 180.953 0 175.371 0ZM175.03 12.6626V14.0923H171.558H169.448V12.3903C171.422 11.0968 173.056 9.93949 173.056 8.78215C173.056 8.10136 172.511 7.89713 172.103 7.89713C171.422 7.89713 171.082 8.37368 170.809 8.71407L169.448 7.69289C170.129 6.67171 171.218 6.19516 172.171 6.19516C173.873 6.19516 174.826 7.14826 174.894 8.50984C174.962 10.4841 172.852 12.118 172.171 12.5946H175.03V12.6626ZM181.702 12.5265H180.817V14.0923H179.115V12.5265H175.643V10.8926L177.958 6.33132H179.796L177.549 10.8926H179.115V9.12254H180.817V10.8926H181.702V12.5265Z" fill="white"/>
<path d="M112.058 12.5264C103.071 12.5264 95.8548 19.8108 95.8548 28.7291C95.8548 37.7155 103.139 44.9318 112.058 44.9318C121.044 44.9318 128.26 37.6474 128.26 28.7291C128.26 19.8108 121.044 12.5264 112.058 12.5264ZM112.058 36.2858C108.041 36.2858 104.841 32.95 104.841 28.7972C104.841 24.6444 108.109 21.3085 112.058 21.3085C116.074 21.3085 119.274 24.6444 119.274 28.7972C119.274 32.95 116.074 36.2858 112.058 36.2858Z" fill="white"/>
<path d="M163.593 23.0108V15.5902H158.691V13.5479C158.691 11.6416 159.44 10.1439 162.504 10.1439V2.17871H161.142C154.743 2.17871 149.637 5.31033 149.637 12.5947V15.5902H140.242V13.5479C140.242 11.6416 140.991 10.1439 144.055 10.1439V2.17871H142.693C136.294 2.17871 131.188 5.31033 131.188 12.5947V15.5902H128.192V23.0108H131.188V36.8308C131.188 37.3754 130.711 37.8519 130.166 37.8519H128.192V43.8429H143.782V37.8519H141.263C140.719 37.8519 140.242 37.3754 140.242 36.8308V23.0108H149.637V36.8308C149.637 37.3754 149.16 37.8519 148.616 37.8519H146.369V43.8429H162.232V37.8519H159.713C159.168 37.8519 158.76 37.4435 158.691 36.8988V23.0108H163.593Z" fill="white"/>
</svg>
