<svg width="360" height="203" viewBox="0 0 360 203" fill="none" xmlns="http://www.w3.org/2000/svg">
<path d="M218.038 153.346C213.931 153.346 210.571 153.206 207.958 152.926C205.345 152.646 202.498 152.086 199.418 151.246C196.245 150.313 193.678 149.006 191.718 147.326C189.758 145.553 188.125 143.033 186.818 139.766C185.418 136.593 184.718 132.766 184.718 128.286V84.7463C184.718 80.453 185.371 76.673 186.678 73.4063C187.985 70.1396 189.665 67.573 191.718 65.7063C193.491 64.1196 195.918 62.8596 198.998 61.9263C202.078 60.8996 205.158 60.2463 208.238 59.9663C211.785 59.7796 215.051 59.6863 218.038 59.6863C222.238 59.6863 225.598 59.8263 228.118 60.1063C230.638 60.293 233.438 60.8529 236.518 61.7863C239.878 62.813 242.538 64.1663 244.498 65.8463C246.458 67.5263 248.138 69.953 249.538 73.1263C250.938 76.2996 251.638 80.173 251.638 84.7463V128.286C251.638 132.58 250.938 136.36 249.538 139.626C248.231 142.893 246.551 145.413 244.498 147.186C242.631 148.773 240.065 150.08 236.798 151.106C233.625 152.133 230.591 152.74 227.698 152.926C225.085 153.206 221.865 153.346 218.038 153.346ZM218.318 140.186C222.238 140.186 225.038 139.953 226.718 139.486C228.398 138.926 229.518 137.946 230.078 136.546C230.638 135.146 230.918 132.86 230.918 129.686V83.3463C230.918 80.173 230.638 77.8863 230.078 76.4863C229.518 75.0863 228.398 74.153 226.718 73.6863C225.038 73.1263 222.238 72.8463 218.318 72.8463C214.305 72.8463 211.411 73.1263 209.638 73.6863C207.958 74.153 206.838 75.0863 206.278 76.4863C205.718 77.8863 205.438 80.173 205.438 83.3463V129.686C205.438 132.86 205.718 135.146 206.278 136.546C206.838 137.946 207.958 138.926 209.638 139.486C211.411 139.953 214.305 140.186 218.318 140.186ZM266.909 131.226C266.909 126.186 268.309 121.8 271.109 118.066C273.909 114.333 277.549 111.486 282.029 109.526C285.576 107.94 289.729 106.353 294.489 104.766C299.249 103.18 302.936 101.5 305.549 99.7263C308.162 97.953 309.469 95.853 309.469 93.4263V81.8063C309.469 78.913 308.302 76.9996 305.969 76.0663C303.449 75.0396 299.529 74.5263 294.209 74.5263C287.769 74.5263 279.276 75.693 268.729 78.0263V62.6263C278.062 60.6663 287.816 59.6863 297.989 59.6863C309.002 59.6863 317.169 61.3663 322.489 64.7263C327.902 68.0863 330.609 73.6863 330.609 81.5263V94.1263C330.609 98.8863 329.162 103.04 326.269 106.586C323.469 110.04 319.829 112.653 315.349 114.426C311.149 116.2 306.856 117.786 302.469 119.186C297.709 120.866 293.929 122.733 291.129 124.786C288.422 126.84 287.069 129.266 287.069 132.066V136.686H330.749V151.946H266.909V131.226Z" fill="#003E81" fill-opacity="0.04"/>
</svg>
