<svg width="28" height="29" viewBox="0 0 28 29" fill="none" xmlns="http://www.w3.org/2000/svg">
<path opacity="0.4" d="M4.66931 2.11328C4.06415 2.11328 3.55945 2.576 3.50702 3.17888L2.34036 16.5955C2.29361 17.1332 2.62169 17.6327 3.13365 17.8034L7.58506 19.2875V26.6133C7.58506 27.0435 7.82188 27.4389 8.20123 27.6419C8.58058 27.8449 9.04088 27.8227 9.39888 27.584L25.1489 17.084C25.5081 16.8445 25.7057 16.4261 25.6625 15.9965C25.6193 15.5669 25.3424 15.1963 24.9426 15.0331L20.1278 13.0679L22.1437 3.52098C22.2163 3.17686 22.1299 2.81832 21.9084 2.54513C21.6868 2.27195 21.3539 2.11328 21.0022 2.11328H4.66931Z" fill="white"/>
<path fill-rule="evenodd" clip-rule="evenodd" d="M7.92472 12.3714L13.7581 6.53809L15.408 8.188L9.57463 14.0213L7.92472 12.3714ZM7.58301 9.11304V6.77971H9.91634V9.11304H7.58301ZM13.4163 13.7797V11.4464H15.7497V13.7797H13.4163Z" fill="white"/>
</svg>
