<svg width="28" height="29" viewBox="0 0 28 29" fill="none" xmlns="http://www.w3.org/2000/svg">
<path d="M13.6116 20.7786C13.8981 20.7786 14.2707 20.7692 14.6048 20.8587C15.3597 21.061 15.9594 21.6263 16.2093 22.3597L16.2552 22.5081L16.2835 22.6351C16.3416 22.9341 16.3343 23.2505 16.3343 23.5013C16.3343 24.1494 16.3444 24.7024 16.2151 25.1849C15.8915 26.3925 14.9481 27.3357 13.7405 27.6595C13.3786 27.7564 12.9764 27.7754 12.5247 27.7786H4.97685C4.52541 27.7754 4.12377 27.7564 3.762 27.6595C2.55433 27.3358 1.61003 26.3926 1.28642 25.1849C1.15718 24.7024 1.16728 24.1494 1.16728 23.5013C1.16728 23.2147 1.15785 22.8422 1.24736 22.5081C1.46313 21.7032 2.09194 21.0746 2.89677 20.8587C3.23076 20.7692 3.60343 20.7786 3.88993 20.7786H13.6116Z" fill="white"/>
<path d="M11.4326 12.6113C14.1387 12.6113 16.3328 14.8057 16.333 17.5117C16.333 18.6714 15.393 19.6111 14.2334 19.6113H3.2666C2.10697 19.6112 1.16605 18.6714 1.16602 17.5117C1.16619 14.8058 3.36047 12.6115 6.06641 12.6113H11.4326Z" fill="white"/>
<path opacity="0.4" d="M20.5332 7.94531C21.788 7.94531 22.8464 7.9437 23.6768 8.05371C24.5325 8.16719 25.3498 8.42217 25.9814 9.09277C26.623 9.77444 26.8085 10.6029 26.8311 11.4531C26.8525 12.2628 26.7277 13.273 26.5859 14.4482L25.6006 22.6152C25.4858 23.5669 25.388 24.397 25.2168 25.0566C25.0357 25.7542 24.7398 26.4031 24.1387 26.9111C23.5451 27.4128 22.8534 27.6084 22.1289 27.6963C21.4321 27.7808 20.5639 27.7793 19.5479 27.7793H12.834C12.2246 27.7793 11.718 27.3096 11.6709 26.7022L10.5039 11.5352C10.5016 11.5055 10.5 11.4751 10.5 11.4453C10.5001 10.6734 10.7215 9.75984 11.3496 9.09277C11.9814 8.422 12.7983 8.16714 13.6543 8.05371C14.4845 7.94374 15.5423 7.94531 16.7969 7.94531H20.5332Z" fill="white"/>
<path d="M16.334 2.11134C16.8508 2.11134 17.3561 2.1095 17.7695 2.16505C18.1606 2.21763 18.6007 2.33589 18.9883 2.64844L19.1504 2.79493L19.2969 2.95801C19.6093 3.34542 19.7286 3.78481 19.7812 4.17579C19.8368 4.58912 19.834 5.09457 19.834 5.61134V7.94532H17.501V5.61134C17.501 5.02914 17.4985 4.7091 17.4688 4.48731C17.4683 4.48452 17.4672 4.48118 17.4668 4.47852C17.4644 4.47819 17.4615 4.47789 17.459 4.47755C17.2371 4.44776 16.9166 4.44532 16.334 4.44532H12.834V2.11134H16.334Z" fill="white"/>
</svg>
