<svg width="28" height="29" viewBox="0 0 28 29" fill="none" xmlns="http://www.w3.org/2000/svg">
<path opacity="0.4" d="M1.16699 12.5279V17.3653C1.16696 19.4927 1.16694 21.2074 1.34825 22.556C1.5365 23.9562 1.93922 25.1351 2.87554 26.0714C3.81185 27.0077 4.99077 27.4104 6.39094 27.5987C7.73954 27.78 9.45424 27.78 11.5816 27.78H16.419C18.5464 27.78 20.2611 27.78 21.6097 27.5987C23.0099 27.4104 24.1888 27.0077 25.1251 26.0714C26.0614 25.1351 26.4642 23.9562 26.6524 22.556C26.8337 21.2074 26.8337 19.4927 26.8337 17.3653V12.528C26.8337 10.4006 26.8337 8.68585 26.6524 7.33722C26.4642 5.93706 26.0614 4.75814 25.1251 3.82183C24.1888 2.88551 23.0099 2.48279 21.6097 2.29454C20.2611 2.11322 18.5464 2.11325 16.419 2.11328H11.5817C9.45429 2.11325 7.73956 2.11322 6.39094 2.29454C4.99077 2.48279 3.81185 2.88551 2.87554 3.82183C1.93922 4.75814 1.5365 5.93706 1.34825 7.33722C1.16694 8.68584 1.16696 10.4006 1.16699 12.5279Z" fill="white"/>
<path fill-rule="evenodd" clip-rule="evenodd" d="M10.4997 23.1126H5.83301V20.7793H10.4997V23.1126Z" fill="white"/>
<path fill-rule="evenodd" clip-rule="evenodd" d="M18.6663 2.12318C17.9748 2.11326 17.2264 2.11327 16.4183 2.11328H11.581C10.773 2.11327 10.0245 2.11326 9.33301 2.12318V10.6373C9.33301 11.8318 10.5032 12.6752 11.6364 12.2975L13.9997 11.5097L16.3629 12.2975C17.4961 12.6752 18.6663 11.8318 18.6663 10.6373V2.12318Z" fill="white"/>
</svg>
