<svg width="26" height="26" viewBox="0 0 26 26" fill="none" xmlns="http://www.w3.org/2000/svg">
<path opacity="0.4" d="M10.5007 9.44631C9.99482 9.44612 9.46855 9.44592 9.03434 9.51583C8.49878 9.60205 7.94518 9.81693 7.56209 10.3299C7.21497 10.7946 7.15836 11.3076 7.16796 11.7586C7.17715 12.1897 7.25506 12.7196 7.34302 13.318L8.75729 22.9429C8.82148 23.3801 8.8801 23.7792 8.96471 24.1016C9.05442 24.4434 9.20408 24.8328 9.54857 25.1638C9.92292 25.5236 10.3751 25.671 10.8004 25.7312C11.1445 25.7799 11.5475 25.7798 11.9173 25.7796H21.0834C21.4531 25.7798 21.8561 25.7799 22.2003 25.7312C22.6255 25.671 23.0777 25.5236 23.4521 25.1638C23.7966 24.8328 23.9462 24.4434 24.0359 24.1016C24.1206 23.7792 24.1792 23.3801 24.2434 22.9429L25.6576 13.318C25.7456 12.7197 25.8235 12.1897 25.8327 11.7586C25.8423 11.3076 25.7857 10.7946 25.4386 10.3299C25.0555 9.81693 24.5019 9.60205 23.9663 9.51583C23.5321 9.44592 23.0058 9.44612 22.5 9.44631H10.5007Z" fill="white"/>
<path d="M23.5007 9.44629C23.9274 9.44629 24.3206 9.6801 24.5251 10.0547C24.7291 10.4291 24.7127 10.8854 24.4821 11.2441L22.86 13.7676C22.5349 14.2734 22.248 14.7212 21.9723 15.0723C21.6815 15.4426 21.352 15.7739 20.904 16.0186C20.4559 16.2632 19.9988 16.3609 19.53 16.4053C19.0856 16.4473 18.5542 16.4463 17.9528 16.4463H15.0485C14.4472 16.4463 13.9158 16.4473 13.4714 16.4053C13.0026 16.3609 12.5455 16.2632 12.0973 16.0186C11.6493 15.7739 11.3198 15.4426 11.029 15.0723C10.7533 14.7212 10.4665 14.2734 10.1413 13.7676L8.51922 11.2441C8.28863 10.8854 8.2722 10.4291 8.47625 10.0547C8.68076 9.6801 9.07389 9.44629 9.50066 9.44629H23.5007Z" fill="white"/>
<path opacity="0.4" d="M11.833 1.2793V10.6126M15.333 1.2793V10.6126M18.833 1.2793V10.6126M22.333 1.2793V10.6126" stroke="white" stroke-width="2.33333" stroke-linejoin="round"/>
<path d="M25.8337 1.2793H0.166992" stroke="white" stroke-width="2.33333" stroke-linejoin="round"/>
<path d="M25.8337 4.7793H23.5003M0.166992 4.7793H10.667" stroke="white" stroke-width="2.33333" stroke-linejoin="round"/>
</svg>
