<svg width="360" height="203" viewBox="0 0 360 203" fill="none" xmlns="http://www.w3.org/2000/svg">
<path d="M228.704 153.346C224.598 153.346 221.238 153.206 218.624 152.926C216.011 152.646 213.164 152.086 210.084 151.246C206.911 150.313 204.344 149.006 202.384 147.326C200.424 145.553 198.791 143.033 197.484 139.766C196.084 136.593 195.384 132.766 195.384 128.286V84.7463C195.384 80.453 196.038 76.673 197.344 73.4063C198.651 70.1396 200.331 67.573 202.384 65.7063C204.158 64.1196 206.584 62.8596 209.664 61.9263C212.744 60.8996 215.824 60.2463 218.904 59.9663C222.451 59.7796 225.718 59.6863 228.704 59.6863C232.904 59.6863 236.264 59.8263 238.784 60.1063C241.304 60.293 244.104 60.8529 247.184 61.7863C250.544 62.813 253.204 64.1663 255.164 65.8463C257.124 67.5263 258.804 69.953 260.204 73.1263C261.604 76.2996 262.304 80.173 262.304 84.7463V128.286C262.304 132.58 261.604 136.36 260.204 139.626C258.898 142.893 257.218 145.413 255.164 147.186C253.298 148.773 250.731 150.08 247.464 151.106C244.291 152.133 241.258 152.74 238.364 152.926C235.751 153.206 232.531 153.346 228.704 153.346ZM228.984 140.186C232.904 140.186 235.704 139.953 237.384 139.486C239.064 138.926 240.184 137.946 240.744 136.546C241.304 135.146 241.584 132.86 241.584 129.686V83.3463C241.584 80.173 241.304 77.8863 240.744 76.4863C240.184 75.0863 239.064 74.153 237.384 73.6863C235.704 73.1263 232.904 72.8463 228.984 72.8463C224.971 72.8463 222.078 73.1263 220.304 73.6863C218.624 74.153 217.504 75.0863 216.944 76.4863C216.384 77.8863 216.104 80.173 216.104 83.3463V129.686C216.104 132.86 216.384 135.146 216.944 136.546C217.504 137.946 218.624 138.926 220.304 139.486C222.078 139.953 224.971 140.186 228.984 140.186ZM306.135 82.5063L281.355 96.2263V79.0063L310.055 61.0863H326.575V151.946H306.135V82.5063Z" fill="#003E81" fill-opacity="0.04"/>
</svg>
