<svg width="28" height="29" viewBox="0 0 28 29" fill="none" xmlns="http://www.w3.org/2000/svg">
<path opacity="0.4" fill-rule="evenodd" clip-rule="evenodd" d="M2.97611 19.9029C3.33311 19.0224 4.18834 18.4463 5.13846 18.4463H22.8618C23.8119 18.4463 24.6671 19.0224 25.0241 19.9029L26.4206 23.347L26.4399 23.4218C26.4462 23.4463 26.4525 23.4707 26.4588 23.495C26.615 24.0987 26.7632 24.6718 26.8134 25.1493C26.8692 25.6806 26.8325 26.3282 26.3734 26.897C25.9215 27.4569 25.3025 27.6388 24.7772 27.7123C24.2946 27.7798 23.6913 27.7797 23.0435 27.7796L5.02977 27.7796C5.00536 27.7796 4.98101 27.7796 4.95672 27.7796C4.30898 27.7797 3.70566 27.7798 3.22309 27.7123C2.69772 27.6388 2.07873 27.4569 1.62682 26.897C1.16775 26.3282 1.13107 25.6806 1.1869 25.1493C1.23707 24.6718 1.3853 24.0987 1.54141 23.495C1.54771 23.4707 1.55402 23.4463 1.56034 23.4218L1.57968 23.347L2.97611 19.9029Z" fill="white"/>
<path opacity="0.4" fill-rule="evenodd" clip-rule="evenodd" d="M21.5837 14.2662C18.4605 13.7422 16.0386 11.1501 15.7743 7.94629H7.58366C6.93933 7.94629 6.41699 8.46862 6.41699 9.11296V16.113C6.41699 16.7573 6.93933 17.2796 7.58366 17.2796H20.417C21.0613 17.2796 21.5837 16.7573 21.5837 16.113V14.2662Z" fill="white"/>
<path d="M22.167 2.11328C19.5897 2.11328 17.5003 4.20262 17.5003 6.77995V8.33872C17.5003 9.29131 18.1865 10.0836 19.0915 10.2485L19.1316 10.5694C19.2775 11.737 20.2702 12.6133 21.4469 12.6133H22.8871C24.0638 12.6133 25.0564 11.737 25.2024 10.5694L25.2425 10.2485C26.1475 10.0836 26.8337 9.29131 26.8337 8.33872V6.77995C26.8337 4.20262 24.7443 2.11328 22.167 2.11328Z" fill="white"/>
<path d="M25.0837 13.965L25.0837 14.6024C25.0837 15.7339 25.0838 16.702 24.9765 17.4757C24.8615 18.3049 24.6039 19.0812 23.9603 19.7053C23.3218 20.3245 22.5359 20.5677 21.6982 20.677C20.9075 20.78 19.9156 20.78 18.7437 20.78H9.25698C8.08502 20.78 7.09312 20.78 6.3025 20.677C5.46472 20.5677 4.6789 20.3245 4.04034 19.7053C3.39676 19.0812 3.13913 18.3049 3.02416 17.4757C2.91689 16.702 2.91694 15.7339 2.91699 14.6024V10.6242C2.91694 9.49265 2.91689 8.52462 3.02416 7.75092C3.13913 6.92171 3.39676 6.14536 4.04034 5.52128C4.6789 4.90207 5.46472 4.65883 6.3025 4.5496C7.09311 4.44653 8.08498 4.44657 9.25691 4.44662L16.385 4.44662C16.0544 5.16696 15.8425 5.95308 15.7743 6.77995H9.33367C8.06422 6.77995 7.22599 6.78229 6.60415 6.86336C6.01228 6.94052 5.79496 7.07005 5.66468 7.19639C5.53941 7.31785 5.41263 7.51425 5.33538 8.07137C5.25296 8.66581 5.25033 9.47027 5.25033 10.7042V14.5224C5.25033 15.7563 5.25296 16.5608 5.33538 17.1552C5.41262 17.7123 5.53941 17.9087 5.66468 18.0302C5.79496 18.1565 6.01228 18.2861 6.60415 18.3632C7.22599 18.4443 8.06422 18.4466 9.33367 18.4466H18.667C19.9364 18.4466 20.7747 18.4443 21.3965 18.3632C21.9884 18.2861 22.2057 18.1565 22.336 18.0302C22.4613 17.9087 22.588 17.7123 22.6653 17.1552C22.7477 16.5608 22.7503 15.7563 22.7503 14.5224L22.7503 14.3633C23.5685 14.3633 24.3538 14.2229 25.0837 13.965Z" fill="white"/>
<path d="M16.3337 24.2799H11.667V21.9466H16.3337V24.2799Z" fill="white"/>
</svg>
