<svg width="28" height="29" viewBox="0 0 28 29" fill="none" xmlns="http://www.w3.org/2000/svg">
<path opacity="0.4" fill-rule="evenodd" clip-rule="evenodd" d="M14.0003 4.44661C8.20134 4.44661 3.50033 9.14762 3.50033 14.9466V18.4466H1.16699V14.9466C1.16699 7.85896 6.91267 2.11328 14.0003 2.11328C21.088 2.11328 26.8337 7.85896 26.8337 14.9466V18.4466H24.5003V14.9466C24.5003 9.14762 19.7993 4.44661 14.0003 4.44661Z" fill="white"/>
<path d="M7.38275 13.8751C8.14752 13.978 8.8806 14.2098 9.4752 14.8044C10.0698 15.399 10.3017 16.1321 10.4045 16.8969C10.5004 17.6105 10.5004 18.5016 10.5003 19.5358L10.5003 23.15C10.5003 23.6617 10.5004 24.1033 10.4754 24.4687C10.4492 24.8535 10.3914 25.2384 10.2339 25.6187C9.87868 26.4763 9.19732 27.1577 8.33972 27.5129C7.95947 27.6704 7.57458 27.7281 7.18977 27.7544C6.82432 27.7793 6.38277 27.7793 5.87104 27.7793H5.79634C5.28461 27.7793 4.843 27.7793 4.47755 27.7544C4.09275 27.7281 3.70785 27.6704 3.3276 27.5129C2.47001 27.1577 1.78865 26.4763 1.43342 25.6187C1.27591 25.2384 1.21816 24.8535 1.1919 24.4687C1.16697 24.1033 1.16698 23.6618 1.16699 23.1501V14.946C1.16699 14.3016 1.68933 13.7793 2.33366 13.7793L4.7438 13.7793C5.77803 13.7792 6.66915 13.7792 7.38275 13.8751Z" fill="white"/>
<path d="M23.2569 13.7793L25.667 13.7793C26.3113 13.7793 26.8337 14.3016 26.8337 14.946V23.15C26.8337 23.6617 26.8337 24.1033 26.8088 24.4687C26.7825 24.8535 26.7247 25.2384 26.5672 25.6187C26.212 26.4763 25.5307 27.1577 24.6731 27.5129C24.2928 27.6704 23.9079 27.7281 23.5231 27.7544C23.1577 27.7793 22.7161 27.7793 22.2044 27.7793H22.1297C21.6179 27.7793 21.1763 27.7793 20.8109 27.7544C20.4261 27.7281 20.0412 27.6704 19.6609 27.5129C18.8033 27.1577 18.122 26.4763 17.7668 25.6187C17.6092 25.2384 17.5515 24.8535 17.5252 24.4687C17.5003 24.1033 17.5003 23.6617 17.5003 23.15V19.5358C17.5003 18.5016 17.5002 17.6105 17.5962 16.8969C17.699 16.1321 17.9309 15.399 18.5255 14.8044C19.1201 14.2098 19.8531 13.978 20.6179 13.8751C21.3315 13.7792 22.2226 13.7792 23.2569 13.7793Z" fill="white"/>
</svg>
