<svg width="28" height="29" viewBox="0 0 28 29" fill="none" xmlns="http://www.w3.org/2000/svg">
<path opacity="0.4" d="M25.4305 4.76292C24.6042 4.14468 23.6558 4.09895 22.7206 4.23195C21.8337 4.35808 20.7377 4.68049 19.4402 5.06217L8.794 8.19341C8.03907 8.4154 7.37847 8.60965 6.85389 8.83283C6.28717 9.07394 5.76561 9.39332 5.36463 9.92923C4.96327 10.4656 4.80425 11.0573 4.73296 11.6698C4.66691 12.2372 4.66695 12.9276 4.66699 13.7173V13.8431C4.66695 14.6327 4.66691 15.3232 4.73296 15.8906C4.80425 16.5031 4.96327 17.0947 5.36463 17.6311C5.76561 18.167 6.28717 18.4864 6.8539 18.7275C7.37847 18.9507 8.03907 19.145 8.79401 19.367L19.4402 22.4982C20.7377 22.8799 21.8337 23.2023 22.7206 23.3284C23.6558 23.4614 24.6042 23.4157 25.4305 22.7974C26.2568 22.1792 26.5682 21.2822 26.7045 20.3475C26.8338 19.461 26.8337 18.3186 26.8337 16.9661V10.5943C26.8337 9.24177 26.8338 8.09932 26.7045 7.21284C26.5682 6.27811 26.2568 5.38116 25.4305 4.76292Z" fill="white"/>
<path fill-rule="evenodd" clip-rule="evenodd" d="M1.16699 16.6966V10.8633H3.50033V16.6966H1.16699Z" fill="white"/>
<path fill-rule="evenodd" clip-rule="evenodd" d="M5.87891 18.1641C6.17506 18.4026 6.50557 18.5799 6.85307 18.7277C7.37765 18.9509 8.03825 19.1452 8.79318 19.3672L13.6772 20.8037L14.0062 22.4486C14.4372 24.6034 12.7891 26.6138 10.5916 26.6138C8.97005 26.6138 7.56312 25.4946 7.1985 23.9145L5.92247 18.3851C5.90557 18.3118 5.89104 18.2381 5.87891 18.1641Z" fill="white"/>
</svg>
