<svg width="28" height="29" viewBox="0 0 28 29" fill="none" xmlns="http://www.w3.org/2000/svg">
<path opacity="0.4" d="M14.0003 2.11279C6.91267 2.11279 1.16699 7.85847 1.16699 14.9461C1.16699 22.0338 6.91267 27.7795 14.0003 27.7795C21.088 27.7795 26.8337 22.0338 26.8337 14.9461C26.8337 7.85847 21.088 2.11279 14.0003 2.11279Z" fill="white"/>
<path fill-rule="evenodd" clip-rule="evenodd" d="M8.14737 14.3631L7.09433 11.906L9.239 10.9868L11.5302 16.333L12.8932 12.2441C13.052 11.7677 13.4978 11.4464 14 11.4464C14.5022 11.4464 14.948 11.7677 15.1068 12.2441L16.4698 16.333L18.761 10.9868L20.9057 11.906L19.8526 14.3631H21V16.6964H18.8526L17.4057 20.0726C17.2149 20.5178 16.7688 20.7988 16.2848 20.7787C15.8009 20.7586 15.3797 20.4415 15.2265 19.982L14 16.3024L12.7735 19.982C12.6203 20.4415 12.1991 20.7586 11.7152 20.7787C11.2312 20.7988 10.7851 20.5178 10.5943 20.0726L9.14737 16.6964H7V14.3631H8.14737Z" fill="white"/>
</svg>
