<svg width="28" height="29" viewBox="0 0 28 29" fill="none" xmlns="http://www.w3.org/2000/svg">
<path opacity="0.4" fill-rule="evenodd" clip-rule="evenodd" d="M5.24704 2.1128C5.27161 2.11281 5.29624 2.11281 5.32091 2.11281L19.9125 2.11281C21.2191 2.11276 22.316 2.11272 23.1883 2.23C24.1119 2.35417 24.9564 2.62876 25.6365 3.30879C26.3165 3.98882 26.5911 4.83336 26.7152 5.75698C26.8325 6.62929 26.8325 7.72614 26.8324 9.0328V9.19282C26.8325 10.4995 26.8325 11.5963 26.7152 12.4686C26.5911 13.3923 26.3165 14.2368 25.6365 14.9168C24.9564 15.5969 24.1119 15.8714 23.1883 15.9956C22.316 16.1129 21.2191 16.1129 19.9125 16.1128H10.6445C9.39173 16.1128 8.34884 16.1129 7.5044 16.0119C6.61312 15.9053 5.8144 15.6745 5.10989 15.1244C4.40538 14.5744 3.98774 13.8555 3.66817 13.0167C3.36541 12.2219 3.11249 11.2102 2.80868 9.99475L1.92541 6.46168C1.91943 6.43774 1.91345 6.41385 1.90749 6.39002C1.75611 5.78493 1.61326 5.21396 1.565 4.73923C1.51174 4.21535 1.54547 3.57636 1.98753 3.01018C2.42959 2.444 3.04132 2.2563 3.56247 2.18091C4.03474 2.1126 4.6233 2.1127 5.24704 2.1128Z" fill="white"/>
<path d="M2.58822 9.11312L2.00488 6.77979H11.8008C12.9783 6.77979 14.0984 7.28808 14.8738 8.17422L15.1724 8.5155C15.5047 8.89528 15.9848 9.11312 16.4895 9.11312H26.8325V9.19315C26.8325 10.032 26.8325 10.7844 26.8015 11.4465H16.4895C15.312 11.4465 14.1918 10.9382 13.4164 10.052L13.1178 9.71074C12.7855 9.33096 12.3054 9.11312 11.8008 9.11312H2.58822Z" fill="white"/>
<path d="M23.2241 17.2796L23.3327 17.2797L23.4413 17.2796C23.8714 17.2789 24.2943 17.2782 24.6709 17.3791C25.6774 17.6488 26.4636 18.435 26.7333 19.4415C26.8342 19.8182 26.8335 20.241 26.8328 20.6712L26.8327 20.7797V24.2797L26.8328 24.3883C26.8335 24.8185 26.8342 25.2413 26.7333 25.618C26.4636 26.6245 25.6774 27.4107 24.6709 27.6804C24.2943 27.7813 23.8714 27.7806 23.4413 27.7799L23.3327 27.7797L23.2241 27.7799C22.7939 27.7806 22.3711 27.7813 21.9945 27.6804C20.9879 27.4107 20.2018 26.6245 19.9321 25.618C19.8311 25.2413 19.8318 24.8185 19.8326 24.3883L19.8327 24.2797V20.7797L19.8326 20.6712C19.8318 20.241 19.8311 19.8182 19.9321 19.4415C20.2018 18.435 20.9879 17.6488 21.9945 17.3791C22.3711 17.2782 22.7939 17.2789 23.2241 17.2796Z" fill="white"/>
<path d="M13.4158 19.6131V17.2798H15.7491V19.6131C15.7491 20.5796 16.5326 21.3631 17.4991 21.3631H18.666V23.6965H17.4991C15.2439 23.6965 13.4158 21.8683 13.4158 19.6131Z" fill="white"/>
</svg>
