<svg width="8" height="12" viewBox="0 0 8 12" fill="none" xmlns="http://www.w3.org/2000/svg">
<path fill-rule="evenodd" clip-rule="evenodd" d="M1.74987 11.4001C1.51987 11.4001 1.28987 11.3101 1.10987 11.1401C0.941937 10.9715 0.847656 10.7431 0.847656 10.5051C0.847656 10.2671 0.941937 10.0388 1.10987 9.87012L4.97987 6.00012L1.10987 2.14012C0.941937 1.97145 0.847656 1.74313 0.847656 1.50512C0.847656 1.26711 0.941937 1.03879 1.10987 0.870121C1.27854 0.702191 1.50686 0.60791 1.74487 0.60791C1.98288 0.60791 2.2112 0.702191 2.37987 0.870121L6.87987 5.37012C7.0478 5.53879 7.14208 5.76711 7.14208 6.00512C7.14208 6.24313 7.0478 6.47145 6.87987 6.64012L2.37987 11.1401C2.20987 11.3101 1.97987 11.4001 1.74987 11.4001Z" fill="#8EA0AC"/>
</svg>
