<svg width="312" height="40" viewBox="0 0 312 40" fill="none" xmlns="http://www.w3.org/2000/svg">
<path d="M22.4766 4.05859V8.69336H15.1758C15.3604 12.2002 17.7598 15.7686 23.7891 17.3066L21.123 21.9414C16.8984 20.8545 14.0273 18.5986 12.3252 15.7686C10.6641 19.0088 7.77246 21.5928 3.4043 22.8438L0.574219 18.209C6.64453 16.6299 9.12598 12.6309 9.26953 8.69336H2.00977V4.05859H9.26953V0.162109H15.2168V4.05859H22.4766ZM5.53711 30.7598C5.5166 26.125 10.4795 23.5 18.5391 23.5C26.4551 23.5 31.3359 26.125 31.3359 30.7598C31.3359 35.2715 26.4551 37.917 18.5391 37.8965C10.4795 37.917 5.5166 35.2715 5.53711 30.7598ZM11.4434 30.7598C11.4229 32.6465 13.7812 33.4873 18.5391 33.5078C23.1738 33.4873 25.4912 32.6465 25.5117 30.7598C25.4912 28.791 23.1738 28.0322 18.5391 28.0117C13.7812 28.0322 11.4229 28.791 11.4434 30.7598ZM25.0605 22.8848V0.285156H30.9668V8.93945H35.8477V13.6973H30.9668V22.8848H25.0605ZM47.8242 1.84375C52.5615 1.82324 56.3965 4.53027 57.5039 8.48828H63.2871V0.285156H69.1523V20.5469H63.2871V13.123H57.5244C56.458 17.1836 52.582 19.9111 47.8242 19.9316C42.0205 19.9111 37.6934 16.0967 37.7344 10.8262C37.6934 5.6582 42.0205 1.82324 47.8242 1.84375ZM43.3125 10.8262C43.3125 13.4307 45.1787 14.9893 47.8242 14.9688C50.3877 14.9893 52.2129 13.4307 52.2129 10.8262C52.2129 8.22168 50.3877 6.72461 47.8242 6.72461C45.1787 6.72461 43.3125 8.22168 43.3125 10.8262ZM43.8047 37.5273V22.1055H49.5879V25.3457H63.2871V22.1055H69.1523V37.5273H43.8047ZM49.5879 32.7695H63.2871V29.8574H49.5879V32.7695ZM107.953 18.6602V23.3359H94.1719V29.4473H88.3477V23.3359H73.541V18.6602H107.953ZM77.4375 37.3223V26.3301H83.3438V32.6055H104.18V37.3223H77.4375ZM77.7656 15.9941V1.88477H103.564V15.9941H77.7656ZM83.5488 11.4414H97.7812V6.4375H83.5488V11.4414ZM122.021 2.74609C128.01 2.72559 132.521 6.64258 132.562 12.0977C132.521 17.5732 128.01 21.4697 122.021 21.4492C116.095 21.4697 111.48 17.5732 111.48 12.0977C111.48 6.64258 116.095 2.72559 122.021 2.74609ZM110.045 25.7559C116.669 25.7764 125.877 25.6738 133.834 24.5664L134.285 28.832C126.041 30.4316 117.223 30.5137 110.701 30.5137L110.045 25.7559ZM117.346 12.0977C117.346 14.9072 119.396 16.3838 122.021 16.3633C124.708 16.3838 126.779 14.9072 126.82 12.0977C126.779 9.34961 124.729 7.83203 122.021 7.83203C119.376 7.83203 117.346 9.34961 117.346 12.0977ZM135.844 38.0195V0.285156H141.709V38.0195H135.844Z" fill="#FFD900"/>
<path d="M170.816 37.1953C167.145 37.1953 164.898 34.5684 164.898 29.9297C164.898 25.291 167.145 22.6641 170.816 22.6641C174.488 22.6641 176.744 25.3105 176.734 29.9297C176.744 34.5781 174.488 37.1953 170.816 37.1953ZM168.316 29.9297C168.307 33.0645 169.312 34.4805 170.816 34.4805C172.32 34.4805 173.326 33.0645 173.316 29.9297C173.316 26.8438 172.32 25.3691 170.816 25.3594C169.322 25.3691 168.326 26.8438 168.316 29.9297ZM183.995 37.1953C180.665 37.1953 178.263 35.4766 178.273 33.1719C178.263 31.4141 179.669 29.9883 181.456 29.7148V29.6172C179.894 29.3242 178.8 28.0449 178.8 26.4922C178.8 24.2754 180.997 22.6641 183.995 22.6641C186.974 22.6641 189.171 24.2852 189.171 26.4922C189.171 28.0547 188.048 29.3242 186.515 29.6172V29.7148C188.273 29.9883 189.698 31.4141 189.698 33.1719C189.698 35.4766 187.296 37.1953 183.995 37.1953ZM181.769 32.8203C181.759 33.9336 182.667 34.7246 183.995 34.7344C185.304 34.7246 186.202 33.9336 186.202 32.8203C186.202 31.707 185.265 30.8867 183.995 30.8867C182.696 30.8867 181.759 31.6973 181.769 32.8203ZM182.062 26.8438C182.052 27.8691 182.863 28.6016 183.995 28.6016C185.109 28.6016 185.919 27.8691 185.909 26.8438C185.919 25.8379 185.118 25.125 183.995 25.125C182.853 25.125 182.052 25.8379 182.062 26.8438ZM197.155 37.1953C193.483 37.1953 191.237 34.5684 191.237 29.9297C191.237 25.291 193.483 22.6641 197.155 22.6641C200.827 22.6641 203.082 25.3105 203.073 29.9297C203.082 34.5781 200.827 37.1953 197.155 37.1953ZM194.655 29.9297C194.645 33.0645 195.651 34.4805 197.155 34.4805C198.659 34.4805 199.664 33.0645 199.655 29.9297C199.655 26.8438 198.659 25.3691 197.155 25.3594C195.661 25.3691 194.664 26.8438 194.655 29.9297ZM211.584 28.6602V31.1992H205.06V28.6602H211.584ZM219.216 37.1953C215.886 37.1953 213.483 35.4766 213.493 33.1719C213.483 31.4141 214.889 29.9883 216.677 29.7148V29.6172C215.114 29.3242 214.02 28.0449 214.02 26.4922C214.02 24.2754 216.218 22.6641 219.216 22.6641C222.194 22.6641 224.391 24.2852 224.391 26.4922C224.391 28.0547 223.268 29.3242 221.735 29.6172V29.7148C223.493 29.9883 224.919 31.4141 224.919 33.1719C224.919 35.4766 222.516 37.1953 219.216 37.1953ZM216.989 32.8203C216.979 33.9336 217.888 34.7246 219.216 34.7344C220.524 34.7246 221.423 33.9336 221.423 32.8203C221.423 31.707 220.485 30.8867 219.216 30.8867C217.917 30.8867 216.979 31.6973 216.989 32.8203ZM217.282 26.8438C217.272 27.8691 218.083 28.6016 219.216 28.6016C220.329 28.6016 221.139 27.8691 221.13 26.8438C221.139 25.8379 220.339 25.125 219.216 25.125C218.073 25.125 217.272 25.8379 217.282 26.8438ZM232.258 37.1953C229.172 37.1855 226.359 35.3496 226.359 30.1836C226.379 25.4961 228.723 22.6641 232.336 22.6641C235.305 22.6641 237.316 24.5488 237.59 26.9219H234.309C234.094 26.0039 233.332 25.5059 232.336 25.5156C230.549 25.5059 229.66 27.1465 229.66 29.7148H229.758C230.363 28.4355 231.789 27.6836 233.371 27.6836C235.93 27.6836 237.756 29.5879 237.746 32.2148C237.756 35.1641 235.52 37.1953 232.258 37.1953ZM229.973 32.332C229.973 33.6113 230.93 34.627 232.238 34.6172C233.557 34.627 234.523 33.6309 234.504 32.3125C234.523 31.0137 233.566 30.0273 232.258 30.0273C230.949 30.0273 229.973 31.0332 229.973 32.332ZM245.241 37.1953C241.57 37.1953 239.323 34.5684 239.323 29.9297C239.323 25.291 241.57 22.6641 245.241 22.6641C248.913 22.6641 251.169 25.3105 251.159 29.9297C251.169 34.5781 248.913 37.1953 245.241 37.1953ZM242.741 29.9297C242.732 33.0645 243.738 34.4805 245.241 34.4805C246.745 34.4805 247.751 33.0645 247.741 29.9297C247.741 26.8438 246.745 25.3691 245.241 25.3594C243.747 25.3691 242.751 26.8438 242.741 29.9297ZM259.67 28.6602V31.1992H253.147V28.6602H259.67ZM267.556 37.1953C263.884 37.1953 261.638 34.5684 261.638 29.9297C261.638 25.291 263.884 22.6641 267.556 22.6641C271.228 22.6641 273.484 25.3105 273.474 29.9297C273.484 34.5781 271.228 37.1953 267.556 37.1953ZM265.056 29.9297C265.046 33.0645 266.052 34.4805 267.556 34.4805C269.06 34.4805 270.066 33.0645 270.056 29.9297C270.056 26.8438 269.06 25.3691 267.556 25.3594C266.062 25.3691 265.066 26.8438 265.056 29.9297ZM275.403 37L281.184 25.6523V25.5547H274.427V22.8594H284.641V25.5742L278.841 37H275.403ZM291.766 37.1953C288.094 37.1953 285.848 34.5684 285.848 29.9297C285.848 25.291 288.094 22.6641 291.766 22.6641C295.438 22.6641 297.693 25.3105 297.684 29.9297C297.693 34.5781 295.438 37.1953 291.766 37.1953ZM289.266 29.9297C289.256 33.0645 290.262 34.4805 291.766 34.4805C293.27 34.4805 294.275 33.0645 294.266 29.9297C294.266 26.8438 293.27 25.3691 291.766 25.3594C290.271 25.3691 289.275 26.8438 289.266 29.9297ZM304.945 37.1953C301.614 37.1953 299.212 35.4766 299.222 33.1719C299.212 31.4141 300.618 29.9883 302.405 29.7148V29.6172C300.843 29.3242 299.749 28.0449 299.749 26.4922C299.749 24.2754 301.946 22.6641 304.945 22.6641C307.923 22.6641 310.12 24.2852 310.12 26.4922C310.12 28.0547 308.997 29.3242 307.464 29.6172V29.7148C309.222 29.9883 310.648 31.4141 310.648 33.1719C310.648 35.4766 308.245 37.1953 304.945 37.1953ZM302.718 32.8203C302.708 33.9336 303.616 34.7246 304.945 34.7344C306.253 34.7246 307.152 33.9336 307.152 32.8203C307.152 31.707 306.214 30.8867 304.945 30.8867C303.646 30.8867 302.708 31.6973 302.718 32.8203ZM303.011 26.8438C303.001 27.8691 303.812 28.6016 304.945 28.6016C306.058 28.6016 306.868 27.8691 306.859 26.8438C306.868 25.8379 306.068 25.125 304.945 25.125C303.802 25.125 303.001 25.8379 303.011 26.8438Z" fill="white"/>
</svg>
