<svg width="24" height="25" viewBox="0 0 24 25" fill="none" xmlns="http://www.w3.org/2000/svg">
<path fill-rule="evenodd" clip-rule="evenodd" d="M17.207 10.4904L11.624 16.0744C11.4359 16.2612 11.1816 16.366 10.9165 16.366C10.6514 16.366 10.3971 16.2612 10.209 16.0744L6.793 12.6584C6.70016 12.5655 6.62651 12.4553 6.57626 12.334C6.52601 12.2127 6.50015 12.0827 6.50015 11.9514C6.50015 11.6862 6.60549 11.4319 6.793 11.2444C6.98051 11.0569 7.23482 10.9515 7.5 10.9515C7.76518 10.9515 8.01949 11.0569 8.207 11.2444L10.916 13.9534L15.793 9.07639C15.8858 8.98355 15.9961 8.9099 16.1174 8.85965C16.2387 8.8094 16.3687 8.78354 16.5 8.78354C16.6313 8.78354 16.7613 8.8094 16.8826 8.85965C17.0039 8.9099 17.1142 8.98355 17.207 9.07639C17.2998 9.16923 17.3735 9.27946 17.4237 9.40077C17.474 9.52207 17.4998 9.65209 17.4998 9.78339C17.4998 9.91469 17.474 10.0447 17.4237 10.166C17.3735 10.2873 17.2998 10.3975 17.207 10.4904M12 1.27539C5.925 1.27539 1 6.20039 1 12.2754C1 18.3504 5.925 23.2754 12 23.2754C18.075 23.2754 23 18.3504 23 12.2754C23 6.20039 18.075 1.27539 12 1.27539Z" fill="#5200E9"/>
</svg>
