<svg width="100" height="100" viewBox="0 0 100 100" fill="none" xmlns="http://www.w3.org/2000/svg">
<circle cx="50" cy="50" r="50" fill="#8438E4"/>
<path d="M35.6894 81.4707V85.0664H27.1171V81.4707H35.6894ZM25.7909 80.7461V79.543H30.6581V78.8252C28.5116 78.7227 27.3085 78.1348 27.3085 77.082C27.3085 75.9199 28.7919 75.332 31.4101 75.332C34.0556 75.332 35.5185 75.9199 35.5253 77.082C35.5185 78.1348 34.3359 78.7227 32.1757 78.8252V79.543H37.0566V80.7461H25.7909ZM26.3515 74.9492V73.8008H30.6581V72.7207H32.1757V73.8008H36.4413V74.9492H26.3515ZM28.621 83.918H34.2128V82.6191H28.621V83.918ZM28.9355 77.082C28.9355 77.5674 29.7763 77.8066 31.4101 77.8066C33.0712 77.8066 33.8915 77.5674 33.8984 77.082C33.8915 76.583 33.0712 76.3643 31.4101 76.3574C29.7763 76.3643 28.9355 76.583 28.9355 77.082ZM48.903 72.8574V85.2168H47.4537V72.8574H48.903ZM38.0338 81.0469H39.1549V75.5508H38.2799V74.3203H43.9401V75.5508H43.0651V80.8828C43.4547 80.8486 43.8239 80.8076 44.1725 80.7598L44.2682 81.8672C42.32 82.2637 39.777 82.3115 38.2116 82.3047L38.0338 81.0469ZM40.5221 81.0195C40.8981 81.0127 41.2877 80.999 41.6705 80.9785V75.5508H40.5221V81.0195ZM43.6256 78.7773V77.4238H44.9928V73.1172H46.442V84.6016H44.9928V78.7773H43.6256ZM60.8314 72.8574V85.2305H59.3002V72.8574H60.8314ZM50.9466 78.1211C50.9398 75.4551 52.3002 73.7598 54.1732 73.7598C56.0257 73.7598 57.3929 75.4551 57.3998 78.1211C57.3929 80.8076 56.0257 82.4961 54.1732 82.4961C52.3002 82.4961 50.9398 80.8076 50.9466 78.1211ZM52.4095 78.1211C52.4095 80.0215 53.1273 81.1221 54.1732 81.1289C55.2123 81.1221 55.9232 80.0215 55.9232 78.1211C55.9232 76.2344 55.2123 75.127 54.1732 75.127C53.1273 75.127 52.4095 76.2344 52.4095 78.1211ZM67.5919 76.3711C67.5919 78.3945 68.7813 80.5273 70.7774 81.3613L69.9434 82.5645C68.4805 81.9287 67.4141 80.6367 66.8468 79.0645C66.2794 80.7598 65.1925 82.1816 63.7501 82.8652L62.8751 81.6758C64.8233 80.7734 66.0401 78.4697 66.047 76.3711V75.332H63.3262V74.0742H70.2989V75.332H67.5919V76.3711ZM71.6798 85.2168V72.8574H73.211V85.2168H71.6798Z" fill="white"/>
<path d="M69.2141 40.8055L50.9025 24.6261C50.4008 24.2499 49.7737 24.2499 49.272 24.6261L30.9604 40.8055C30.835 40.931 30.7096 41.0564 30.7096 41.3072V60.3714C30.7096 60.7476 30.9604 60.9985 31.3367 60.9985H44.2552C44.6314 60.9985 44.8823 60.7476 44.8823 60.3714V48.2054C44.8823 46.8258 46.0111 45.697 47.3907 45.697H52.7838C54.1635 45.697 55.2923 46.8258 55.2923 48.2054V60.3714C55.2923 60.7476 55.5431 60.9985 55.9194 60.9985H68.8378C69.2141 60.9985 69.4649 60.7476 69.4649 60.3714V41.3072C69.3395 41.0564 69.3395 40.931 69.2141 40.8055Z" fill="white"/>
<path d="M74.231 34.5345L53.411 16.2229C51.5297 14.5924 48.6449 14.5924 46.7636 16.2229L25.8182 34.5345C24.8148 35.4124 24.6894 37.0429 25.6928 38.0463C26.5707 38.9242 27.9503 38.9242 28.9537 38.1717L48.3941 20.9889C49.3975 20.1109 50.7771 20.1109 51.6551 20.9889L71.0955 38.0463C71.9734 38.9242 73.4785 38.7988 74.3564 37.9208C75.2344 37.0429 75.2344 35.4124 74.231 34.5345Z" fill="white"/>
</svg>
