<svg width="52" height="52" viewBox="0 0 52 52" fill="none" xmlns="http://www.w3.org/2000/svg">
<rect width="52" height="52" rx="26" fill="#5200E9"/>
<rect width="52" height="52" rx="26" fill="url(#paint0_linear_26134_2975)" fill-opacity="0.32"/>
<path fill-rule="evenodd" clip-rule="evenodd" d="M38.063 31.7319L33.4209 28.1385C33.1967 27.9655 32.9171 27.8801 32.6345 27.8984C32.3519 27.9166 32.0856 28.0373 31.8855 28.2377L29.4215 30.7029C29.238 30.8882 28.9973 31.0063 28.7383 31.0378C28.4794 31.0694 28.2174 31.0126 27.9947 30.8767C27.2014 30.3902 25.8737 29.4475 24.2124 27.785C22.551 26.1249 21.6084 24.796 21.1219 24.0039C20.9858 23.7814 20.929 23.5194 20.9608 23.2605C20.9926 23.0017 21.111 22.7612 21.2969 22.5782L23.7609 20.113C23.9616 19.9131 24.0823 19.6466 24.1004 19.3639C24.1184 19.0812 24.0325 18.8016 23.8589 18.5777L20.2667 13.9344C19.45 12.8809 17.91 12.714 16.9067 13.5949C15.5849 14.7545 13.997 16.4917 13.535 18.4412C12.6985 21.9529 14.0204 26.3594 19.8304 32.1694C25.6404 37.9782 30.0469 39.3012 33.5574 38.4659C35.5069 38.0015 37.2452 36.4125 38.4049 35.0919C39.2845 34.0885 39.1177 32.5485 38.063 31.7319Z" fill="white"/>
<defs>
<linearGradient id="paint0_linear_26134_2975" x1="2.57702e-06" y1="2.57702e-06" x2="26.0594" y2="62.7695" gradientUnits="userSpaceOnUse">
<stop stop-color="#3629F1" stop-opacity="0"/>
<stop offset="1" stop-color="#DCDCDC"/>
</linearGradient>
</defs>
</svg>
