<svg width="1920" height="1400" viewBox="0 0 1920 1400" fill="none" xmlns="http://www.w3.org/2000/svg">
<rect width="1920" height="1400" fill="white"/>
<path d="M300.381 848H360.254V906H419.112V882H480V869H540V826H601V915H659.619V873H719.492V804H780.381V850H840.254V908H899V826H960V869H1020.89V963H1079.75V915H1139.62V873H1199.49V804H1260.38V850H1320.25V908H1379V826H1440V882H1500.89V930H1559.75V848H1619.62V802H1680.51V913H1739.37V891H1799.24V826H1860.13V867H1920V1400H0V867H60.8877V961H119.746V913H179.619V871H239.492V802H300.381V848Z" fill="#A788F7" fill-opacity="0.3"/>
</svg>
