<svg width="621" height="811" viewBox="0 0 621 811" fill="none" xmlns="http://www.w3.org/2000/svg">
<path d="M524.5 0C471.355 0 428 43.1304 428 96C428 148.87 471.355 192 524.5 192C577.645 192 621 148.87 621 96C620.534 43.1304 577.645 0 524.5 0ZM524.5 140.058C500.725 140.058 481.611 120.116 481.611 96C481.611 71.4203 500.725 51.942 524.5 51.942C548.275 51.942 567.389 71.8841 567.389 96C567.389 120.116 548.275 140.058 524.5 140.058Z" fill="#E3DEF8"/>
<path d="M125 585C62.7681 585 12 635.768 12 698C12 760.232 62.7681 811 125 811C187.232 811 238 760.232 238 698C238 635.768 187.232 585 125 585ZM121.179 725.841V741.671H82.4203H59.4928V722.565C81.3285 707.826 99.343 695.271 99.343 682.169C99.343 674.527 92.7923 671.797 88.4251 672.343C80.7826 672.343 76.9613 677.802 74.2319 681.623L58.9469 670.159C66.5894 658.696 78.599 653.237 88.971 653.237C108.077 653.237 118.449 664.155 119.541 678.894C120.633 701.275 96.6135 719.29 89.5169 724.203H121.179V725.841ZM195.966 724.203H186.14V741.671H167.034V724.203H128.275V706.188L153.932 655.42H174.13L149.019 706.188H167.034V686.536H186.14V706.188H195.966V724.203Z" fill="#E3DEF8"/>
<path d="M83.4375 421.309V449.371H80.4688V433.809H74.6875V431.371H80.4688V421.309H83.4375ZM59.75 441.559C64.0312 439.512 67.0469 434.215 67.0625 429.184V426.559H60.875V424.121H76.2812V426.559H70.0625V429.184C70.0625 433.918 73.0469 439.027 77.3438 440.934L75.5625 443.309C72.3281 441.746 69.8438 438.481 68.5938 434.668C67.3438 438.731 64.7969 442.215 61.5625 443.871L59.75 441.559ZM110.906 421.309V449.371H107.938V421.309H110.906ZM89.2812 442.652V423.652H92.25V430.84H99.7812V423.652H102.719V442.652H89.2812ZM92.25 440.215H99.7812V433.184H92.25V440.215ZM140.906 434.965V437.371H115.375V434.965H121.5V431.199C119.328 430.324 118.109 428.918 118.125 427.059C118.109 423.731 121.969 421.793 128.125 421.809C134.266 421.793 138.109 423.731 138.125 427.059C138.109 428.918 136.891 430.324 134.719 431.215V434.965H140.906ZM118.406 444.246C118.406 441.043 122.031 439.277 128.125 439.277C134.141 439.277 137.766 441.043 137.781 444.246C137.766 447.481 134.141 449.246 128.125 449.246C122.031 449.246 118.406 447.481 118.406 444.246ZM121.188 427.059C121.172 428.934 123.766 429.981 128.125 429.996C132.453 429.981 135.078 428.934 135.062 427.059C135.078 425.184 132.453 424.106 128.125 424.09C123.766 424.106 121.172 425.184 121.188 427.059ZM121.406 444.246C121.391 445.996 123.844 446.996 128.125 446.965C132.344 446.996 134.812 445.996 134.812 444.246C134.812 442.527 132.344 441.559 128.125 441.559C123.844 441.559 121.391 442.527 121.406 444.246ZM124.5 434.965H131.781V431.981C130.688 432.152 129.453 432.246 128.125 432.246C126.812 432.246 125.594 432.152 124.5 431.996V434.965ZM173.5 423.996V426.746C173.484 430.199 173.484 434.074 172.438 439.809L169.438 439.496C170.516 434.074 170.516 430.106 170.531 426.746V426.402H153.531V423.996H173.5ZM150.844 445.527V443.059H160.562V433.184H163.5V443.059H176.375V445.527H150.844ZM202.75 425.277V427.684H179.719V425.277H189.781V421.715H192.719V425.277H202.75ZM178.5 446.215V443.809H185.062V438.809C183.031 437.918 181.891 436.481 181.906 434.59C181.891 431.246 185.469 429.277 191.25 429.309C196.984 429.277 200.578 431.246 200.562 434.59C200.578 436.481 199.438 437.918 197.406 438.809V443.809H204.125V446.215H178.5ZM184.938 434.59C184.906 436.481 187.25 437.559 191.25 437.559C195.188 437.559 197.547 436.481 197.531 434.59C197.547 432.684 195.188 431.606 191.25 431.59C187.25 431.606 184.906 432.684 184.938 434.59ZM188.031 443.809H194.5V439.637C193.516 439.793 192.422 439.871 191.25 439.871C190.078 439.871 189 439.793 188.031 439.637V443.809ZM218.906 421.621C225.219 421.606 228.891 423.34 228.906 426.434C228.891 429.574 225.219 431.277 218.906 431.277C212.594 431.277 208.891 429.574 208.906 426.434C208.891 423.34 212.594 421.606 218.906 421.621ZM206.156 435.184V432.809H231.688V435.184H224.812V437.684H228.469V444.246H212.156V446.746H229.25V449.027H209.25V442.09H225.531V439.902H209.219V437.684H212.938V435.184H206.156ZM212 426.434C211.984 428.168 214.453 429.043 218.906 429.059C223.391 429.043 225.859 428.168 225.844 426.434C225.859 424.793 223.391 423.856 218.906 423.84C214.453 423.856 211.984 424.793 212 426.434ZM215.875 437.684H221.844V435.184H215.875V437.684ZM255.969 423.777C255.953 427.496 260.5 430.981 266 431.715L264.844 434.152C260.266 433.418 256.25 431.043 254.422 427.746C252.594 431.043 248.578 433.418 244.031 434.152L242.844 431.715C248.328 430.981 252.859 427.543 252.875 423.777V422.246H255.969V423.777ZM241.625 439.34V436.902H267.156V439.34H255.781V449.309H252.875V439.34H241.625ZM292.5 439.34V449.309H289.531V441.746H273.531V439.34H292.5ZM269.844 429.621C269.859 425.699 273.016 422.934 277.312 422.934C281.594 422.934 284.75 425.699 284.75 429.621C284.75 433.574 281.594 436.309 277.312 436.309C273.016 436.309 269.859 433.574 269.844 429.621ZM272.75 429.621C272.734 432.137 274.656 433.809 277.312 433.777C279.938 433.809 281.844 432.137 281.844 429.621C281.844 427.121 279.938 425.481 277.312 425.465C274.656 425.481 272.734 427.121 272.75 429.621ZM289.531 437.902V421.309H292.5V437.902H289.531ZM319.312 422.621V424.559C319.328 426.668 319.328 429.34 318.656 432.965H322.562V435.402H296.938V432.965H315.656C316.328 429.559 316.375 427.043 316.375 425.027H300.156V422.621H319.312ZM299.656 441.621V439.277H319.469V449.371H316.5V441.621H299.656ZM348.625 421.309V449.309H345.781V434.84H342.156V447.871H339.438V421.871H342.156V432.402H345.781V421.309H348.625ZM325.531 442.59V424.684H336.031V427.09H328.5V440.059C331.938 440.043 334.531 439.887 337.531 439.309L337.75 441.746C334.391 442.449 331.484 442.559 327.406 442.59H325.531ZM374.188 421.309V433.027H378.406V435.527H374.188V449.309H371.219V421.309H374.188ZM351.906 441.684C354.109 441.684 356.672 441.684 359.344 441.606V438.762C356.188 438.293 354.125 436.387 354.156 433.684C354.125 430.527 356.859 428.449 360.844 428.434C364.812 428.449 367.578 430.527 367.594 433.684C367.578 436.387 365.484 438.309 362.312 438.762V441.496C364.797 441.371 367.297 441.168 369.625 440.84L369.812 443.027C363.75 444.106 357.203 444.168 352.375 444.152L351.906 441.684ZM352.438 426.996V424.621H359.344V421.371H362.312V424.621H369.219V426.996H352.438ZM356.938 433.684C356.938 435.465 358.5 436.574 360.844 436.559C363.188 436.574 364.734 435.465 364.75 433.684C364.734 431.887 363.188 430.746 360.844 430.746C358.5 430.746 356.938 431.887 356.938 433.684ZM397.656 425.496C397.641 429.418 400.188 432.918 404.438 434.309L402.812 436.621C399.734 435.496 397.469 433.34 396.25 430.527C395.047 433.731 392.609 436.246 389.219 437.465L387.625 435.09C392.094 433.559 394.688 429.824 394.719 425.621V422.871H397.656V425.496ZM392.219 443.965C392.203 440.574 395.797 438.606 401.688 438.621C407.547 438.606 411.141 440.574 411.156 443.965C411.141 447.34 407.547 449.262 401.688 449.246C395.797 449.262 392.203 447.34 392.219 443.965ZM395.156 443.965C395.141 445.824 397.578 446.918 401.688 446.902C405.766 446.918 408.203 445.824 408.219 443.965C408.203 442.043 405.766 440.934 401.688 440.934C397.578 440.934 395.141 442.043 395.156 443.965ZM402.188 429.434V426.996H408.094V421.309H411.062V437.84H408.094V429.434H402.188ZM428 438.902C434.062 438.902 437.891 440.824 437.906 444.09C437.891 447.34 434.062 449.262 428 449.246C422 449.262 418.156 447.34 418.156 444.09C418.156 440.824 422 438.902 428 438.902ZM415.406 436.59V434.184H425.625V428.934H428.531V434.184H440.875V436.59H415.406ZM418.375 425.059V422.684H437.688V425.027C437.703 427.262 437.703 429.574 436.906 432.465L434 432.152C434.75 429.293 434.75 427.231 434.75 425.059H418.375ZM421.125 444.09C421.094 445.902 423.766 446.949 428 446.965C432.281 446.949 434.938 445.902 434.969 444.09C434.938 442.246 432.281 441.168 428 441.152C423.766 441.168 421.094 442.246 421.125 444.09ZM452.844 427.309C452.844 430.559 455.375 433.574 459.656 434.777L458.281 437.121C455.062 436.184 452.672 434.199 451.438 431.652C450.203 434.527 447.766 436.762 444.469 437.84L443 435.496C447.281 434.231 449.906 430.934 449.906 427.309V426.965H443.812V424.559H449.906V421.184H452.875V424.559H458.938V426.965H452.844V427.309ZM446.594 444.152C446.594 440.871 450.141 439.012 456 439.027C461.797 439.012 465.281 440.871 465.281 444.152C465.281 447.371 461.797 449.231 456 449.246C450.141 449.231 446.594 447.371 446.594 444.152ZM449.562 444.152C449.547 445.949 451.922 446.949 456 446.965C460.016 446.949 462.391 445.949 462.375 444.152C462.391 442.309 460.016 441.34 456 441.34C451.922 441.34 449.547 442.309 449.562 444.152ZM462.062 438.371V421.309H465.031V428.371H469.094V430.809H465.031V438.371H462.062ZM478.438 422.59C482.125 422.559 484.984 424.699 485.594 427.84H491.062V421.309H494.031V436.34H491.062V430.277H485.609C485.031 433.496 482.156 435.652 478.438 435.652C474.156 435.652 471.078 432.949 471.094 429.09C471.078 425.277 474.156 422.559 478.438 422.59ZM473.938 429.09C473.922 431.481 475.797 433.152 478.438 433.152C481.031 433.152 482.875 431.481 482.875 429.09C482.875 426.684 481.031 425.043 478.438 425.059C475.797 425.043 473.922 426.684 473.938 429.09ZM475.781 448.965V437.684H478.719V440.934H491.062V437.684H494.031V448.965H475.781ZM478.719 446.527H491.062V443.277H478.719V446.527ZM511.094 421.777C517.406 421.762 521.078 423.465 521.094 426.59C521.078 429.731 517.406 431.434 511.094 431.434C504.781 431.434 501.078 429.731 501.094 426.59C501.078 423.465 504.781 421.762 511.094 421.777ZM498.344 435.527V433.152H523.875V435.527H498.344ZM501.406 439.902V437.684H520.656V444.246H504.344V446.746H521.438V449.027H501.438V442.09H517.719V439.902H501.406ZM504.188 426.59C504.172 428.324 506.641 429.215 511.094 429.215C515.578 429.215 518.047 428.324 518.031 426.59C518.047 424.934 515.578 423.965 511.094 423.965C506.641 423.965 504.172 424.934 504.188 426.59ZM127.453 467.309V474.559H131.516V477.09H127.453V484.184H124.484V467.309H127.453ZM105.484 472.527V470.152H112.359V467.09H115.328V470.152H122.172V472.527H105.484ZM107.016 478.746C107 475.762 109.75 473.746 113.828 473.746C117.875 473.746 120.609 475.762 120.609 478.746C120.609 481.777 117.859 483.762 113.828 483.777C109.75 483.762 107 481.777 107.016 478.746ZM109.578 494.965V485.652H127.453V494.965H109.578ZM109.891 478.746C109.859 480.481 111.453 481.512 113.828 481.527C116.203 481.512 117.797 480.481 117.828 478.746C117.797 477.074 116.203 476.012 113.828 476.027C111.453 476.012 109.859 477.074 109.891 478.746ZM112.484 492.559H124.516V487.996H112.484V492.559ZM140.047 470.621C140.016 476.887 139.234 483.387 135.328 488.871L133.016 487.559C136.281 483.184 137.266 478.324 137.469 473.059H133.672V470.621H140.047ZM139.297 489.215C142.922 484.34 143.594 478.481 143.703 473.059H140.891V470.621H146.266C146.266 472.981 146.203 475.543 145.906 478.152H149.203V468.027H152.016V493.934H149.203V480.559H145.562C144.938 484.043 143.781 487.496 141.609 490.559L139.297 489.215ZM154.484 495.309V467.309H157.328V495.309H154.484ZM182.578 467.309V478.652H187.078V481.121H182.578V495.309H179.641V467.309H182.578ZM160.609 474.121V471.684H167.516V467.684H170.484V471.684H177.203V474.121H160.609ZM162.047 482.684C162.047 478.871 164.984 476.184 169.016 476.184C173.031 476.184 175.969 478.871 175.984 482.684C175.969 486.527 173.031 489.199 169.016 489.215C164.984 489.199 162.047 486.527 162.047 482.684ZM164.891 482.684C164.875 485.121 166.625 486.746 169.016 486.715C171.391 486.746 173.125 485.121 173.141 482.684C173.125 480.293 171.391 478.637 169.016 478.621C166.625 478.637 164.875 480.293 164.891 482.684ZM211.609 467.309V481.715H208.672V467.309H211.609ZM188.516 479.215C192.891 477.762 195.562 474.09 195.578 470.215V468.059H198.609V470.215C198.594 473.965 201.281 477.371 205.578 478.715L204.109 481.027C200.844 479.965 198.391 477.762 197.125 474.918C195.859 477.981 193.359 480.418 190.016 481.559L188.516 479.215ZM193.234 485.402V483.059H211.641V490.059H196.203V492.652H212.578V495.027H193.328V487.809H208.703V485.402H193.234ZM233.703 473.309C233.703 476.559 236.234 479.574 240.516 480.777L239.141 483.121C235.922 482.184 233.531 480.199 232.297 477.652C231.062 480.527 228.625 482.762 225.328 483.84L223.859 481.496C228.141 480.231 230.766 476.934 230.766 473.309V472.965H224.672V470.559H230.766V467.184H233.734V470.559H239.797V472.965H233.703V473.309ZM227.453 490.152C227.453 486.871 231 485.012 236.859 485.027C242.656 485.012 246.141 486.871 246.141 490.152C246.141 493.371 242.656 495.231 236.859 495.246C231 495.231 227.453 493.371 227.453 490.152ZM230.422 490.152C230.406 491.949 232.781 492.949 236.859 492.965C240.875 492.949 243.25 491.949 243.234 490.152C243.25 488.309 240.875 487.34 236.859 487.34C232.781 487.34 230.406 488.309 230.422 490.152ZM242.922 484.371V467.309H245.891V474.371H249.953V476.809H245.891V484.371H242.922ZM259.297 468.59C262.984 468.559 265.844 470.699 266.453 473.84H271.922V467.309H274.891V482.34H271.922V476.277H266.469C265.891 479.496 263.016 481.652 259.297 481.652C255.016 481.652 251.938 478.949 251.953 475.09C251.938 471.277 255.016 468.559 259.297 468.59ZM254.797 475.09C254.781 477.481 256.656 479.152 259.297 479.152C261.891 479.152 263.734 477.481 263.734 475.09C263.734 472.684 261.891 471.043 259.297 471.059C256.656 471.043 254.781 472.684 254.797 475.09ZM256.641 494.965V483.684H259.578V486.934H271.922V483.684H274.891V494.965H256.641ZM259.578 492.527H271.922V489.277H259.578V492.527ZM304.734 483.09V485.496H293.359V495.277H290.453V485.496H279.203V483.09H304.734ZM280.641 478.621C285.859 477.902 290.203 474.793 290.297 471.34H281.578V468.965H302.328V471.34H293.672C293.719 474.793 298.031 477.902 303.328 478.621L302.234 480.965C297.641 480.246 293.672 477.981 291.969 474.793C290.25 477.981 286.297 480.246 281.766 480.965L280.641 478.621ZM330.047 467.309V483.121H327.109V467.309H330.047ZM308.578 481.246V468.934H311.547V478.746C316.062 478.715 320.016 478.402 324.234 477.496L324.641 479.965C320.016 480.902 315.797 481.231 310.891 481.246H308.578ZM311.703 494.934V484.402H330.047V494.934H311.703ZM314.609 492.559H327.141V486.746H314.609V492.559ZM347.266 467.777C353.578 467.762 357.25 469.465 357.266 472.59C357.25 475.731 353.578 477.434 347.266 477.434C340.953 477.434 337.25 475.731 337.266 472.59C337.25 469.465 340.953 467.762 347.266 467.777ZM334.516 481.527V479.152H360.047V481.527H334.516ZM337.578 485.902V483.684H356.828V490.246H340.516V492.746H357.609V495.027H337.609V488.09H353.891V485.902H337.578ZM340.359 472.59C340.344 474.324 342.812 475.215 347.266 475.215C351.75 475.215 354.219 474.324 354.203 472.59C354.219 470.934 351.75 469.965 347.266 469.965C342.812 469.965 340.344 470.934 340.359 472.59ZM395.609 489.34V491.809H369.984V489.34H381.266V482.871H372.922V469.559H392.547V482.871H384.203V489.34H395.609ZM375.797 480.527H389.641V471.934H375.797V480.527ZM407.828 470.84C407.812 474.512 410.5 477.934 414.797 479.277L413.359 481.59C410.078 480.512 407.609 478.324 406.344 475.496C405.062 478.543 402.562 480.965 399.203 482.09L397.734 479.746C402.109 478.309 404.781 474.668 404.797 470.84V468.215H407.828V470.84ZM402.547 494.965V483.684H405.453V486.84H417.922V483.684H420.859V494.965H402.547ZM405.453 492.527H417.922V489.184H405.453V492.527ZM417.891 482.34V467.309H420.859V482.34H417.891ZM448.547 467.309V495.309H445.578V467.309H448.547ZM427.016 488.184V470.027H429.953V485.621C434.047 485.606 438.344 485.246 442.828 484.34L443.234 486.84C438.281 487.856 433.781 488.199 429.359 488.184H427.016ZM474.766 467.309V478.152H479.266V480.59H474.766V495.371H471.797V467.309H474.766ZM454.141 488.402V469.996H467.234V472.402H457.109V485.934C461.812 485.918 465.328 485.715 469.328 484.996L469.703 487.496C465.312 488.277 461.594 488.418 456.391 488.402H454.141Z" fill="black"/>
<path d="M42.0557 314.351C41.9756 324.121 48.4619 335.852 67.6807 339.015L62.1553 349.666C48.582 347.143 39.8535 340.457 35.1689 331.808C30.3643 340.376 21.5557 347.103 8.18262 349.666L2.7373 339.015C21.5557 335.772 28.1621 323.88 28.2021 314.351V309.306H42.0557V314.351ZM1.77637 370.966V360.476H69.4424V370.966H1.77637ZM111.003 312.109V361.837H74.5674V312.109H111.003ZM87.2197 351.748H98.2705V322.039H87.2197V351.748ZM118.851 379.375V305.302H131.743V332.208H141.753V342.859H131.743V379.375H118.851ZM204.134 342.539V352.468H151.042V310.187H203.733V320.517H164.095V326.283H201.892V336.212H164.095V342.539H204.134ZM143.515 371.447V361.117H211.181V371.447H143.515ZM299.827 345.742V355.912H272.12V379.294H259.388V355.912H232.241V345.742H299.827ZM239.688 339.095V308.666H292.22V339.095H239.688ZM252.261 329.085H279.407V318.755H252.261V329.085ZM365.571 305.462V358.074H352.679V305.462H365.571ZM303.911 328.845C303.831 317.875 313.08 309.827 324.651 309.867C336.183 309.827 345.432 317.875 345.392 328.845C345.432 340.016 336.183 347.944 324.651 347.984C313.08 347.944 303.831 340.016 303.911 328.845ZM314.882 378.333V352.789H327.854V368.083H367.333V378.333H314.882ZM316.403 328.845C316.363 334.25 319.927 336.813 324.651 336.853C329.136 336.813 332.659 334.25 332.659 328.845C332.659 323.64 329.136 320.958 324.651 320.998C319.927 320.958 316.363 323.64 316.403 328.845ZM437.001 305.302V359.515H424.188V343.339H416.981V332.849H424.188V327.884H416.981V317.714H424.188V305.302H437.001ZM373.899 341.658H380.626V320.357H375.661V310.187H415.14V320.357H410.015V340.617C411.856 340.497 413.618 340.336 415.38 340.136L415.94 349.425C402.407 351.627 386.632 352.028 375.101 351.988L373.899 341.658ZM386.792 378.333V355.751H399.765V368.083H438.603V378.333H386.792ZM393.038 341.458L397.763 341.337V320.357H393.038V341.458ZM468.632 310.027C480.483 309.987 489.532 317.875 489.532 328.685C489.532 339.576 480.483 347.383 468.632 347.343C456.98 347.383 447.731 339.576 447.731 328.685C447.731 317.875 456.98 309.987 468.632 310.027ZM445.089 354.951C458.021 354.951 475.959 354.75 491.454 352.628L492.415 361.837C476.359 365.041 459.223 365.201 446.53 365.201L445.089 354.951ZM460.544 328.685C460.504 333.89 464.147 336.333 468.632 336.292C473.316 336.333 477 333.89 477.04 328.685C477 323.64 473.356 321.078 468.632 321.078C464.107 321.078 460.504 323.64 460.544 328.685ZM495.218 379.615V305.302H507.95V379.615H495.218ZM578.739 305.302V347.904H565.927V331.888H556.317V321.478H565.927V305.302H578.739ZM514.837 338.375C526.568 334.811 530.973 326.643 531.813 318.675H518.36V308.505H558.64V318.675H545.227C545.987 326.002 550.231 333.65 561.282 337.253L555.116 347.343C547.108 344.821 541.823 340.016 538.62 333.97C535.377 340.617 529.892 345.902 521.403 348.464L514.837 338.375ZM528.13 378.734V350.466H578.739V378.734H528.13ZM541.022 368.484H566.247V360.556H541.022V368.484Z" fill="url(#paint0_linear_329_76)"/>
<rect x="152" y="251.801" width="280" height="24.8227" fill="#A788F7" fill-opacity="0.8"/>
<path d="M197.43 226.656V269.312H191.758V247.891H187.633V267.25H182.149V227.359H187.633V243.109H191.758V226.656H197.43ZM161.758 259.656V231.578H177.649V236.406H167.758V254.641C171.883 254.57 175.54 254.336 179.665 253.609L180.087 258.484C174.883 259.469 170.337 259.633 164.712 259.656H161.758ZM235.868 226.703V239.781H241.633V244.656H235.868V258.531H229.868V226.703H235.868ZM202.024 235.891V231.156H211.727V226.609H217.68V231.156H227.337V235.891H202.024ZM204.087 245.641C204.087 240.695 208.469 237.391 214.68 237.391C220.868 237.391 225.18 240.695 225.18 245.641C225.18 250.562 220.868 253.797 214.68 253.797C208.469 253.797 204.087 250.562 204.087 245.641ZM208.212 268.562V256.094H214.165V263.781H237.415V268.562H208.212ZM209.946 245.641C209.923 247.984 211.821 249.25 214.68 249.25C217.563 249.25 219.508 247.984 219.508 245.641C219.508 243.273 217.563 241.961 214.68 241.938C211.821 241.961 209.923 243.273 209.946 245.641ZM266.524 230.078V250.656H245.665V230.078H266.524ZM250.633 268.375V254.219H256.68V263.547H280.352V268.375H250.633ZM251.571 245.922H260.571V234.812H251.571V245.922ZM273.227 257.031V226.703H279.227V257.031H273.227ZM319.399 228.531V231.859C319.423 235 319.423 238.609 318.532 243.203H324.04V247.984H307.446V254.125H319.446V269.312H313.446V258.812H288.93V254.125H301.446V247.984H284.993V243.203H312.485C313.282 239.195 313.399 236.078 313.446 233.266H289.774V228.531H319.399Z" fill="black"/>
<path d="M367.446 231.062V265H361.352L346.446 243.438H346.165V265H339.133V231.062H345.321L360.133 252.625H360.462V231.062H367.446ZM384.462 265.516C376.774 265.492 371.969 260.219 371.993 252.344C371.969 244.492 376.774 239.219 384.462 239.219C392.173 239.219 396.954 244.492 396.977 252.344C396.954 260.219 392.173 265.492 384.462 265.516ZM379.024 252.344C379.024 256.797 380.876 260.102 384.508 260.125C388.048 260.102 389.923 256.797 389.899 252.344C389.923 247.867 388.048 244.516 384.508 244.516C380.876 244.516 379.024 247.867 379.024 252.344ZM405.415 265.422C403.212 265.422 401.43 263.664 401.477 261.484C401.43 259.328 403.212 257.57 405.415 257.594C407.501 257.57 409.305 259.328 409.305 261.484C409.305 263.664 407.501 265.422 405.415 265.422ZM418.523 231.062V265H411.445V237.766H411.257L403.476 242.641V236.406L411.867 231.062H418.523Z" fill="#4F2EEB"/>
<defs>
<linearGradient id="paint0_linear_329_76" x1="0" y1="342.156" x2="585" y2="342.156" gradientUnits="userSpaceOnUse">
<stop stop-color="#925CFF"/>
<stop offset="0.471154" stop-color="#7145F5"/>
<stop offset="0.918269" stop-color="#5F00C5"/>
</linearGradient>
</defs>
</svg>
