<svg width="20" height="21" viewBox="0 0 20 21" fill="none" xmlns="http://www.w3.org/2000/svg">
<path d="M17.5 10.8955C17.5 11.0613 17.4342 11.2202 17.3169 11.3375C17.1997 11.4547 17.0408 11.5205 16.875 11.5205H10.625V17.7705C10.625 17.9363 10.5592 18.0952 10.4419 18.2125C10.3247 18.3297 10.1658 18.3955 10 18.3955C9.83424 18.3955 9.67527 18.3297 9.55806 18.2125C9.44085 18.0952 9.375 17.9363 9.375 17.7705V11.5205H3.125C2.95924 11.5205 2.80027 11.4547 2.68306 11.3375C2.56585 11.2202 2.5 11.0613 2.5 10.8955C2.5 10.7297 2.56585 10.5708 2.68306 10.4536C2.80027 10.3364 2.95924 10.2705 3.125 10.2705H9.375V4.02051C9.375 3.85475 9.44085 3.69578 9.55806 3.57857C9.67527 3.46136 9.83424 3.39551 10 3.39551C10.1658 3.39551 10.3247 3.46136 10.4419 3.57857C10.5592 3.69578 10.625 3.85475 10.625 4.02051V10.2705H16.875C17.0408 10.2705 17.1997 10.3364 17.3169 10.4536C17.4342 10.5708 17.5 10.7297 17.5 10.8955Z" fill="#919FA8"/>
</svg>
