<svg width="20" height="21" viewBox="0 0 20 21" fill="none" xmlns="http://www.w3.org/2000/svg">
<path d="M16.0675 15.7486C16.1256 15.8067 16.1717 15.8756 16.2031 15.9515C16.2345 16.0273 16.2507 16.1087 16.2507 16.1908C16.2507 16.2729 16.2345 16.3542 16.2031 16.4301C16.1717 16.506 16.1256 16.5749 16.0675 16.633C16.0095 16.691 15.9405 16.7371 15.8647 16.7685C15.7888 16.7999 15.7075 16.8161 15.6253 16.8161C15.5432 16.8161 15.4619 16.7999 15.386 16.7685C15.3102 16.7371 15.2412 16.691 15.1832 16.633L10.0003 11.4494L4.81753 16.633C4.70026 16.7502 4.5412 16.8161 4.37535 16.8161C4.2095 16.8161 4.05044 16.7502 3.93316 16.633C3.81588 16.5157 3.75 16.3566 3.75 16.1908C3.75 16.0249 3.81588 15.8659 3.93316 15.7486L9.11675 10.5658L3.93316 5.38296C3.81588 5.26569 3.75 5.10663 3.75 4.94078C3.75 4.77492 3.81588 4.61587 3.93316 4.49859C4.05044 4.38131 4.2095 4.31543 4.37535 4.31543C4.5412 4.31543 4.70026 4.38131 4.81753 4.49859L10.0003 9.68218L15.1832 4.49859C15.3004 4.38131 15.4595 4.31543 15.6253 4.31543C15.7912 4.31543 15.9503 4.38131 16.0675 4.49859C16.1848 4.61587 16.2507 4.77492 16.2507 4.94078C16.2507 5.10663 16.1848 5.26569 16.0675 5.38296L10.8839 10.5658L16.0675 15.7486Z" fill="#5200E9"/>
</svg>
