<svg width="186" height="45" viewBox="0 0 186 45" fill="none" xmlns="http://www.w3.org/2000/svg">
<path d="M63.0408 9.73525V10.5522H64.6747C64.947 10.1437 65.0832 9.66717 65.1512 9.19062C65.2193 8.78215 65.2193 8.44175 65.2193 8.23752V4.62935H60.9304V8.44175H61.8154C62.4281 8.44175 63.0408 8.85023 63.0408 9.73525Z" fill="#11A55B"/>
<path d="M86.3238 16.407C86.1195 16.407 85.9153 16.2027 85.9153 15.9985V10.6884C85.9153 9.12255 85.8472 7.42058 84.6218 6.19516C83.7368 5.31014 81.4902 4.35704 79.3117 4.35704C77.2693 4.35704 75.8397 5.10591 75.0227 5.4463V4.35704H68.5552V15.9985C68.5552 16.2027 68.351 16.407 68.1468 16.407H67.1937V20.2194H76.6566V16.407H75.5673C75.3631 16.407 75.1589 16.2027 75.1589 15.9985V11.9819C75.1589 10.6203 76.2481 9.80333 77.4055 9.80333C78.699 9.80333 79.6521 10.6884 79.6521 11.8457V20.2194H87.413V16.3389H86.3238V16.407Z" fill="#11A55B"/>
<path d="M16.2027 12.5265C7.28442 12.5265 0 19.8109 0 28.7973C0 37.7837 7.28442 45 16.2027 45C25.1891 45 32.4054 37.7156 32.4054 28.7973C32.4735 19.8109 25.1891 12.5265 16.2027 12.5265ZM16.2027 36.2859C12.1861 36.2859 8.98639 32.9501 8.98639 28.7973C8.98639 24.6445 12.2542 21.3086 16.2027 21.3086C20.2194 21.3086 23.4191 24.6445 23.4191 28.7973C23.4191 32.9501 20.2194 36.2859 16.2027 36.2859Z" fill="#11A55B"/>
<path d="M65.2192 37.7156C64.6746 37.7156 64.1981 37.239 64.1981 36.6944V26.0741C64.1981 20.4917 63.9257 19.5386 61.1345 16.7473C60.1814 15.7942 59.0241 15.1135 57.7987 14.6369C56.0286 13.888 52.7608 13.4796 50.0377 14.0242C48.1996 14.3646 46.3614 15.0454 44.6595 16.0666V13.9561H36.0816V36.7625C36.0816 37.3071 35.605 37.7837 35.0604 37.7837H32.4734V43.8427H49.1527V37.7837H46.2934C45.7487 37.7837 45.2722 37.3071 45.2722 36.7625V27.1634C45.2722 23.8956 47.5188 21.8532 50.2419 21.8532C53.4416 21.8532 55.2117 24.0998 55.2117 26.823V43.8427H67.9424V37.7156H65.2192Z" fill="#11A55B"/>
<path d="M175.371 0C169.788 0 165.227 4.56127 165.227 10.1437C165.227 15.7262 169.788 20.2874 175.371 20.2874C180.953 20.2874 185.514 15.7262 185.514 10.1437C185.514 4.56127 180.953 0 175.371 0ZM175.03 12.6626V14.0923H171.558H169.448V12.3903C171.422 11.0968 173.056 9.93949 173.056 8.78215C173.056 8.10136 172.511 7.89713 172.103 7.89713C171.422 7.89713 171.082 8.37368 170.809 8.71407L169.448 7.69289C170.129 6.67171 171.218 6.19516 172.171 6.19516C173.873 6.19516 174.826 7.14826 174.894 8.50984C174.962 10.4841 172.852 12.118 172.171 12.5946H175.03V12.6626ZM181.702 12.5265H180.817V14.0923H179.115V12.5265H175.643V10.8926L177.958 6.33132H179.796L177.549 10.8926H179.115V9.12254H180.817V10.8926H181.702V12.5265Z" fill="#FF0000"/>
<path d="M112.058 12.5265C103.071 12.5265 95.8548 19.8109 95.8548 28.7292C95.8548 37.7156 103.139 44.9319 112.058 44.9319C121.044 44.9319 128.26 37.6475 128.26 28.7292C128.26 19.8109 121.044 12.5265 112.058 12.5265ZM112.058 36.2859C108.041 36.2859 104.841 32.9501 104.841 28.7973C104.841 24.6445 108.109 21.3086 112.058 21.3086C116.074 21.3086 119.274 24.6445 119.274 28.7973C119.274 32.9501 116.074 36.2859 112.058 36.2859Z" fill="#FF0000"/>
<path d="M163.593 23.0106V15.59H158.691V13.5477C158.691 11.6415 159.44 10.1437 162.504 10.1437V2.17853H161.142C154.743 2.17853 149.637 5.31015 149.637 12.5946V15.59H140.242V13.5477C140.242 11.6415 140.991 10.1437 144.055 10.1437V2.17853H142.693C136.294 2.17853 131.188 5.31015 131.188 12.5946V15.59H128.192V23.0106H131.188V36.8306C131.188 37.3752 130.711 37.8518 130.166 37.8518H128.192V43.8427H143.782V37.8518H141.263C140.719 37.8518 140.242 37.3752 140.242 36.8306V23.0106H149.637V36.8306C149.637 37.3752 149.16 37.8518 148.616 37.8518H146.369V43.8427H162.232V37.8518H159.713C159.168 37.8518 158.76 37.4433 158.691 36.8987V23.0106H163.593Z" fill="#FF0000"/>
</svg>
